STARTFONT 2.1
COMMENT
COMMENT Converted from OpenType font "Alibaba-PuHuiTi-Medium.ttf" by "otf2bdf.exe 3.0".
COMMENT
FONT -FreeType-Alibaba PuHuiTi Medium-Medium-R-Normal--12-720-12-12-P-108-ISO10646-1
SIZE 72 12 12
FONTBOUNDINGBOX 20 19 -5 -4
STARTPROPERTIES 19
FOUNDRY "FreeType"
FAMILY_NAME "Alibaba PuHuiTi Medium"
WEIGHT_NAME "Medium"
SLANT "R"
SETWIDTH_NAME "Normal"
ADD_STYLE_NAME ""
PIXEL_SIZE 12
POINT_SIZE 720
RESOLUTION_X 12
RESOLUTION_Y 12
SPACING "P"
AVERAGE_WIDTH 108
CHARSET_REGISTRY "ISO10646"
CHARSET_ENCODING "1"
FONT_ASCENT 12
FONT_DESCENT 3
COPYRIGHT "Copyright © 2019 Alibaba (China) Co., Ltd. All rights reserved."
_OTF_FONTFILE "Alibaba-PuHuiTi-Medium.ttf"
_OTF_PSNAME "AlibabaPuHuiTi-Medium"
ENDPROPERTIES
CHARS 28936
STARTCHAR 0002
ENCODING 2
SWIDTH 0 0
DWIDTH 0 0
BBX 0 0 0 0
BITMAP
ENDCHAR
STARTCHAR 0009
ENCODING 9
SWIDTH 0 0
DWIDTH 0 0
BBX 0 0 0 0
BITMAP
ENDCHAR
STARTCHAR 000A
ENCODING 10
SWIDTH 0 0
DWIDTH 0 0
BBX 0 0 0 0
BITMAP
ENDCHAR
STARTCHAR 000D
ENCODING 13
SWIDTH 250 0
DWIDTH 3 0
BBX 0 0 0 0
BITMAP
ENDCHAR
STARTCHAR 0020
ENCODING 32
SWIDTH 250 0
DWIDTH 3 0
BBX 0 0 0 0
BITMAP
ENDCHAR
STARTCHAR 0021
ENCODING 33
SWIDTH 333 0
DWIDTH 4 0
BBX 2 9 1 0
BITMAP
C0
C0
C0
C0
C0
C0
00
C0
C0
ENDCHAR
STARTCHAR 0022
ENCODING 34
SWIDTH 416 0
DWIDTH 5 0
BBX 3 4 1 6
BITMAP
A0
A0
A0
A0
ENDCHAR
STARTCHAR 0023
ENCODING 35
SWIDTH 583 0
DWIDTH 7 0
BBX 7 9 0 0
BITMAP
24
24
FE
64
6C
FE
48
48
48
ENDCHAR
STARTCHAR 0024
ENCODING 36
SWIDTH 583 0
DWIDTH 7 0
BBX 6 12 1 -2
BITMAP
20
78
E0
E0
E0
78
28
2C
B8
F8
20
20
ENDCHAR
STARTCHAR 0025
ENCODING 37
SWIDTH 833 0
DWIDTH 10 0
BBX 9 9 1 0
BITMAP
E200
E400
F800
E800
7700
1500
2D80
2500
0700
ENDCHAR
STARTCHAR 0026
ENCODING 38
SWIDTH 583 0
DWIDTH 7 0
BBX 7 9 0 0
BITMAP
38
68
68
78
72
DE
CE
CC
7E
ENDCHAR
STARTCHAR 0027
ENCODING 39
SWIDTH 250 0
DWIDTH 3 0
BBX 1 4 1 6
BITMAP
80
80
80
80
ENDCHAR
STARTCHAR 0028
ENCODING 40
SWIDTH 416 0
DWIDTH 5 0
BBX 3 13 1 -3
BITMAP
20
60
40
C0
C0
C0
C0
C0
C0
C0
40
60
20
ENDCHAR
STARTCHAR 0029
ENCODING 41
SWIDTH 333 0
DWIDTH 4 0
BBX 4 13 0 -3
BITMAP
C0
40
60
20
20
30
30
30
20
20
60
40
C0
ENDCHAR
STARTCHAR 002A
ENCODING 42
SWIDTH 416 0
DWIDTH 5 0
BBX 4 5 1 5
BITMAP
40
D0
E0
E0
20
ENDCHAR
STARTCHAR 002B
ENCODING 43
SWIDTH 500 0
DWIDTH 6 0
BBX 6 6 0 1
BITMAP
30
30
FC
30
30
30
ENDCHAR
STARTCHAR 002C
ENCODING 44
SWIDTH 250 0
DWIDTH 3 0
BBX 3 4 0 -2
BITMAP
60
40
C0
80
ENDCHAR
STARTCHAR 002D
ENCODING 45
SWIDTH 500 0
DWIDTH 6 0
BBX 4 1 1 4
BITMAP
F0
ENDCHAR
STARTCHAR 002E
ENCODING 46
SWIDTH 333 0
DWIDTH 4 0
BBX 2 2 1 1
BITMAP
C0
C0
ENDCHAR
STARTCHAR 002F
ENCODING 47
SWIDTH 500 0
DWIDTH 6 0
BBX 4 10 1 0
BITMAP
10
10
20
20
20
40
40
40
80
80
ENDCHAR
STARTCHAR 0030
ENCODING 48
SWIDTH 666 0
DWIDTH 8 0
BBX 6 9 1 0
BITMAP
78
CC
CC
CC
CC
CC
CC
CC
78
ENDCHAR
STARTCHAR 0031
ENCODING 49
SWIDTH 583 0
DWIDTH 7 0
BBX 4 9 1 0
BITMAP
F0
F0
30
30
30
30
30
30
30
ENDCHAR
STARTCHAR 0032
ENCODING 50
SWIDTH 666 0
DWIDTH 8 0
BBX 6 9 1 0
BITMAP
78
08
0C
08
18
30
60
C0
FC
ENDCHAR
STARTCHAR 0033
ENCODING 51
SWIDTH 666 0
DWIDTH 8 0
BBX 6 9 1 0
BITMAP
78
18
0C
18
70
18
0C
18
F0
ENDCHAR
STARTCHAR 0034
ENCODING 52
SWIDTH 583 0
DWIDTH 7 0
BBX 6 9 0 0
BITMAP
1C
1C
3C
6C
4C
8C
FC
0C
0C
ENDCHAR
STARTCHAR 0035
ENCODING 53
SWIDTH 583 0
DWIDTH 7 0
BBX 6 9 1 0
BITMAP
78
40
C0
F8
18
0C
0C
18
F0
ENDCHAR
STARTCHAR 0036
ENCODING 54
SWIDTH 666 0
DWIDTH 8 0
BBX 6 9 1 0
BITMAP
18
60
40
F8
CC
CC
CC
CC
78
ENDCHAR
STARTCHAR 0037
ENCODING 55
SWIDTH 666 0
DWIDTH 8 0
BBX 6 9 1 0
BITMAP
FC
0C
0C
18
18
10
30
20
60
ENDCHAR
STARTCHAR 0038
ENCODING 56
SWIDTH 666 0
DWIDTH 8 0
BBX 6 9 1 0
BITMAP
78
CC
CC
CC
78
CC
CC
CC
78
ENDCHAR
STARTCHAR 0039
ENCODING 57
SWIDTH 666 0
DWIDTH 8 0
BBX 6 9 1 0
BITMAP
78
CC
CC
CC
CC
7C
0C
18
70
ENDCHAR
STARTCHAR 003A
ENCODING 58
SWIDTH 333 0
DWIDTH 4 0
BBX 2 7 1 0
BITMAP
C0
C0
00
00
00
C0
C0
ENDCHAR
STARTCHAR 003B
ENCODING 59
SWIDTH 333 0
DWIDTH 4 0
BBX 3 9 0 -2
BITMAP
60
60
00
00
00
60
60
40
C0
ENDCHAR
STARTCHAR 003C
ENCODING 60
SWIDTH 500 0
DWIDTH 6 0
BBX 6 7 0 1
BITMAP
0C
38
E0
C0
70
1C
04
ENDCHAR
STARTCHAR 003D
ENCODING 61
SWIDTH 500 0
DWIDTH 6 0
BBX 6 4 0 2
BITMAP
FC
00
00
FC
ENDCHAR
STARTCHAR 003E
ENCODING 62
SWIDTH 500 0
DWIDTH 6 0
BBX 6 7 0 1
BITMAP
C0
70
1C
0C
38
E0
80
ENDCHAR
STARTCHAR 003F
ENCODING 63
SWIDTH 416 0
DWIDTH 5 0
BBX 5 9 0 0
BITMAP
F0
10
18
30
60
60
00
60
60
ENDCHAR
STARTCHAR 0040
ENCODING 64
SWIDTH 833 0
DWIDTH 10 0
BBX 10 10 0 -2
BITMAP
1E00
3380
6080
CE80
D6C0
D680
D680
DB80
6000
3E00
ENDCHAR
STARTCHAR 0041
ENCODING 65
SWIDTH 666 0
DWIDTH 8 0
BBX 8 9 0 0
BITMAP
18
1C
34
26
26
7E
43
43
C1
ENDCHAR
STARTCHAR 0042
ENCODING 66
SWIDTH 583 0
DWIDTH 7 0
BBX 6 9 1 0
BITMAP
F8
C8
CC
C8
F0
C8
CC
C8
F8
ENDCHAR
STARTCHAR 0043
ENCODING 67
SWIDTH 666 0
DWIDTH 8 0
BBX 6 9 1 0
BITMAP
3C
60
C0
C0
C0
C0
C0
60
3C
ENDCHAR
STARTCHAR 0044
ENCODING 68
SWIDTH 666 0
DWIDTH 8 0
BBX 7 9 1 0
BITMAP
F8
CC
C4
C4
C6
C4
C4
CC
F8
ENDCHAR
STARTCHAR 0045
ENCODING 69
SWIDTH 583 0
DWIDTH 7 0
BBX 5 9 1 0
BITMAP
F8
C0
C0
C0
F8
C0
C0
C0
F8
ENDCHAR
STARTCHAR 0046
ENCODING 70
SWIDTH 500 0
DWIDTH 6 0
BBX 5 9 1 0
BITMAP
F8
C0
C0
C0
F8
C0
C0
C0
C0
ENDCHAR
STARTCHAR 0047
ENCODING 71
SWIDTH 666 0
DWIDTH 8 0
BBX 7 9 1 0
BITMAP
3C
60
C0
C0
DE
C6
C6
66
3E
ENDCHAR
STARTCHAR 0048
ENCODING 72
SWIDTH 750 0
DWIDTH 9 0
BBX 7 9 1 0
BITMAP
C6
C6
C6
C6
FE
C6
C6
C6
C6
ENDCHAR
STARTCHAR 0049
ENCODING 73
SWIDTH 333 0
DWIDTH 4 0
BBX 2 9 1 0
BITMAP
C0
C0
C0
C0
C0
C0
C0
C0
C0
ENDCHAR
STARTCHAR 004A
ENCODING 74
SWIDTH 250 0
DWIDTH 3 0
BBX 4 12 -1 -3
BITMAP
30
30
30
30
30
30
30
30
30
30
60
E0
ENDCHAR
STARTCHAR 004B
ENCODING 75
SWIDTH 666 0
DWIDTH 8 0
BBX 6 9 1 0
BITMAP
CC
C8
D8
F0
E0
F0
D8
C8
CC
ENDCHAR
STARTCHAR 004C
ENCODING 76
SWIDTH 500 0
DWIDTH 6 0
BBX 5 9 1 0
BITMAP
C0
C0
C0
C0
C0
C0
C0
C0
F8
ENDCHAR
STARTCHAR 004D
ENCODING 77
SWIDTH 916 0
DWIDTH 11 0
BBX 9 9 1 0
BITMAP
E380
E380
E780
F580
DD80
DD80
D980
C180
C180
ENDCHAR
STARTCHAR 004E
ENCODING 78
SWIDTH 750 0
DWIDTH 9 0
BBX 7 9 1 0
BITMAP
E6
E6
E6
F6
D6
DE
CE
CE
C6
ENDCHAR
STARTCHAR 004F
ENCODING 79
SWIDTH 750 0
DWIDTH 9 0
BBX 8 9 1 0
BITMAP
3C
66
C2
C2
C3
C3
C2
46
7C
ENDCHAR
STARTCHAR 0050
ENCODING 80
SWIDTH 666 0
DWIDTH 8 0
BBX 6 9 1 0
BITMAP
F8
CC
CC
CC
CC
F8
C0
C0
C0
ENDCHAR
STARTCHAR 0051
ENCODING 81
SWIDTH 750 0
DWIDTH 9 0
BBX 8 11 1 -2
BITMAP
3C
66
C2
C2
C3
C3
C2
46
7C
0C
04
ENDCHAR
STARTCHAR 0052
ENCODING 82
SWIDTH 666 0
DWIDTH 8 0
BBX 6 9 1 0
BITMAP
F8
CC
CC
CC
F8
D8
D8
CC
C4
ENDCHAR
STARTCHAR 0053
ENCODING 83
SWIDTH 583 0
DWIDTH 7 0
BBX 6 9 1 0
BITMAP
78
C0
C0
E0
78
08
0C
08
F0
ENDCHAR
STARTCHAR 0054
ENCODING 84
SWIDTH 500 0
DWIDTH 6 0
BBX 6 9 0 0
BITMAP
FC
30
30
30
30
30
30
30
30
ENDCHAR
STARTCHAR 0055
ENCODING 85
SWIDTH 750 0
DWIDTH 9 0
BBX 7 9 1 0
BITMAP
C6
C6
C6
C6
C6
C6
C6
CC
78
ENDCHAR
STARTCHAR 0056
ENCODING 86
SWIDTH 666 0
DWIDTH 8 0
BBX 8 9 0 0
BITMAP
C3
42
66
66
24
34
3C
18
18
ENDCHAR
STARTCHAR 0057
ENCODING 87
SWIDTH 916 0
DWIDTH 11 0
BBX 11 9 0 0
BITMAP
C060
4660
4E40
6A40
6AC0
6BC0
3BC0
3180
3180
ENDCHAR
STARTCHAR 0058
ENCODING 88
SWIDTH 666 0
DWIDTH 8 0
BBX 6 9 1 0
BITMAP
C4
CC
78
78
30
78
78
CC
84
ENDCHAR
STARTCHAR 0059
ENCODING 89
SWIDTH 666 0
DWIDTH 8 0
BBX 7 9 0 0
BITMAP
C2
66
64
3C
38
18
18
18
18
ENDCHAR
STARTCHAR 005A
ENCODING 90
SWIDTH 583 0
DWIDTH 7 0
BBX 6 9 1 0
BITMAP
FC
0C
18
18
30
60
60
C0
FC
ENDCHAR
STARTCHAR 005B
ENCODING 91
SWIDTH 333 0
DWIDTH 4 0
BBX 3 13 1 -3
BITMAP
E0
C0
C0
C0
C0
C0
C0
C0
C0
C0
C0
C0
E0
ENDCHAR
STARTCHAR 005C
ENCODING 92
SWIDTH 500 0
DWIDTH 6 0
BBX 6 11 0 -1
BITMAP
C0
40
40
20
20
30
10
10
08
08
0C
ENDCHAR
STARTCHAR 005D
ENCODING 93
SWIDTH 333 0
DWIDTH 4 0
BBX 3 13 1 -3
BITMAP
E0
60
60
60
60
60
60
60
60
60
60
60
E0
ENDCHAR
STARTCHAR 005E
ENCODING 94
SWIDTH 583 0
DWIDTH 7 0
BBX 5 5 1 4
BITMAP
60
50
50
D8
88
ENDCHAR
STARTCHAR 005F
ENCODING 95
SWIDTH 500 0
DWIDTH 6 0
BBX 6 1 0 -2
BITMAP
FC
ENDCHAR
STARTCHAR 0060
ENCODING 96
SWIDTH 416 0
DWIDTH 5 0
BBX 2 2 1 8
BITMAP
C0
40
ENDCHAR
STARTCHAR 0061
ENCODING 97
SWIDTH 666 0
DWIDTH 8 0
BBX 6 7 1 0
BITMAP
38
0C
0C
7C
CC
CC
74
ENDCHAR
STARTCHAR 0062
ENCODING 98
SWIDTH 666 0
DWIDTH 8 0
BBX 6 10 1 0
BITMAP
C0
C0
C0
F8
CC
CC
CC
CC
CC
B8
ENDCHAR
STARTCHAR 0063
ENCODING 99
SWIDTH 583 0
DWIDTH 7 0
BBX 5 7 1 0
BITMAP
78
C0
C0
C0
C0
C0
78
ENDCHAR
STARTCHAR 0064
ENCODING 100
SWIDTH 666 0
DWIDTH 8 0
BBX 6 10 1 0
BITMAP
0C
0C
0C
7C
CC
CC
CC
CC
CC
74
ENDCHAR
STARTCHAR 0065
ENCODING 101
SWIDTH 666 0
DWIDTH 8 0
BBX 6 7 1 0
BITMAP
78
CC
CC
FC
C0
C0
78
ENDCHAR
STARTCHAR 0066
ENCODING 102
SWIDTH 333 0
DWIDTH 4 0
BBX 4 10 0 0
BITMAP
30
60
60
F0
60
60
60
60
60
60
ENDCHAR
STARTCHAR 0067
ENCODING 103
SWIDTH 666 0
DWIDTH 8 0
BBX 6 10 1 -3
BITMAP
7C
CC
CC
CC
CC
CC
7C
0C
0C
78
ENDCHAR
STARTCHAR 0068
ENCODING 104
SWIDTH 583 0
DWIDTH 7 0
BBX 6 10 1 0
BITMAP
C0
C0
C0
F8
C8
CC
CC
CC
CC
CC
ENDCHAR
STARTCHAR 0069
ENCODING 105
SWIDTH 250 0
DWIDTH 3 0
BBX 2 10 1 0
BITMAP
C0
00
00
C0
C0
C0
C0
C0
C0
C0
ENDCHAR
STARTCHAR 006A
ENCODING 106
SWIDTH 250 0
DWIDTH 3 0
BBX 4 13 -1 -3
BITMAP
30
00
00
30
30
30
30
30
30
30
30
20
E0
ENDCHAR
STARTCHAR 006B
ENCODING 107
SWIDTH 583 0
DWIDTH 7 0
BBX 5 10 1 0
BITMAP
C0
C0
C0
D8
D8
F0
E0
F0
D8
D8
ENDCHAR
STARTCHAR 006C
ENCODING 108
SWIDTH 333 0
DWIDTH 4 0
BBX 2 10 1 0
BITMAP
C0
C0
C0
C0
C0
C0
C0
C0
C0
C0
ENDCHAR
STARTCHAR 006D
ENCODING 109
SWIDTH 916 0
DWIDTH 11 0
BBX 10 7 1 0
BITMAP
FB80
CC80
CCC0
CCC0
CCC0
CCC0
CCC0
ENDCHAR
STARTCHAR 006E
ENCODING 110
SWIDTH 583 0
DWIDTH 7 0
BBX 6 7 1 0
BITMAP
F8
C8
CC
CC
CC
CC
CC
ENDCHAR
STARTCHAR 006F
ENCODING 111
SWIDTH 666 0
DWIDTH 8 0
BBX 6 7 1 0
BITMAP
78
CC
CC
CC
CC
CC
78
ENDCHAR
STARTCHAR 0070
ENCODING 112
SWIDTH 666 0
DWIDTH 8 0
BBX 6 10 1 -3
BITMAP
F8
CC
CC
CC
CC
CC
F8
C0
C0
C0
ENDCHAR
STARTCHAR 0071
ENCODING 113
SWIDTH 666 0
DWIDTH 8 0
BBX 6 10 1 -3
BITMAP
7C
CC
CC
CC
CC
CC
7C
0C
0C
0C
ENDCHAR
STARTCHAR 0072
ENCODING 114
SWIDTH 416 0
DWIDTH 5 0
BBX 4 7 1 0
BITMAP
F0
C0
C0
C0
C0
C0
C0
ENDCHAR
STARTCHAR 0073
ENCODING 115
SWIDTH 500 0
DWIDTH 6 0
BBX 5 7 1 0
BITMAP
F0
80
80
F0
18
18
F0
ENDCHAR
STARTCHAR 0074
ENCODING 116
SWIDTH 333 0
DWIDTH 4 0
BBX 4 9 0 0
BITMAP
60
60
F0
60
60
60
60
60
70
ENDCHAR
STARTCHAR 0075
ENCODING 117
SWIDTH 666 0
DWIDTH 8 0
BBX 6 7 1 0
BITMAP
CC
CC
CC
CC
CC
CC
7C
ENDCHAR
STARTCHAR 0076
ENCODING 118
SWIDTH 583 0
DWIDTH 7 0
BBX 6 7 0 0
BITMAP
C4
44
6C
68
28
38
30
ENDCHAR
STARTCHAR 0077
ENCODING 119
SWIDTH 833 0
DWIDTH 10 0
BBX 10 7 0 0
BITMAP
CCC0
4CC0
4E80
7A80
7280
3380
3300
ENDCHAR
STARTCHAR 0078
ENCODING 120
SWIDTH 583 0
DWIDTH 7 0
BBX 6 7 0 0
BITMAP
44
6C
28
30
28
6C
C4
ENDCHAR
STARTCHAR 0079
ENCODING 121
SWIDTH 583 0
DWIDTH 7 0
BBX 7 10 0 -3
BITMAP
C6
44
64
6C
28
28
38
10
30
60
ENDCHAR
STARTCHAR 007A
ENCODING 122
SWIDTH 583 0
DWIDTH 7 0
BBX 5 7 1 0
BITMAP
F8
18
30
60
60
C0
F8
ENDCHAR
STARTCHAR 007B
ENCODING 123
SWIDTH 333 0
DWIDTH 4 0
BBX 3 13 0 -3
BITMAP
20
60
60
60
60
40
C0
40
60
60
60
60
20
ENDCHAR
STARTCHAR 007C
ENCODING 124
SWIDTH 250 0
DWIDTH 3 0
BBX 2 13 1 -3
BITMAP
C0
C0
C0
C0
C0
C0
C0
C0
C0
C0
C0
C0
C0
ENDCHAR
STARTCHAR 007D
ENCODING 125
SWIDTH 250 0
DWIDTH 3 0
BBX 3 13 0 -3
BITMAP
C0
40
60
60
60
60
20
60
60
60
60
40
C0
ENDCHAR
STARTCHAR 007E
ENCODING 126
SWIDTH 500 0
DWIDTH 6 0
BBX 6 2 0 3
BITMAP
64
9C
ENDCHAR
STARTCHAR 00A0
ENCODING 160
SWIDTH 250 0
DWIDTH 3 0
BBX 0 0 0 0
BITMAP
ENDCHAR
STARTCHAR 00A1
ENCODING 161
SWIDTH 333 0
DWIDTH 4 0
BBX 2 9 1 -2
BITMAP
C0
C0
00
C0
C0
C0
C0
C0
C0
ENDCHAR
STARTCHAR 00A2
ENCODING 162
SWIDTH 583 0
DWIDTH 7 0
BBX 5 9 1 0
BITMAP
10
10
78
D0
D0
D0
78
10
10
ENDCHAR
STARTCHAR 00A3
ENCODING 163
SWIDTH 666 0
DWIDTH 8 0
BBX 6 9 1 0
BITMAP
3C
60
60
60
F8
60
60
40
7C
ENDCHAR
STARTCHAR 00A4
ENCODING 164
SWIDTH 583 0
DWIDTH 7 0
BBX 7 6 0 2
BITMAP
FE
6C
6C
6C
7C
44
ENDCHAR
STARTCHAR 00A5
ENCODING 165
SWIDTH 583 0
DWIDTH 7 0
BBX 6 9 1 0
BITMAP
8C
C8
58
70
F8
30
F8
30
30
ENDCHAR
STARTCHAR 00A6
ENCODING 166
SWIDTH 250 0
DWIDTH 3 0
BBX 2 13 1 -3
BITMAP
C0
C0
C0
C0
00
00
00
00
00
C0
C0
C0
C0
ENDCHAR
STARTCHAR 00A7
ENCODING 167
SWIDTH 500 0
DWIDTH 6 0
BBX 5 10 1 -2
BITMAP
F0
80
80
F0
90
98
F0
30
18
F0
ENDCHAR
STARTCHAR 00A8
ENCODING 168
SWIDTH 333 0
DWIDTH 4 0
BBX 4 1 0 8
BITMAP
F0
ENDCHAR
STARTCHAR 00A9
ENCODING 169
SWIDTH 916 0
DWIDTH 11 0
BBX 9 9 1 0
BITMAP
3E00
6300
DD80
F180
F180
F180
DD80
6300
3E00
ENDCHAR
STARTCHAR 00AA
ENCODING 170
SWIDTH 500 0
DWIDTH 6 0
BBX 4 4 1 4
BITMAP
30
F0
F0
F0
ENDCHAR
STARTCHAR 00AB
ENCODING 171
SWIDTH 500 0
DWIDTH 6 0
BBX 5 4 1 1
BITMAP
D8
B0
B0
58
ENDCHAR
STARTCHAR 00AC
ENCODING 172
SWIDTH 583 0
DWIDTH 7 0
BBX 7 5 0 2
BITMAP
FE
06
06
06
06
ENDCHAR
STARTCHAR 00AD
ENCODING 173
SWIDTH 500 0
DWIDTH 6 0
BBX 4 1 1 4
BITMAP
F0
ENDCHAR
STARTCHAR 00AE
ENCODING 174
SWIDTH 500 0
DWIDTH 6 0
BBX 6 5 0 3
BITMAP
78
F8
EC
E8
78
ENDCHAR
STARTCHAR 00AF
ENCODING 175
SWIDTH 500 0
DWIDTH 6 0
BBX 4 1 1 8
BITMAP
F0
ENDCHAR
STARTCHAR 00B0
ENCODING 176
SWIDTH 416 0
DWIDTH 5 0
BBX 5 4 0 4
BITMAP
70
D0
D8
70
ENDCHAR
STARTCHAR 00B1
ENCODING 177
SWIDTH 500 0
DWIDTH 6 0
BBX 6 7 0 0
BITMAP
30
30
FC
30
30
30
FC
ENDCHAR
STARTCHAR 00B2
ENCODING 178
SWIDTH 500 0
DWIDTH 6 0
BBX 4 5 1 5
BITMAP
F0
30
20
40
F0
ENDCHAR
STARTCHAR 00B3
ENCODING 179
SWIDTH 416 0
DWIDTH 5 0
BBX 4 5 1 5
BITMAP
E0
30
C0
20
E0
ENDCHAR
STARTCHAR 00B4
ENCODING 180
SWIDTH 416 0
DWIDTH 5 0
BBX 2 2 2 8
BITMAP
C0
80
ENDCHAR
STARTCHAR 00B5
ENCODING 181
SWIDTH 666 0
DWIDTH 8 0
BBX 6 10 1 -3
BITMAP
CC
CC
CC
CC
CC
CC
FC
C0
C0
C0
ENDCHAR
STARTCHAR 00B6
ENCODING 182
SWIDTH 666 0
DWIDTH 8 0
BBX 6 11 1 -2
BITMAP
7C
FC
FC
FC
7C
3C
3C
3C
3C
3C
3C
ENDCHAR
STARTCHAR 00B7
ENCODING 183
SWIDTH 333 0
DWIDTH 4 0
BBX 2 2 1 4
BITMAP
C0
C0
ENDCHAR
STARTCHAR 00B8
ENCODING 184
SWIDTH 500 0
DWIDTH 6 0
BBX 3 3 1 -2
BITMAP
40
60
E0
ENDCHAR
STARTCHAR 00B9
ENCODING 185
SWIDTH 416 0
DWIDTH 5 0
BBX 3 5 1 5
BITMAP
E0
60
60
60
60
ENDCHAR
STARTCHAR 00BA
ENCODING 186
SWIDTH 500 0
DWIDTH 6 0
BBX 5 4 1 4
BITMAP
70
D0
D8
F0
ENDCHAR
STARTCHAR 00BB
ENCODING 187
SWIDTH 500 0
DWIDTH 6 0
BBX 5 4 1 1
BITMAP
B0
58
58
B0
ENDCHAR
STARTCHAR 00BC
ENCODING 188
SWIDTH 916 0
DWIDTH 11 0
BBX 9 9 1 0
BITMAP
E200
6400
6400
6C00
6980
1B80
1580
3780
2180
ENDCHAR
STARTCHAR 00BD
ENCODING 189
SWIDTH 916 0
DWIDTH 11 0
BBX 10 9 1 0
BITMAP
E200
6600
6400
6C00
6B80
18C0
1180
3600
27C0
ENDCHAR
STARTCHAR 00BE
ENCODING 190
SWIDTH 916 0
DWIDTH 11 0
BBX 9 9 1 0
BITMAP
E200
3600
C400
2C00
E980
1B80
1580
3780
2180
ENDCHAR
STARTCHAR 00BF
ENCODING 191
SWIDTH 416 0
DWIDTH 5 0
BBX 5 9 0 -3
BITMAP
20
20
00
30
60
C0
C0
C0
F8
ENDCHAR
STARTCHAR 00C0
ENCODING 192
SWIDTH 666 0
DWIDTH 8 0
BBX 8 12 0 0
BITMAP
30
10
00
18
1C
34
26
26
7E
43
43
C1
ENDCHAR
STARTCHAR 00C1
ENCODING 193
SWIDTH 666 0
DWIDTH 8 0
BBX 8 12 0 0
BITMAP
06
0C
08
18
1C
34
26
26
7E
43
43
C1
ENDCHAR
STARTCHAR 00C2
ENCODING 194
SWIDTH 666 0
DWIDTH 8 0
BBX 8 12 0 0
BITMAP
18
34
00
18
1C
34
26
26
7E
43
43
C1
ENDCHAR
STARTCHAR 00C3
ENCODING 195
SWIDTH 666 0
DWIDTH 8 0
BBX 8 11 0 1
BITMAP
3E
00
1C
14
14
36
22
3E
63
41
C1
ENDCHAR
STARTCHAR 00C4
ENCODING 196
SWIDTH 750 0
DWIDTH 9 0
BBX 8 11 0 1
BITMAP
36
00
1C
1C
34
26
22
7E
43
C3
C1
ENDCHAR
STARTCHAR 00C5
ENCODING 197
SWIDTH 750 0
DWIDTH 9 0
BBX 9 12 0 1
BITMAP
1C00
1C00
1C00
1C00
1400
1400
3600
2200
3E00
6300
4100
C180
ENDCHAR
STARTCHAR 00C6
ENCODING 198
SWIDTH 916 0
DWIDTH 11 0
BBX 10 9 0 0
BITMAP
1FC0
1E00
1600
3600
27C0
7E00
4600
C600
87C0
ENDCHAR
STARTCHAR 00C7
ENCODING 199
SWIDTH 666 0
DWIDTH 8 0
BBX 6 12 1 -3
BITMAP
3C
60
C0
C0
C0
C0
C0
60
7C
30
18
38
ENDCHAR
STARTCHAR 00C8
ENCODING 200
SWIDTH 583 0
DWIDTH 7 0
BBX 5 11 1 1
BITMAP
60
00
F8
C0
C0
C0
F8
C0
C0
C0
F8
ENDCHAR
STARTCHAR 00C9
ENCODING 201
SWIDTH 583 0
DWIDTH 7 0
BBX 5 11 1 1
BITMAP
10
20
F8
C0
C0
C0
F8
C0
C0
C0
F8
ENDCHAR
STARTCHAR 00CA
ENCODING 202
SWIDTH 583 0
DWIDTH 7 0
BBX 5 12 1 0
BITMAP
20
50
00
F8
C0
C0
C0
F8
C0
C0
C0
F8
ENDCHAR
STARTCHAR 00CB
ENCODING 203
SWIDTH 583 0
DWIDTH 7 0
BBX 5 11 1 1
BITMAP
D8
00
F8
C0
C0
C0
F8
C0
C0
C0
F8
ENDCHAR
STARTCHAR 00CC
ENCODING 204
SWIDTH 333 0
DWIDTH 4 0
BBX 3 11 0 0
BITMAP
C0
00
60
60
60
60
60
60
60
60
60
ENDCHAR
STARTCHAR 00CD
ENCODING 205
SWIDTH 333 0
DWIDTH 4 0
BBX 3 11 1 0
BITMAP
60
C0
C0
C0
C0
C0
C0
C0
C0
C0
C0
ENDCHAR
STARTCHAR 00CE
ENCODING 206
SWIDTH 333 0
DWIDTH 4 0
BBX 3 11 0 1
BITMAP
E0
00
60
60
60
60
60
60
60
60
60
ENDCHAR
STARTCHAR 00CF
ENCODING 207
SWIDTH 333 0
DWIDTH 4 0
BBX 4 11 0 1
BITMAP
F0
00
60
60
60
60
60
60
60
60
60
ENDCHAR
STARTCHAR 00D0
ENCODING 208
SWIDTH 666 0
DWIDTH 8 0
BBX 8 9 0 0
BITMAP
7C
66
62
62
F3
62
62
66
7C
ENDCHAR
STARTCHAR 00D1
ENCODING 209
SWIDTH 750 0
DWIDTH 9 0
BBX 7 11 1 1
BITMAP
7C
00
E6
E6
E6
F6
D6
DE
CE
CE
C6
ENDCHAR
STARTCHAR 00D2
ENCODING 210
SWIDTH 750 0
DWIDTH 9 0
BBX 8 11 1 1
BITMAP
30
00
3C
66
C2
C2
C3
C3
C2
6E
7C
ENDCHAR
STARTCHAR 00D3
ENCODING 211
SWIDTH 750 0
DWIDTH 9 0
BBX 8 11 1 1
BITMAP
0C
00
3C
66
C2
C2
C3
C3
C2
6E
7C
ENDCHAR
STARTCHAR 00D4
ENCODING 212
SWIDTH 750 0
DWIDTH 9 0
BBX 8 11 1 1
BITMAP
3C
00
3C
66
C2
C2
C3
C3
C2
46
7C
ENDCHAR
STARTCHAR 00D5
ENCODING 213
SWIDTH 750 0
DWIDTH 9 0
BBX 8 11 1 1
BITMAP
7C
00
3C
66
C2
C2
C3
C3
C2
46
7C
ENDCHAR
STARTCHAR 00D6
ENCODING 214
SWIDTH 750 0
DWIDTH 9 0
BBX 8 11 1 1
BITMAP
6C
00
3C
46
C2
82
83
83
C2
46
7C
ENDCHAR
STARTCHAR 00D7
ENCODING 215
SWIDTH 583 0
DWIDTH 7 0
BBX 6 6 0 0
BITMAP
44
6C
38
38
6C
C4
ENDCHAR
STARTCHAR 00D8
ENCODING 216
SWIDTH 750 0
DWIDTH 9 0
BBX 8 9 1 0
BITMAP
3E
66
C6
CB
D3
F3
E2
C6
FC
ENDCHAR
STARTCHAR 00D9
ENCODING 217
SWIDTH 750 0
DWIDTH 9 0
BBX 7 11 1 0
BITMAP
20
00
C6
C6
C6
C6
C6
C6
C6
CC
78
ENDCHAR
STARTCHAR 00DA
ENCODING 218
SWIDTH 750 0
DWIDTH 9 0
BBX 7 11 1 1
BITMAP
18
00
C6
C6
C6
C6
C6
C6
C6
EC
78
ENDCHAR
STARTCHAR 00DB
ENCODING 219
SWIDTH 750 0
DWIDTH 9 0
BBX 7 12 1 0
BITMAP
30
68
00
C6
C6
C6
C6
C6
C6
C6
EC
78
ENDCHAR
STARTCHAR 00DC
ENCODING 220
SWIDTH 750 0
DWIDTH 9 0
BBX 7 11 1 1
BITMAP
6C
00
C6
C6
C6
C6
C6
C6
C6
CC
78
ENDCHAR
STARTCHAR 00DD
ENCODING 221
SWIDTH 666 0
DWIDTH 8 0
BBX 7 11 0 0
BITMAP
0C
18
C2
66
64
3C
38
18
18
18
18
ENDCHAR
STARTCHAR 00DE
ENCODING 222
SWIDTH 666 0
DWIDTH 8 0
BBX 6 9 1 0
BITMAP
C0
C0
F8
CC
CC
CC
F8
C0
C0
ENDCHAR
STARTCHAR 00DF
ENCODING 223
SWIDTH 666 0
DWIDTH 8 0
BBX 6 10 1 0
BITMAP
78
C8
CC
C8
F0
DC
CC
CC
CC
F8
ENDCHAR
STARTCHAR 00E0
ENCODING 224
SWIDTH 666 0
DWIDTH 8 0
BBX 6 10 1 0
BITMAP
20
10
00
38
0C
0C
7C
CC
CC
74
ENDCHAR
STARTCHAR 00E1
ENCODING 225
SWIDTH 666 0
DWIDTH 8 0
BBX 6 10 1 0
BITMAP
08
10
00
38
0C
0C
7C
CC
CC
74
ENDCHAR
STARTCHAR 00E2
ENCODING 226
SWIDTH 666 0
DWIDTH 8 0
BBX 6 10 1 0
BITMAP
38
28
00
38
0C
0C
7C
CC
CC
74
ENDCHAR
STARTCHAR 00E3
ENCODING 227
SWIDTH 666 0
DWIDTH 8 0
BBX 6 10 1 0
BITMAP
7C
7C
00
38
0C
0C
7C
CC
CC
7C
ENDCHAR
STARTCHAR 00E4
ENCODING 228
SWIDTH 666 0
DWIDTH 8 0
BBX 6 10 1 0
BITMAP
2C
00
00
38
0C
0C
7C
CC
CC
74
ENDCHAR
STARTCHAR 00E5
ENCODING 229
SWIDTH 666 0
DWIDTH 8 0
BBX 6 11 1 1
BITMAP
38
38
38
00
38
0C
0C
7C
CC
CC
74
ENDCHAR
STARTCHAR 00E6
ENCODING 230
SWIDTH 1000 0
DWIDTH 12 0
BBX 10 7 1 0
BITMAP
3B80
0EC0
0CC0
7FC0
CC00
CE40
73C0
ENDCHAR
STARTCHAR 00E7
ENCODING 231
SWIDTH 583 0
DWIDTH 7 0
BBX 5 10 1 -3
BITMAP
78
C0
C0
C0
C0
C0
78
20
10
30
ENDCHAR
STARTCHAR 00E8
ENCODING 232
SWIDTH 666 0
DWIDTH 8 0
BBX 6 10 1 0
BITMAP
60
20
00
78
CC
CC
FC
C0
C0
78
ENDCHAR
STARTCHAR 00E9
ENCODING 233
SWIDTH 666 0
DWIDTH 8 0
BBX 6 10 1 0
BITMAP
10
30
00
78
CC
CC
FC
C0
C0
78
ENDCHAR
STARTCHAR 00EA
ENCODING 234
SWIDTH 666 0
DWIDTH 8 0
BBX 6 10 1 0
BITMAP
30
50
00
78
CC
CC
FC
C0
C0
78
ENDCHAR
STARTCHAR 00EB
ENCODING 235
SWIDTH 666 0
DWIDTH 8 0
BBX 6 10 1 0
BITMAP
78
00
00
78
CC
CC
FC
C0
C0
78
ENDCHAR
STARTCHAR 00EC
ENCODING 236
SWIDTH 250 0
DWIDTH 3 0
BBX 3 10 0 0
BITMAP
C0
40
00
60
60
60
60
60
60
60
ENDCHAR
STARTCHAR 00ED
ENCODING 237
SWIDTH 250 0
DWIDTH 3 0
BBX 2 10 1 0
BITMAP
40
C0
00
C0
C0
C0
C0
C0
C0
C0
ENDCHAR
STARTCHAR 00EE
ENCODING 238
SWIDTH 250 0
DWIDTH 3 0
BBX 4 10 0 0
BITMAP
60
B0
00
60
60
60
60
60
60
60
ENDCHAR
STARTCHAR 00EF
ENCODING 239
SWIDTH 333 0
DWIDTH 4 0
BBX 4 10 0 0
BITMAP
F0
00
00
60
60
60
60
60
60
60
ENDCHAR
STARTCHAR 00F0
ENCODING 240
SWIDTH 666 0
DWIDTH 8 0
BBX 6 10 1 0
BITMAP
38
30
08
7C
CC
CC
CC
CC
CC
78
ENDCHAR
STARTCHAR 00F1
ENCODING 241
SWIDTH 583 0
DWIDTH 7 0
BBX 5 10 1 0
BITMAP
78
78
00
F8
D8
D8
D8
D8
D8
D8
ENDCHAR
STARTCHAR 00F2
ENCODING 242
SWIDTH 666 0
DWIDTH 8 0
BBX 6 10 1 0
BITMAP
60
20
00
78
CC
CC
CC
CC
CC
78
ENDCHAR
STARTCHAR 00F3
ENCODING 243
SWIDTH 666 0
DWIDTH 8 0
BBX 6 10 1 0
BITMAP
18
10
00
78
CC
CC
CC
CC
CC
78
ENDCHAR
STARTCHAR 00F4
ENCODING 244
SWIDTH 666 0
DWIDTH 8 0
BBX 6 10 1 0
BITMAP
30
78
00
78
CC
CC
CC
CC
CC
78
ENDCHAR
STARTCHAR 00F5
ENCODING 245
SWIDTH 666 0
DWIDTH 8 0
BBX 6 10 1 0
BITMAP
6C
58
00
78
CC
CC
CC
CC
CC
78
ENDCHAR
STARTCHAR 00F6
ENCODING 246
SWIDTH 666 0
DWIDTH 8 0
BBX 6 10 1 0
BITMAP
78
00
00
78
CC
CC
CC
CC
CC
78
ENDCHAR
STARTCHAR 00F7
ENCODING 247
SWIDTH 500 0
DWIDTH 6 0
BBX 6 7 0 0
BITMAP
30
30
00
FC
00
30
30
ENDCHAR
STARTCHAR 00F8
ENCODING 248
SWIDTH 666 0
DWIDTH 8 0
BBX 7 7 1 0
BITMAP
7C
CC
DC
D6
E4
CC
78
ENDCHAR
STARTCHAR 00F9
ENCODING 249
SWIDTH 666 0
DWIDTH 8 0
BBX 6 10 1 0
BITMAP
60
20
00
CC
CC
CC
CC
CC
CC
7C
ENDCHAR
STARTCHAR 00FA
ENCODING 250
SWIDTH 666 0
DWIDTH 8 0
BBX 6 10 1 0
BITMAP
10
30
00
CC
CC
CC
CC
CC
CC
7C
ENDCHAR
STARTCHAR 00FB
ENCODING 251
SWIDTH 666 0
DWIDTH 8 0
BBX 6 10 1 0
BITMAP
30
50
00
CC
CC
CC
CC
CC
CC
7C
ENDCHAR
STARTCHAR 00FC
ENCODING 252
SWIDTH 666 0
DWIDTH 8 0
BBX 6 10 1 0
BITMAP
78
00
00
CC
CC
CC
CC
CC
CC
7C
ENDCHAR
STARTCHAR 00FD
ENCODING 253
SWIDTH 583 0
DWIDTH 7 0
BBX 7 13 0 -3
BITMAP
08
18
10
C6
44
64
6C
28
28
38
10
30
60
ENDCHAR
STARTCHAR 00FE
ENCODING 254
SWIDTH 666 0
DWIDTH 8 0
BBX 6 13 1 -3
BITMAP
C0
C0
C0
F8
CC
CC
CC
CC
CC
F8
C0
C0
C0
ENDCHAR
STARTCHAR 00FF
ENCODING 255
SWIDTH 583 0
DWIDTH 7 0
BBX 7 13 0 -3
BITMAP
3C
00
00
C2
66
64
24
34
38
18
18
30
60
ENDCHAR
STARTCHAR 0100
ENCODING 256
SWIDTH 666 0
DWIDTH 8 0
BBX 8 11 0 1
BITMAP
3C
00
18
3C
34
24
66
7E
42
C3
83
ENDCHAR
STARTCHAR 0101
ENCODING 257
SWIDTH 666 0
DWIDTH 8 0
BBX 6 10 1 0
BITMAP
3C
00
00
38
0C
0C
7C
CC
CC
74
ENDCHAR
STARTCHAR 0102
ENCODING 258
SWIDTH 666 0
DWIDTH 8 0
BBX 8 12 0 0
BITMAP
24
1C
00
18
1C
34
26
26
7E
43
43
C1
ENDCHAR
STARTCHAR 0103
ENCODING 259
SWIDTH 666 0
DWIDTH 8 0
BBX 6 10 1 0
BITMAP
68
38
00
38
0C
0C
7C
CC
CC
74
ENDCHAR
STARTCHAR 0104
ENCODING 260
SWIDTH 666 0
DWIDTH 8 0
BBX 8 12 0 -3
BITMAP
18
3C
3C
24
66
66
7E
C3
C3
02
02
03
ENDCHAR
STARTCHAR 0105
ENCODING 261
SWIDTH 666 0
DWIDTH 8 0
BBX 6 10 1 -3
BITMAP
38
0C
0C
7C
CC
CC
74
08
08
0C
ENDCHAR
STARTCHAR 0106
ENCODING 262
SWIDTH 666 0
DWIDTH 8 0
BBX 6 11 1 1
BITMAP
18
00
3C
60
C0
C0
C0
C0
C0
60
3C
ENDCHAR
STARTCHAR 0107
ENCODING 263
SWIDTH 583 0
DWIDTH 7 0
BBX 5 10 1 0
BITMAP
18
30
00
78
C0
C0
C0
C0
C0
78
ENDCHAR
STARTCHAR 0108
ENCODING 264
SWIDTH 666 0
DWIDTH 8 0
BBX 6 11 1 1
BITMAP
78
00
3C
60
C0
C0
C0
C0
C0
60
3C
ENDCHAR
STARTCHAR 0109
ENCODING 265
SWIDTH 583 0
DWIDTH 7 0
BBX 5 10 1 0
BITMAP
30
58
00
78
C0
C0
C0
C0
C0
78
ENDCHAR
STARTCHAR 010A
ENCODING 266
SWIDTH 666 0
DWIDTH 8 0
BBX 6 11 1 1
BITMAP
30
00
3C
60
C0
C0
C0
C0
C0
60
3C
ENDCHAR
STARTCHAR 010B
ENCODING 267
SWIDTH 583 0
DWIDTH 7 0
BBX 5 10 1 0
BITMAP
30
00
00
78
C0
C0
C0
C0
C0
78
ENDCHAR
STARTCHAR 010C
ENCODING 268
SWIDTH 666 0
DWIDTH 8 0
BBX 6 12 1 0
BITMAP
6C
38
00
3C
60
C0
C0
C0
C0
C0
60
3C
ENDCHAR
STARTCHAR 010D
ENCODING 269
SWIDTH 583 0
DWIDTH 7 0
BBX 5 10 1 0
BITMAP
58
30
00
78
C0
C0
C0
C0
C0
78
ENDCHAR
STARTCHAR 010E
ENCODING 270
SWIDTH 666 0
DWIDTH 8 0
BBX 7 12 1 0
BITMAP
88
70
00
F8
CC
C4
C4
C6
C4
C4
DC
F8
ENDCHAR
STARTCHAR 010F
ENCODING 271
SWIDTH 750 0
DWIDTH 9 0
BBX 8 10 1 0
BITMAP
0F
0F
0C
7C
CC
CC
CC
CC
CC
74
ENDCHAR
STARTCHAR 0110
ENCODING 272
SWIDTH 666 0
DWIDTH 8 0
BBX 8 9 0 0
BITMAP
7C
66
62
62
F3
62
62
66
7C
ENDCHAR
STARTCHAR 0111
ENCODING 273
SWIDTH 666 0
DWIDTH 8 0
BBX 7 10 1 0
BITMAP
0C
1E
0C
7C
CC
CC
CC
CC
CC
74
ENDCHAR
STARTCHAR 0112
ENCODING 274
SWIDTH 583 0
DWIDTH 7 0
BBX 5 11 1 1
BITMAP
F0
00
F8
C0
C0
C0
F8
C0
C0
C0
F8
ENDCHAR
STARTCHAR 0113
ENCODING 275
SWIDTH 666 0
DWIDTH 8 0
BBX 6 10 1 0
BITMAP
78
00
00
78
CC
CC
FC
C0
C0
78
ENDCHAR
STARTCHAR 0114
ENCODING 276
SWIDTH 583 0
DWIDTH 7 0
BBX 5 12 1 0
BITMAP
88
70
00
F8
C0
C0
C0
F8
C0
C0
C0
F8
ENDCHAR
STARTCHAR 0115
ENCODING 277
SWIDTH 666 0
DWIDTH 8 0
BBX 6 10 1 0
BITMAP
48
70
00
78
CC
CC
FC
C0
C0
78
ENDCHAR
STARTCHAR 0116
ENCODING 278
SWIDTH 583 0
DWIDTH 7 0
BBX 5 11 1 1
BITMAP
20
00
F8
C0
C0
C0
F8
C0
C0
C0
F8
ENDCHAR
STARTCHAR 0117
ENCODING 279
SWIDTH 666 0
DWIDTH 8 0
BBX 6 10 1 0
BITMAP
30
00
00
78
CC
CC
FC
C0
C0
78
ENDCHAR
STARTCHAR 0118
ENCODING 280
SWIDTH 583 0
DWIDTH 7 0
BBX 5 12 1 -3
BITMAP
F8
C0
C0
C0
F8
C0
C0
C0
F8
10
10
18
ENDCHAR
STARTCHAR 0119
ENCODING 281
SWIDTH 583 0
DWIDTH 7 0
BBX 6 10 1 -3
BITMAP
78
C8
CC
FC
C0
C0
78
10
10
18
ENDCHAR
STARTCHAR 011A
ENCODING 282
SWIDTH 583 0
DWIDTH 7 0
BBX 5 12 1 0
BITMAP
98
70
00
F8
C0
C0
C0
F8
C0
C0
C0
F8
ENDCHAR
STARTCHAR 011B
ENCODING 283
SWIDTH 666 0
DWIDTH 8 0
BBX 6 10 1 0
BITMAP
50
30
00
78
CC
CC
FC
C0
C0
78
ENDCHAR
STARTCHAR 011C
ENCODING 284
SWIDTH 666 0
DWIDTH 8 0
BBX 7 11 1 1
BITMAP
38
00
3C
60
C0
C0
DE
C6
C6
66
3E
ENDCHAR
STARTCHAR 011D
ENCODING 285
SWIDTH 666 0
DWIDTH 8 0
BBX 6 13 1 -3
BITMAP
30
30
58
7C
CC
CC
CC
CC
CC
7C
0C
0C
78
ENDCHAR
STARTCHAR 011E
ENCODING 286
SWIDTH 666 0
DWIDTH 8 0
BBX 7 12 1 0
BITMAP
44
38
00
3C
60
C0
C0
DE
C6
C6
66
3E
ENDCHAR
STARTCHAR 011F
ENCODING 287
SWIDTH 666 0
DWIDTH 8 0
BBX 6 13 1 -3
BITMAP
48
58
30
7C
CC
CC
CC
CC
CC
7C
0C
0C
78
ENDCHAR
STARTCHAR 0120
ENCODING 288
SWIDTH 666 0
DWIDTH 8 0
BBX 7 11 1 1
BITMAP
18
00
3C
60
C0
C0
DE
C6
C6
66
3E
ENDCHAR
STARTCHAR 0121
ENCODING 289
SWIDTH 666 0
DWIDTH 8 0
BBX 6 13 1 -3
BITMAP
30
00
00
7C
CC
CC
CC
CC
CC
7C
0C
0C
78
ENDCHAR
STARTCHAR 0122
ENCODING 290
SWIDTH 666 0
DWIDTH 8 0
BBX 7 12 1 -3
BITMAP
3C
64
C0
C0
C0
DE
C6
66
3E
00
00
10
ENDCHAR
STARTCHAR 0123
ENCODING 291
SWIDTH 666 0
DWIDTH 8 0
BBX 6 13 1 -3
BITMAP
30
00
00
7C
CC
CC
CC
CC
CC
7C
0C
0C
78
ENDCHAR
STARTCHAR 0124
ENCODING 292
SWIDTH 750 0
DWIDTH 9 0
BBX 7 11 1 1
BITMAP
38
00
C6
C6
C6
C6
FE
C6
C6
C6
C6
ENDCHAR
STARTCHAR 0125
ENCODING 293
SWIDTH 583 0
DWIDTH 7 0
BBX 7 12 0 1
BITMAP
E0
A0
60
60
60
7C
64
66
66
66
66
66
ENDCHAR
STARTCHAR 0126
ENCODING 294
SWIDTH 666 0
DWIDTH 8 0
BBX 8 9 0 0
BITMAP
C3
FF
C3
C3
FF
C3
C3
C3
C3
ENDCHAR
STARTCHAR 0127
ENCODING 295
SWIDTH 583 0
DWIDTH 7 0
BBX 7 10 0 0
BITMAP
60
F0
60
7C
64
66
66
66
66
66
ENDCHAR
STARTCHAR 0128
ENCODING 296
SWIDTH 333 0
DWIDTH 4 0
BBX 4 11 0 1
BITMAP
F0
00
20
20
20
20
20
20
20
20
20
ENDCHAR
STARTCHAR 0129
ENCODING 297
SWIDTH 333 0
DWIDTH 4 0
BBX 5 10 0 0
BITMAP
D8
F0
00
20
20
20
20
20
20
20
ENDCHAR
STARTCHAR 012A
ENCODING 298
SWIDTH 333 0
DWIDTH 4 0
BBX 4 11 0 1
BITMAP
F0
00
60
60
60
60
60
60
60
60
60
ENDCHAR
STARTCHAR 012B
ENCODING 299
SWIDTH 333 0
DWIDTH 4 0
BBX 4 10 0 0
BITMAP
F0
00
00
60
60
60
60
60
60
60
ENDCHAR
STARTCHAR 012C
ENCODING 300
SWIDTH 333 0
DWIDTH 4 0
BBX 4 11 0 0
BITMAP
90
E0
60
60
60
60
60
60
60
60
60
ENDCHAR
STARTCHAR 012D
ENCODING 301
SWIDTH 250 0
DWIDTH 3 0
BBX 4 10 0 0
BITMAP
90
E0
00
60
60
60
60
60
60
60
ENDCHAR
STARTCHAR 012E
ENCODING 302
SWIDTH 333 0
DWIDTH 4 0
BBX 2 12 1 -3
BITMAP
C0
C0
C0
C0
C0
C0
C0
C0
C0
80
80
C0
ENDCHAR
STARTCHAR 012F
ENCODING 303
SWIDTH 333 0
DWIDTH 4 0
BBX 2 13 1 -3
BITMAP
C0
00
00
C0
C0
C0
C0
C0
C0
C0
80
80
C0
ENDCHAR
STARTCHAR 0130
ENCODING 304
SWIDTH 250 0
DWIDTH 3 0
BBX 2 11 1 1
BITMAP
C0
00
C0
C0
C0
C0
C0
C0
C0
C0
C0
ENDCHAR
STARTCHAR 0131
ENCODING 305
SWIDTH 250 0
DWIDTH 3 0
BBX 2 7 1 0
BITMAP
C0
C0
C0
C0
C0
C0
C0
ENDCHAR
STARTCHAR 0132
ENCODING 306
SWIDTH 583 0
DWIDTH 7 0
BBX 5 12 1 -3
BITMAP
D8
D8
D8
D8
D8
D8
D8
D8
D8
18
18
30
ENDCHAR
STARTCHAR 0133
ENCODING 307
SWIDTH 583 0
DWIDTH 7 0
BBX 5 13 1 -3
BITMAP
D8
00
00
D8
D8
D8
D8
D8
D8
D8
18
18
30
ENDCHAR
STARTCHAR 0134
ENCODING 308
SWIDTH 250 0
DWIDTH 3 0
BBX 5 14 -1 -3
BITMAP
30
58
30
30
30
30
30
30
30
30
30
30
60
E0
ENDCHAR
STARTCHAR 0135
ENCODING 309
SWIDTH 250 0
DWIDTH 3 0
BBX 5 13 -1 -3
BITMAP
30
70
58
30
30
30
30
30
30
30
30
20
E0
ENDCHAR
STARTCHAR 0136
ENCODING 310
SWIDTH 666 0
DWIDTH 8 0
BBX 6 12 1 -3
BITMAP
CC
CC
D8
F0
E0
F0
D8
CC
CC
00
00
30
ENDCHAR
STARTCHAR 0137
ENCODING 311
SWIDTH 583 0
DWIDTH 7 0
BBX 5 13 1 -3
BITMAP
C0
C0
C0
D8
D8
F0
E0
F0
D8
D8
00
00
20
ENDCHAR
STARTCHAR 0138
ENCODING 312
SWIDTH 583 0
DWIDTH 7 0
BBX 5 7 1 0
BITMAP
D8
D8
F0
E0
F0
D8
D8
ENDCHAR
STARTCHAR 0139
ENCODING 313
SWIDTH 500 0
DWIDTH 6 0
BBX 5 11 1 1
BITMAP
60
C0
C0
C0
C0
C0
C0
C0
C0
C0
F8
ENDCHAR
STARTCHAR 013A
ENCODING 314
SWIDTH 333 0
DWIDTH 4 0
BBX 2 12 1 1
BITMAP
40
00
C0
C0
C0
C0
C0
C0
C0
C0
C0
C0
ENDCHAR
STARTCHAR 013B
ENCODING 315
SWIDTH 500 0
DWIDTH 6 0
BBX 5 12 1 -3
BITMAP
C0
C0
C0
C0
C0
C0
C0
C0
F8
00
00
20
ENDCHAR
STARTCHAR 013C
ENCODING 316
SWIDTH 333 0
DWIDTH 4 0
BBX 2 13 1 -3
BITMAP
C0
C0
C0
C0
C0
C0
C0
C0
C0
C0
00
00
C0
ENDCHAR
STARTCHAR 013D
ENCODING 317
SWIDTH 500 0
DWIDTH 6 0
BBX 5 9 1 0
BITMAP
F0
F0
C0
C0
C0
C0
C0
C0
F8
ENDCHAR
STARTCHAR 013E
ENCODING 318
SWIDTH 333 0
DWIDTH 4 0
BBX 4 10 1 0
BITMAP
F0
E0
C0
C0
C0
C0
C0
C0
C0
C0
ENDCHAR
STARTCHAR 013F
ENCODING 319
SWIDTH 500 0
DWIDTH 6 0
BBX 5 9 1 0
BITMAP
C0
C0
C0
C0
D8
C0
C0
C0
F8
ENDCHAR
STARTCHAR 0140
ENCODING 320
SWIDTH 333 0
DWIDTH 4 0
BBX 4 10 1 0
BITMAP
C0
C0
C0
C0
C0
F0
C0
C0
C0
C0
ENDCHAR
STARTCHAR 0141
ENCODING 321
SWIDTH 500 0
DWIDTH 6 0
BBX 6 9 0 0
BITMAP
60
60
70
70
E0
E0
60
60
7C
ENDCHAR
STARTCHAR 0142
ENCODING 322
SWIDTH 333 0
DWIDTH 4 0
BBX 4 10 0 0
BITMAP
60
60
60
70
60
E0
60
60
60
60
ENDCHAR
STARTCHAR 0143
ENCODING 323
SWIDTH 750 0
DWIDTH 9 0
BBX 7 11 1 1
BITMAP
08
10
E6
E6
E6
F6
D6
DE
CE
CE
C6
ENDCHAR
STARTCHAR 0144
ENCODING 324
SWIDTH 583 0
DWIDTH 7 0
BBX 6 10 1 0
BITMAP
10
30
00
F8
C8
CC
CC
CC
CC
CC
ENDCHAR
STARTCHAR 0145
ENCODING 325
SWIDTH 750 0
DWIDTH 9 0
BBX 7 12 1 -3
BITMAP
E6
E6
E6
F6
D6
DE
CE
CE
C6
00
00
10
ENDCHAR
STARTCHAR 0146
ENCODING 326
SWIDTH 583 0
DWIDTH 7 0
BBX 6 10 1 -3
BITMAP
F8
C8
CC
CC
CC
CC
CC
00
00
30
ENDCHAR
STARTCHAR 0147
ENCODING 327
SWIDTH 750 0
DWIDTH 9 0
BBX 7 12 1 0
BITMAP
6C
38
00
E6
E6
E6
F6
D6
DE
CE
CE
C6
ENDCHAR
STARTCHAR 0148
ENCODING 328
SWIDTH 583 0
DWIDTH 7 0
BBX 6 10 1 0
BITMAP
50
30
00
F8
C8
CC
CC
CC
CC
CC
ENDCHAR
STARTCHAR 0149
ENCODING 329
SWIDTH 666 0
DWIDTH 8 0
BBX 8 10 0 0
BITMAP
80
80
80
3E
32
23
23
23
23
23
ENDCHAR
STARTCHAR 014A
ENCODING 330
SWIDTH 750 0
DWIDTH 9 0
BBX 7 12 1 -3
BITMAP
E6
E6
F6
F6
DE
DE
CE
CE
C6
06
06
0C
ENDCHAR
STARTCHAR 014B
ENCODING 331
SWIDTH 583 0
DWIDTH 7 0
BBX 6 10 1 -3
BITMAP
F8
C8
CC
CC
CC
CC
CC
0C
08
18
ENDCHAR
STARTCHAR 014C
ENCODING 332
SWIDTH 750 0
DWIDTH 9 0
BBX 8 11 1 1
BITMAP
3C
00
3C
66
C2
C2
C3
C3
C2
46
7C
ENDCHAR
STARTCHAR 014D
ENCODING 333
SWIDTH 666 0
DWIDTH 8 0
BBX 6 10 1 0
BITMAP
78
00
00
78
CC
CC
CC
CC
CC
78
ENDCHAR
STARTCHAR 014E
ENCODING 334
SWIDTH 750 0
DWIDTH 9 0
BBX 8 12 1 0
BITMAP
24
3C
00
3C
66
C2
C2
C3
C3
C2
46
7C
ENDCHAR
STARTCHAR 014F
ENCODING 335
SWIDTH 666 0
DWIDTH 8 0
BBX 6 10 1 0
BITMAP
48
30
00
78
CC
CC
CC
CC
CC
78
ENDCHAR
STARTCHAR 0150
ENCODING 336
SWIDTH 750 0
DWIDTH 9 0
BBX 8 11 1 1
BITMAP
14
00
3C
66
C2
C2
C3
C3
C2
46
7C
ENDCHAR
STARTCHAR 0151
ENCODING 337
SWIDTH 666 0
DWIDTH 8 0
BBX 6 10 1 0
BITMAP
28
00
00
78
CC
CC
CC
CC
CC
78
ENDCHAR
STARTCHAR 0152
ENCODING 338
SWIDTH 1000 0
DWIDTH 12 0
BBX 10 9 1 0
BITMAP
7FC0
4600
C600
C600
C7C0
C600
C600
4600
7FC0
ENDCHAR
STARTCHAR 0153
ENCODING 339
SWIDTH 1000 0
DWIDTH 12 0
BBX 10 7 1 0
BITMAP
7B80
CEC0
CCC0
CFC0
CC00
CE40
7BC0
ENDCHAR
STARTCHAR 0154
ENCODING 340
SWIDTH 666 0
DWIDTH 8 0
BBX 6 11 1 0
BITMAP
18
30
F8
CC
CC
CC
F8
D8
D8
CC
C4
ENDCHAR
STARTCHAR 0155
ENCODING 341
SWIDTH 416 0
DWIDTH 5 0
BBX 4 10 1 0
BITMAP
20
60
00
F0
C0
C0
C0
C0
C0
C0
ENDCHAR
STARTCHAR 0156
ENCODING 342
SWIDTH 666 0
DWIDTH 8 0
BBX 6 12 1 -3
BITMAP
F8
CC
CC
CC
CC
F8
D8
CC
C4
00
00
30
ENDCHAR
STARTCHAR 0157
ENCODING 343
SWIDTH 416 0
DWIDTH 5 0
BBX 4 10 1 -3
BITMAP
F0
C0
C0
C0
C0
C0
C0
00
00
80
ENDCHAR
STARTCHAR 0158
ENCODING 344
SWIDTH 666 0
DWIDTH 8 0
BBX 6 12 1 0
BITMAP
58
70
00
F8
CC
CC
CC
F8
D8
D8
CC
C4
ENDCHAR
STARTCHAR 0159
ENCODING 345
SWIDTH 416 0
DWIDTH 5 0
BBX 4 10 1 0
BITMAP
A0
60
00
F0
C0
C0
C0
C0
C0
C0
ENDCHAR
STARTCHAR 015A
ENCODING 346
SWIDTH 583 0
DWIDTH 7 0
BBX 6 11 1 1
BITMAP
10
00
78
C0
C0
E0
78
08
0C
08
F0
ENDCHAR
STARTCHAR 015B
ENCODING 347
SWIDTH 500 0
DWIDTH 6 0
BBX 5 10 1 0
BITMAP
30
20
00
F0
80
80
F0
18
18
F0
ENDCHAR
STARTCHAR 015C
ENCODING 348
SWIDTH 583 0
DWIDTH 7 0
BBX 6 11 1 1
BITMAP
78
00
78
C0
C0
E0
78
08
0C
08
F0
ENDCHAR
STARTCHAR 015D
ENCODING 349
SWIDTH 500 0
DWIDTH 6 0
BBX 5 10 1 0
BITMAP
60
90
00
F0
80
80
F0
18
18
F0
ENDCHAR
STARTCHAR 015E
ENCODING 350
SWIDTH 583 0
DWIDTH 7 0
BBX 6 12 1 -3
BITMAP
78
80
80
C0
78
18
0C
08
F8
20
70
70
ENDCHAR
STARTCHAR 015F
ENCODING 351
SWIDTH 500 0
DWIDTH 6 0
BBX 5 10 1 -3
BITMAP
F0
80
80
F0
18
10
F0
40
20
E0
ENDCHAR
STARTCHAR 0160
ENCODING 352
SWIDTH 583 0
DWIDTH 7 0
BBX 6 12 1 0
BITMAP
C8
70
00
78
C0
C0
E0
78
08
0C
98
F0
ENDCHAR
STARTCHAR 0161
ENCODING 353
SWIDTH 500 0
DWIDTH 6 0
BBX 5 10 1 0
BITMAP
90
60
00
F0
80
80
F0
18
18
F0
ENDCHAR
STARTCHAR 0162
ENCODING 354
SWIDTH 500 0
DWIDTH 6 0
BBX 6 12 0 -3
BITMAP
FC
30
30
30
30
30
30
30
30
20
10
70
ENDCHAR
STARTCHAR 0163
ENCODING 355
SWIDTH 333 0
DWIDTH 4 0
BBX 4 11 0 -3
BITMAP
60
F0
60
60
60
60
60
70
20
70
70
ENDCHAR
STARTCHAR 0164
ENCODING 356
SWIDTH 500 0
DWIDTH 6 0
BBX 6 12 0 0
BITMAP
48
30
00
FC
30
30
30
30
30
30
30
30
ENDCHAR
STARTCHAR 0165
ENCODING 357
SWIDTH 416 0
DWIDTH 5 0
BBX 5 10 0 0
BITMAP
18
70
60
F0
60
60
60
60
60
70
ENDCHAR
STARTCHAR 0166
ENCODING 358
SWIDTH 500 0
DWIDTH 6 0
BBX 6 9 0 0
BITMAP
FC
30
30
30
7C
30
30
30
30
ENDCHAR
STARTCHAR 0167
ENCODING 359
SWIDTH 333 0
DWIDTH 4 0
BBX 4 9 0 0
BITMAP
60
60
F0
60
60
F0
60
60
70
ENDCHAR
STARTCHAR 0168
ENCODING 360
SWIDTH 750 0
DWIDTH 9 0
BBX 7 11 1 1
BITMAP
7C
00
C6
C6
C6
C6
C6
C6
C6
CC
78
ENDCHAR
STARTCHAR 0169
ENCODING 361
SWIDTH 666 0
DWIDTH 8 0
BBX 6 10 1 0
BITMAP
6C
58
00
CC
CC
CC
CC
CC
CC
7C
ENDCHAR
STARTCHAR 016A
ENCODING 362
SWIDTH 750 0
DWIDTH 9 0
BBX 7 11 1 1
BITMAP
38
00
C6
C6
C6
C6
C6
C6
C6
C6
7C
ENDCHAR
STARTCHAR 016B
ENCODING 363
SWIDTH 666 0
DWIDTH 8 0
BBX 6 10 1 0
BITMAP
78
00
00
CC
CC
CC
CC
CC
CC
7C
ENDCHAR
STARTCHAR 016C
ENCODING 364
SWIDTH 750 0
DWIDTH 9 0
BBX 7 12 1 0
BITMAP
48
38
00
C6
C6
C6
C6
C6
C6
C6
EC
78
ENDCHAR
STARTCHAR 016D
ENCODING 365
SWIDTH 666 0
DWIDTH 8 0
BBX 6 10 1 0
BITMAP
58
70
00
CC
CC
CC
CC
CC
CC
7C
ENDCHAR
STARTCHAR 016E
ENCODING 366
SWIDTH 750 0
DWIDTH 9 0
BBX 7 12 1 1
BITMAP
38
38
38
C6
C6
C6
C6
C6
C6
C6
CC
78
ENDCHAR
STARTCHAR 016F
ENCODING 367
SWIDTH 666 0
DWIDTH 8 0
BBX 6 11 1 1
BITMAP
70
78
70
00
84
84
84
84
84
8C
7C
ENDCHAR
STARTCHAR 0170
ENCODING 368
SWIDTH 750 0
DWIDTH 9 0
BBX 7 11 1 1
BITMAP
3C
00
C6
C6
C6
C6
C6
C6
C6
CC
78
ENDCHAR
STARTCHAR 0171
ENCODING 369
SWIDTH 666 0
DWIDTH 8 0
BBX 6 10 1 0
BITMAP
68
00
00
CC
CC
CC
CC
CC
CC
7C
ENDCHAR
STARTCHAR 0172
ENCODING 370
SWIDTH 750 0
DWIDTH 9 0
BBX 7 12 1 -3
BITMAP
C6
C6
C6
C6
C6
C6
C6
CC
78
20
20
30
ENDCHAR
STARTCHAR 0173
ENCODING 371
SWIDTH 666 0
DWIDTH 8 0
BBX 6 10 1 -3
BITMAP
CC
CC
CC
CC
CC
CC
7C
08
08
0C
ENDCHAR
STARTCHAR 0174
ENCODING 372
SWIDTH 916 0
DWIDTH 11 0
BBX 11 11 0 0
BITMAP
0E00
0000
C060
4660
4E40
6A40
6AC0
6BC0
3BC0
3180
3180
ENDCHAR
STARTCHAR 0175
ENCODING 373
SWIDTH 833 0
DWIDTH 10 0
BBX 10 10 0 0
BITMAP
0C00
1A00
0000
CCC0
4CC0
4E80
7A80
7280
3380
3300
ENDCHAR
STARTCHAR 0176
ENCODING 374
SWIDTH 666 0
DWIDTH 8 0
BBX 7 11 0 0
BITMAP
38
00
C2
66
64
3C
38
18
18
18
18
ENDCHAR
STARTCHAR 0177
ENCODING 375
SWIDTH 583 0
DWIDTH 7 0
BBX 7 13 0 -3
BITMAP
18
28
28
C6
44
64
6C
28
28
38
10
30
60
ENDCHAR
STARTCHAR 0178
ENCODING 376
SWIDTH 666 0
DWIDTH 8 0
BBX 7 11 1 1
BITMAP
6C
00
86
C4
4C
68
38
30
30
30
30
ENDCHAR
STARTCHAR 0179
ENCODING 377
SWIDTH 583 0
DWIDTH 7 0
BBX 6 11 1 1
BITMAP
18
10
FC
0C
18
18
30
60
60
C0
FC
ENDCHAR
STARTCHAR 017A
ENCODING 378
SWIDTH 583 0
DWIDTH 7 0
BBX 5 10 1 0
BITMAP
10
20
00
F8
18
30
60
60
C0
F8
ENDCHAR
STARTCHAR 017B
ENCODING 379
SWIDTH 583 0
DWIDTH 7 0
BBX 6 11 1 1
BITMAP
30
00
FC
0C
18
18
30
60
60
C0
FC
ENDCHAR
STARTCHAR 017C
ENCODING 380
SWIDTH 583 0
DWIDTH 7 0
BBX 5 10 1 0
BITMAP
60
00
00
F8
18
30
60
40
C0
F8
ENDCHAR
STARTCHAR 017D
ENCODING 381
SWIDTH 583 0
DWIDTH 7 0
BBX 6 12 1 0
BITMAP
48
30
00
FC
0C
18
18
30
60
60
C0
FC
ENDCHAR
STARTCHAR 017E
ENCODING 382
SWIDTH 583 0
DWIDTH 7 0
BBX 5 10 1 0
BITMAP
50
30
00
F8
18
30
60
60
C0
F8
ENDCHAR
STARTCHAR 017F
ENCODING 383
SWIDTH 333 0
DWIDTH 4 0
BBX 4 10 0 0
BITMAP
30
60
60
E0
60
60
60
60
60
60
ENDCHAR
STARTCHAR 018F
ENCODING 399
SWIDTH 750 0
DWIDTH 9 0
BBX 8 9 1 0
BITMAP
FC
86
02
02
FF
C2
C2
C6
7C
ENDCHAR
STARTCHAR 0192
ENCODING 402
SWIDTH 500 0
DWIDTH 6 0
BBX 4 9 1 0
BITMAP
30
20
60
F0
60
60
60
60
C0
ENDCHAR
STARTCHAR 01CE
ENCODING 462
SWIDTH 666 0
DWIDTH 8 0
BBX 6 10 1 0
BITMAP
28
38
00
38
0C
0C
7C
CC
CC
74
ENDCHAR
STARTCHAR 01D0
ENCODING 464
SWIDTH 250 0
DWIDTH 3 0
BBX 4 10 0 0
BITMAP
B0
60
00
60
60
60
60
60
60
60
ENDCHAR
STARTCHAR 01D2
ENCODING 466
SWIDTH 666 0
DWIDTH 8 0
BBX 6 10 1 0
BITMAP
78
30
00
78
CC
CC
CC
CC
CC
78
ENDCHAR
STARTCHAR 01D4
ENCODING 468
SWIDTH 666 0
DWIDTH 8 0
BBX 6 10 1 0
BITMAP
50
30
00
CC
CC
CC
CC
CC
CC
7C
ENDCHAR
STARTCHAR 01D6
ENCODING 470
SWIDTH 666 0
DWIDTH 8 0
BBX 6 12 1 1
BITMAP
78
00
78
00
00
CC
CC
CC
CC
CC
CC
7C
ENDCHAR
STARTCHAR 01D8
ENCODING 472
SWIDTH 666 0
DWIDTH 8 0
BBX 6 13 1 0
BITMAP
18
10
30
78
00
00
CC
CC
CC
CC
CC
CC
7C
ENDCHAR
STARTCHAR 01DA
ENCODING 474
SWIDTH 666 0
DWIDTH 8 0
BBX 6 12 1 1
BITMAP
30
58
78
00
00
CC
CC
CC
CC
CC
CC
7C
ENDCHAR
STARTCHAR 01DC
ENCODING 476
SWIDTH 666 0
DWIDTH 8 0
BBX 6 13 1 0
BITMAP
60
20
20
78
00
00
CC
CC
CC
CC
CC
CC
7C
ENDCHAR
STARTCHAR 01FA
ENCODING 506
SWIDTH 750 0
DWIDTH 9 0
BBX 9 15 0 0
BITMAP
0600
0800
0000
1C00
1C00
1C00
1C00
1400
1400
3600
2200
3E00
6300
4100
C180
ENDCHAR
STARTCHAR 01FB
ENCODING 507
SWIDTH 666 0
DWIDTH 8 0
BBX 6 13 1 1
BITMAP
18
10
38
38
38
00
38
0C
0C
7C
CC
CC
74
ENDCHAR
STARTCHAR 01FC
ENCODING 508
SWIDTH 916 0
DWIDTH 11 0
BBX 10 11 0 1
BITMAP
0180
0300
1FC0
1E00
1600
3600
27C0
7E00
4600
C600
87C0
ENDCHAR
STARTCHAR 01FD
ENCODING 509
SWIDTH 1000 0
DWIDTH 12 0
BBX 10 10 1 0
BITMAP
0600
0400
0000
3B80
0EC0
0CC0
7FC0
CC00
CE40
73C0
ENDCHAR
STARTCHAR 01FE
ENCODING 510
SWIDTH 750 0
DWIDTH 9 0
BBX 8 11 1 1
BITMAP
08
00
3E
66
C6
CB
D3
F3
E2
C6
FC
ENDCHAR
STARTCHAR 01FF
ENCODING 511
SWIDTH 666 0
DWIDTH 8 0
BBX 7 10 1 0
BITMAP
18
10
00
7C
CC
DC
D6
E4
CC
78
ENDCHAR
STARTCHAR 0218
ENCODING 536
SWIDTH 583 0
DWIDTH 7 0
BBX 6 12 1 -3
BITMAP
78
C0
C0
E0
78
08
0C
08
F8
00
00
20
ENDCHAR
STARTCHAR 0219
ENCODING 537
SWIDTH 500 0
DWIDTH 6 0
BBX 5 10 1 -3
BITMAP
F0
80
80
F0
18
18
F0
00
00
60
ENDCHAR
STARTCHAR 021A
ENCODING 538
SWIDTH 500 0
DWIDTH 6 0
BBX 6 12 0 -3
BITMAP
FC
30
30
30
30
30
30
30
30
00
00
30
ENDCHAR
STARTCHAR 021B
ENCODING 539
SWIDTH 333 0
DWIDTH 4 0
BBX 4 11 0 -2
BITMAP
60
F0
60
60
60
60
60
70
00
60
60
ENDCHAR
STARTCHAR 0237
ENCODING 567
SWIDTH 250 0
DWIDTH 3 0
BBX 4 10 -1 -3
BITMAP
30
30
30
30
30
30
30
30
20
E0
ENDCHAR
STARTCHAR 0259
ENCODING 601
SWIDTH 666 0
DWIDTH 8 0
BBX 6 7 1 0
BITMAP
F8
9C
0C
FC
CC
CC
78
ENDCHAR
STARTCHAR 02BC
ENCODING 700
SWIDTH 250 0
DWIDTH 3 0
BBX 2 3 0 7
BITMAP
40
40
C0
ENDCHAR
STARTCHAR 02C6
ENCODING 710
SWIDTH 416 0
DWIDTH 5 0
BBX 3 2 1 8
BITMAP
E0
A0
ENDCHAR
STARTCHAR 02C7
ENCODING 711
SWIDTH 416 0
DWIDTH 5 0
BBX 3 2 1 8
BITMAP
A0
E0
ENDCHAR
STARTCHAR 02C9
ENCODING 713
SWIDTH 500 0
DWIDTH 6 0
BBX 4 1 1 8
BITMAP
F0
ENDCHAR
STARTCHAR 02D8
ENCODING 728
SWIDTH 416 0
DWIDTH 5 0
BBX 4 2 0 7
BITMAP
D0
70
ENDCHAR
STARTCHAR 02D9
ENCODING 729
SWIDTH 416 0
DWIDTH 5 0
BBX 2 1 2 8
BITMAP
C0
ENDCHAR
STARTCHAR 02DA
ENCODING 730
SWIDTH 416 0
DWIDTH 5 0
BBX 3 3 1 8
BITMAP
E0
E0
E0
ENDCHAR
STARTCHAR 02DB
ENCODING 731
SWIDTH 416 0
DWIDTH 5 0
BBX 2 3 1 -2
BITMAP
80
80
C0
ENDCHAR
STARTCHAR 02DC
ENCODING 732
SWIDTH 416 0
DWIDTH 5 0
BBX 5 2 0 7
BITMAP
D8
F0
ENDCHAR
STARTCHAR 02DD
ENCODING 733
SWIDTH 416 0
DWIDTH 5 0
BBX 4 1 1 8
BITMAP
F0
ENDCHAR
STARTCHAR 0300
ENCODING 768
SWIDTH 0 0
DWIDTH 0 0
BBX 2 2 -4 8
BITMAP
C0
40
ENDCHAR
STARTCHAR 0301
ENCODING 769
SWIDTH 0 0
DWIDTH 0 0
BBX 2 2 -3 8
BITMAP
C0
80
ENDCHAR
STARTCHAR 0302
ENCODING 770
SWIDTH 0 0
DWIDTH 0 0
BBX 3 2 -4 8
BITMAP
E0
A0
ENDCHAR
STARTCHAR 0303
ENCODING 771
SWIDTH 0 0
DWIDTH 0 0
BBX 5 2 -5 7
BITMAP
D8
F0
ENDCHAR
STARTCHAR 0304
ENCODING 772
SWIDTH 83 0
DWIDTH 1 0
BBX 4 1 -4 8
BITMAP
F0
ENDCHAR
STARTCHAR 0306
ENCODING 774
SWIDTH 0 0
DWIDTH 0 0
BBX 4 2 -4 7
BITMAP
B0
E0
ENDCHAR
STARTCHAR 0307
ENCODING 775
SWIDTH 0 0
DWIDTH 0 0
BBX 2 1 -3 8
BITMAP
C0
ENDCHAR
STARTCHAR 0308
ENCODING 776
SWIDTH 0 0
DWIDTH 0 0
BBX 4 1 -4 8
BITMAP
F0
ENDCHAR
STARTCHAR 030A
ENCODING 778
SWIDTH 0 0
DWIDTH 0 0
BBX 3 3 -4 8
BITMAP
E0
E0
E0
ENDCHAR
STARTCHAR 030B
ENCODING 779
SWIDTH 0 0
DWIDTH 0 0
BBX 4 1 -4 8
BITMAP
F0
ENDCHAR
STARTCHAR 030C
ENCODING 780
SWIDTH 0 0
DWIDTH 0 0
BBX 3 2 -4 8
BITMAP
A0
E0
ENDCHAR
STARTCHAR 0313
ENCODING 787
SWIDTH 0 0
DWIDTH 0 0
BBX 1 1 -3 9
BITMAP
80
ENDCHAR
STARTCHAR 0326
ENCODING 806
SWIDTH 0 0
DWIDTH 0 0
BBX 1 1 -3 -2
BITMAP
80
ENDCHAR
STARTCHAR 0327
ENCODING 807
SWIDTH 83 0
DWIDTH 1 0
BBX 3 3 -4 -2
BITMAP
40
60
E0
ENDCHAR
STARTCHAR 0328
ENCODING 808
SWIDTH 83 0
DWIDTH 1 0
BBX 2 3 -3 -2
BITMAP
80
80
C0
ENDCHAR
STARTCHAR 0374
ENCODING 884
SWIDTH 250 0
DWIDTH 3 0
BBX 3 4 0 6
BITMAP
60
40
40
80
ENDCHAR
STARTCHAR 0375
ENCODING 885
SWIDTH 250 0
DWIDTH 3 0
BBX 3 4 0 -2
BITMAP
60
40
40
80
ENDCHAR
STARTCHAR 037E
ENCODING 894
SWIDTH 333 0
DWIDTH 4 0
BBX 3 9 0 -2
BITMAP
60
60
00
00
00
60
60
40
C0
ENDCHAR
STARTCHAR 0384
ENCODING 900
SWIDTH 416 0
DWIDTH 5 0
BBX 2 2 1 7
BITMAP
40
C0
ENDCHAR
STARTCHAR 0385
ENCODING 901
SWIDTH 416 0
DWIDTH 5 0
BBX 5 2 0 9
BITMAP
30
F8
ENDCHAR
STARTCHAR 0386
ENCODING 902
SWIDTH 750 0
DWIDTH 9 0
BBX 9 9 0 0
BITMAP
5C00
DC00
1600
3600
3200
3F00
6300
6100
4180
ENDCHAR
STARTCHAR 0387
ENCODING 903
SWIDTH 333 0
DWIDTH 4 0
BBX 2 2 1 4
BITMAP
C0
C0
ENDCHAR
STARTCHAR 0388
ENCODING 904
SWIDTH 666 0
DWIDTH 8 0
BBX 8 9 -1 0
BITMAP
5F
D8
18
18
1F
18
18
18
1F
ENDCHAR
STARTCHAR 0389
ENCODING 905
SWIDTH 833 0
DWIDTH 10 0
BBX 10 9 -1 0
BITMAP
58C0
D8C0
18C0
18C0
1FC0
18C0
18C0
18C0
18C0
ENDCHAR
STARTCHAR 038A
ENCODING 906
SWIDTH 416 0
DWIDTH 5 0
BBX 5 9 -1 0
BITMAP
58
D8
18
18
18
18
18
18
18
ENDCHAR
STARTCHAR 038C
ENCODING 908
SWIDTH 833 0
DWIDTH 10 0
BBX 10 9 0 0
BITMAP
CF00
D980
3080
3080
30C0
30C0
3080
1180
1F00
ENDCHAR
STARTCHAR 038E
ENCODING 910
SWIDTH 833 0
DWIDTH 10 0
BBX 9 9 0 0
BITMAP
B080
9980
1900
0F00
0E00
0600
0600
0600
0600
ENDCHAR
STARTCHAR 038F
ENCODING 911
SWIDTH 833 0
DWIDTH 10 0
BBX 10 9 0 0
BITMAP
CF00
D980
3080
30C0
30C0
3080
1180
1B00
3BC0
ENDCHAR
STARTCHAR 0390
ENCODING 912
SWIDTH 250 0
DWIDTH 3 0
BBX 5 11 -1 0
BITMAP
20
B8
00
00
60
60
60
60
60
60
30
ENDCHAR
STARTCHAR 0391
ENCODING 913
SWIDTH 666 0
DWIDTH 8 0
BBX 8 9 0 0
BITMAP
18
1C
34
26
26
7E
43
43
C1
ENDCHAR
STARTCHAR 0392
ENCODING 914
SWIDTH 583 0
DWIDTH 7 0
BBX 6 9 1 0
BITMAP
F8
C8
CC
C8
F0
C8
CC
C8
F8
ENDCHAR
STARTCHAR 0393
ENCODING 915
SWIDTH 500 0
DWIDTH 6 0
BBX 5 9 1 0
BITMAP
F8
C0
C0
C0
C0
C0
C0
C0
C0
ENDCHAR
STARTCHAR 0394
ENCODING 916
SWIDTH 750 0
DWIDTH 9 0
BBX 7 9 1 0
BITMAP
38
28
28
6C
6C
44
C6
C6
FE
ENDCHAR
STARTCHAR 0395
ENCODING 917
SWIDTH 583 0
DWIDTH 7 0
BBX 5 9 1 0
BITMAP
F8
C0
C0
C0
F8
C0
C0
C0
F8
ENDCHAR
STARTCHAR 0396
ENCODING 918
SWIDTH 583 0
DWIDTH 7 0
BBX 6 9 1 0
BITMAP
FC
0C
18
18
30
60
60
C0
FC
ENDCHAR
STARTCHAR 0397
ENCODING 919
SWIDTH 750 0
DWIDTH 9 0
BBX 7 9 1 0
BITMAP
C6
C6
C6
C6
FE
C6
C6
C6
C6
ENDCHAR
STARTCHAR 0398
ENCODING 920
SWIDTH 750 0
DWIDTH 9 0
BBX 8 9 1 0
BITMAP
3C
66
C2
C2
FB
C3
C2
46
7C
ENDCHAR
STARTCHAR 0399
ENCODING 921
SWIDTH 333 0
DWIDTH 4 0
BBX 2 9 1 0
BITMAP
C0
C0
C0
C0
C0
C0
C0
C0
C0
ENDCHAR
STARTCHAR 039A
ENCODING 922
SWIDTH 666 0
DWIDTH 8 0
BBX 6 9 1 0
BITMAP
CC
C8
D8
F0
E0
F0
D8
C8
CC
ENDCHAR
STARTCHAR 039B
ENCODING 923
SWIDTH 666 0
DWIDTH 8 0
BBX 8 9 0 0
BITMAP
18
1C
3C
3C
24
66
66
42
C3
ENDCHAR
STARTCHAR 039C
ENCODING 924
SWIDTH 916 0
DWIDTH 11 0
BBX 9 9 1 0
BITMAP
E380
E380
E780
F580
DD80
DD80
D980
C180
C180
ENDCHAR
STARTCHAR 039D
ENCODING 925
SWIDTH 750 0
DWIDTH 9 0
BBX 7 9 1 0
BITMAP
E6
E6
E6
F6
D6
DE
CE
CE
C6
ENDCHAR
STARTCHAR 039E
ENCODING 926
SWIDTH 583 0
DWIDTH 7 0
BBX 5 9 1 0
BITMAP
F8
00
00
00
F8
00
00
00
F8
ENDCHAR
STARTCHAR 039F
ENCODING 927
SWIDTH 750 0
DWIDTH 9 0
BBX 8 9 1 0
BITMAP
3C
66
C2
C2
C3
C3
C2
46
7C
ENDCHAR
STARTCHAR 03A0
ENCODING 928
SWIDTH 750 0
DWIDTH 9 0
BBX 7 9 1 0
BITMAP
FE
C6
C6
C6
C6
C6
C6
C6
C6
ENDCHAR
STARTCHAR 03A1
ENCODING 929
SWIDTH 666 0
DWIDTH 8 0
BBX 6 9 1 0
BITMAP
F8
CC
CC
CC
CC
F8
C0
C0
C0
ENDCHAR
STARTCHAR 03A3
ENCODING 931
SWIDTH 666 0
DWIDTH 8 0
BBX 6 9 1 0
BITMAP
FC
C0
60
30
30
30
60
C0
FC
ENDCHAR
STARTCHAR 03A4
ENCODING 932
SWIDTH 500 0
DWIDTH 6 0
BBX 6 9 0 0
BITMAP
FC
30
30
30
30
30
30
30
30
ENDCHAR
STARTCHAR 03A5
ENCODING 933
SWIDTH 666 0
DWIDTH 8 0
BBX 7 9 0 0
BITMAP
C2
66
64
3C
38
18
18
18
18
ENDCHAR
STARTCHAR 03A6
ENCODING 934
SWIDTH 916 0
DWIDTH 11 0
BBX 10 9 1 0
BITMAP
0C00
7F00
ED80
CC80
CCC0
CC80
CD80
7F00
0C00
ENDCHAR
STARTCHAR 03A7
ENCODING 935
SWIDTH 666 0
DWIDTH 8 0
BBX 6 9 1 0
BITMAP
C4
CC
78
78
30
78
78
CC
84
ENDCHAR
STARTCHAR 03A8
ENCODING 936
SWIDTH 833 0
DWIDTH 10 0
BBX 8 9 1 0
BITMAP
D9
D9
D9
D9
DB
7F
18
18
18
ENDCHAR
STARTCHAR 03A9
ENCODING 937
SWIDTH 750 0
DWIDTH 9 0
BBX 8 9 1 0
BITMAP
3C
66
C2
C3
C3
C2
46
6C
EF
ENDCHAR
STARTCHAR 03AA
ENCODING 938
SWIDTH 333 0
DWIDTH 4 0
BBX 4 11 0 1
BITMAP
F0
00
60
60
60
60
60
60
60
60
60
ENDCHAR
STARTCHAR 03AB
ENCODING 939
SWIDTH 666 0
DWIDTH 8 0
BBX 7 11 1 1
BITMAP
6C
00
86
C4
4C
68
38
30
30
30
30
ENDCHAR
STARTCHAR 03AC
ENCODING 940
SWIDTH 666 0
DWIDTH 8 0
BBX 7 10 1 0
BITMAP
30
20
00
76
DC
CC
CC
CC
DC
76
ENDCHAR
STARTCHAR 03AD
ENCODING 941
SWIDTH 500 0
DWIDTH 6 0
BBX 5 10 1 0
BITMAP
30
20
00
78
C0
C0
70
C0
C0
78
ENDCHAR
STARTCHAR 03AE
ENCODING 942
SWIDTH 583 0
DWIDTH 7 0
BBX 7 13 0 -3
BITMAP
08
10
00
DC
64
66
66
66
66
66
06
06
06
ENDCHAR
STARTCHAR 03AF
ENCODING 943
SWIDTH 333 0
DWIDTH 4 0
BBX 3 10 1 0
BITMAP
40
C0
00
C0
C0
C0
C0
C0
C0
E0
ENDCHAR
STARTCHAR 03B0
ENCODING 944
SWIDTH 583 0
DWIDTH 7 0
BBX 6 11 1 0
BITMAP
20
F8
00
00
C8
C8
CC
CC
C8
D8
70
ENDCHAR
STARTCHAR 03B1
ENCODING 945
SWIDTH 666 0
DWIDTH 8 0
BBX 7 7 1 0
BITMAP
76
DC
CC
CC
CC
DC
76
ENDCHAR
STARTCHAR 03B2
ENCODING 946
SWIDTH 666 0
DWIDTH 8 0
BBX 6 13 1 -3
BITMAP
78
D8
CC
CC
C8
F0
CC
CC
CC
F8
C0
C0
C0
ENDCHAR
STARTCHAR 03B3
ENCODING 947
SWIDTH 583 0
DWIDTH 7 0
BBX 6 10 1 -3
BITMAP
8C
CC
C8
58
78
70
30
30
30
30
ENDCHAR
STARTCHAR 03B4
ENCODING 948
SWIDTH 666 0
DWIDTH 8 0
BBX 6 10 1 0
BITMAP
78
C0
60
78
FC
CC
CC
CC
CC
78
ENDCHAR
STARTCHAR 03B5
ENCODING 949
SWIDTH 500 0
DWIDTH 6 0
BBX 5 7 1 0
BITMAP
78
C0
C0
70
C0
C0
78
ENDCHAR
STARTCHAR 03B6
ENCODING 950
SWIDTH 500 0
DWIDTH 6 0
BBX 5 13 1 -3
BITMAP
78
30
20
60
C0
C0
C0
C0
C0
70
18
18
30
ENDCHAR
STARTCHAR 03B7
ENCODING 951
SWIDTH 583 0
DWIDTH 7 0
BBX 7 10 0 -3
BITMAP
DC
64
66
66
66
66
66
06
06
06
ENDCHAR
STARTCHAR 03B8
ENCODING 952
SWIDTH 666 0
DWIDTH 8 0
BBX 6 10 1 0
BITMAP
78
48
CC
CC
FC
CC
CC
CC
48
78
ENDCHAR
STARTCHAR 03B9
ENCODING 953
SWIDTH 333 0
DWIDTH 4 0
BBX 3 7 1 0
BITMAP
C0
C0
C0
C0
C0
C0
E0
ENDCHAR
STARTCHAR 03BA
ENCODING 954
SWIDTH 583 0
DWIDTH 7 0
BBX 5 7 1 0
BITMAP
D8
D8
F0
E0
F0
D8
D8
ENDCHAR
STARTCHAR 03BB
ENCODING 955
SWIDTH 500 0
DWIDTH 6 0
BBX 6 10 0 0
BITMAP
20
30
30
30
38
38
68
4C
4C
C4
ENDCHAR
STARTCHAR 03BC
ENCODING 956
SWIDTH 666 0
DWIDTH 8 0
BBX 6 10 1 -3
BITMAP
CC
CC
CC
CC
CC
CC
FC
C0
C0
C0
ENDCHAR
STARTCHAR 03BD
ENCODING 957
SWIDTH 583 0
DWIDTH 7 0
BBX 6 7 0 0
BITMAP
C4
44
6C
68
28
38
30
ENDCHAR
STARTCHAR 03BE
ENCODING 958
SWIDTH 500 0
DWIDTH 6 0
BBX 5 13 1 -3
BITMAP
F0
60
40
C0
40
70
C0
C0
C0
70
18
18
30
ENDCHAR
STARTCHAR 03BF
ENCODING 959
SWIDTH 666 0
DWIDTH 8 0
BBX 6 7 1 0
BITMAP
78
CC
CC
CC
CC
CC
78
ENDCHAR
STARTCHAR 03C0
ENCODING 960
SWIDTH 583 0
DWIDTH 7 0
BBX 7 7 0 0
BITMAP
FE
66
66
66
66
66
66
ENDCHAR
STARTCHAR 03C1
ENCODING 961
SWIDTH 666 0
DWIDTH 8 0
BBX 6 10 1 -3
BITMAP
78
CC
CC
CC
CC
CC
F8
C0
C0
C0
ENDCHAR
STARTCHAR 03C2
ENCODING 962
SWIDTH 583 0
DWIDTH 7 0
BBX 5 10 1 -3
BITMAP
78
C0
C0
C0
C0
C0
70
18
18
30
ENDCHAR
STARTCHAR 03C3
ENCODING 963
SWIDTH 666 0
DWIDTH 8 0
BBX 7 7 1 0
BITMAP
7E
CC
CC
CC
CC
CC
78
ENDCHAR
STARTCHAR 03C4
ENCODING 964
SWIDTH 416 0
DWIDTH 5 0
BBX 5 7 0 0
BITMAP
F8
60
60
60
60
60
30
ENDCHAR
STARTCHAR 03C5
ENCODING 965
SWIDTH 583 0
DWIDTH 7 0
BBX 6 7 1 0
BITMAP
C8
C8
CC
CC
C8
D8
70
ENDCHAR
STARTCHAR 03C6
ENCODING 966
SWIDTH 833 0
DWIDTH 10 0
BBX 8 13 1 -3
BITMAP
18
18
18
7E
DB
D9
D9
D9
DB
7E
18
18
18
ENDCHAR
STARTCHAR 03C7
ENCODING 967
SWIDTH 583 0
DWIDTH 7 0
BBX 6 10 0 -3
BITMAP
CC
4C
68
38
38
38
38
68
4C
C4
ENDCHAR
STARTCHAR 03C8
ENCODING 968
SWIDTH 750 0
DWIDTH 9 0
BBX 8 10 1 -3
BITMAP
DA
DA
DB
DB
DA
DE
7C
18
18
18
ENDCHAR
STARTCHAR 03C9
ENCODING 969
SWIDTH 833 0
DWIDTH 10 0
BBX 8 7 1 0
BITMAP
C1
C1
D9
D9
D9
DF
77
ENDCHAR
STARTCHAR 03CA
ENCODING 970
SWIDTH 333 0
DWIDTH 4 0
BBX 4 10 0 0
BITMAP
F0
00
00
60
60
60
60
60
60
70
ENDCHAR
STARTCHAR 03CB
ENCODING 971
SWIDTH 583 0
DWIDTH 7 0
BBX 6 10 1 0
BITMAP
D8
00
00
C8
C8
CC
CC
C8
D8
70
ENDCHAR
STARTCHAR 03CC
ENCODING 972
SWIDTH 666 0
DWIDTH 8 0
BBX 6 10 1 0
BITMAP
10
10
00
78
CC
CC
CC
CC
CC
78
ENDCHAR
STARTCHAR 03CD
ENCODING 973
SWIDTH 583 0
DWIDTH 7 0
BBX 6 10 1 0
BITMAP
30
20
00
C8
C8
CC
CC
C8
D8
70
ENDCHAR
STARTCHAR 03CE
ENCODING 974
SWIDTH 833 0
DWIDTH 10 0
BBX 8 10 1 0
BITMAP
08
08
00
C1
C1
D9
D9
D9
DF
77
ENDCHAR
STARTCHAR 0400
ENCODING 1024
SWIDTH 583 0
DWIDTH 7 0
BBX 5 11 1 1
BITMAP
60
00
F8
C0
C0
C0
F8
C0
C0
C0
F8
ENDCHAR
STARTCHAR 0401
ENCODING 1025
SWIDTH 583 0
DWIDTH 7 0
BBX 5 11 1 1
BITMAP
D8
00
F8
C0
C0
C0
F8
C0
C0
C0
F8
ENDCHAR
STARTCHAR 0402
ENCODING 1026
SWIDTH 750 0
DWIDTH 9 0
BBX 9 9 0 0
BITMAP
FC00
3000
3000
3F00
3100
3180
3180
3300
3700
ENDCHAR
STARTCHAR 0403
ENCODING 1027
SWIDTH 500 0
DWIDTH 6 0
BBX 5 11 1 1
BITMAP
10
20
F8
C0
C0
C0
C0
C0
C0
C0
C0
ENDCHAR
STARTCHAR 0404
ENCODING 1028
SWIDTH 583 0
DWIDTH 7 0
BBX 6 9 1 0
BITMAP
3C
60
C0
C0
FC
C0
C0
60
3C
ENDCHAR
STARTCHAR 0405
ENCODING 1029
SWIDTH 583 0
DWIDTH 7 0
BBX 6 9 1 0
BITMAP
78
C0
C0
E0
78
08
0C
08
F0
ENDCHAR
STARTCHAR 0406
ENCODING 1030
SWIDTH 333 0
DWIDTH 4 0
BBX 2 9 1 0
BITMAP
C0
C0
C0
C0
C0
C0
C0
C0
C0
ENDCHAR
STARTCHAR 0407
ENCODING 1031
SWIDTH 333 0
DWIDTH 4 0
BBX 4 11 0 1
BITMAP
F0
00
60
60
60
60
60
60
60
60
60
ENDCHAR
STARTCHAR 0408
ENCODING 1032
SWIDTH 250 0
DWIDTH 3 0
BBX 4 12 -1 -3
BITMAP
30
30
30
30
30
30
30
30
30
30
60
E0
ENDCHAR
STARTCHAR 0409
ENCODING 1033
SWIDTH 1083 0
DWIDTH 13 0
BBX 12 9 0 0
BITMAP
3F00
3300
3300
2300
23E0
2330
6330
6330
C3E0
ENDCHAR
STARTCHAR 040A
ENCODING 1034
SWIDTH 1083 0
DWIDTH 13 0
BBX 11 9 1 0
BITMAP
C600
C600
C600
C600
FFC0
C660
C660
C660
C7C0
ENDCHAR
STARTCHAR 040B
ENCODING 1035
SWIDTH 750 0
DWIDTH 9 0
BBX 9 9 0 0
BITMAP
FC00
3000
3000
3F00
3100
3180
3180
3180
3180
ENDCHAR
STARTCHAR 040C
ENCODING 1036
SWIDTH 666 0
DWIDTH 8 0
BBX 6 11 1 1
BITMAP
18
30
CC
C8
D8
F0
F0
D8
C8
CC
CC
ENDCHAR
STARTCHAR 040D
ENCODING 1037
SWIDTH 750 0
DWIDTH 9 0
BBX 7 11 1 1
BITMAP
30
00
CE
CE
CE
DE
D6
F6
E6
E6
C6
ENDCHAR
STARTCHAR 040E
ENCODING 1038
SWIDTH 666 0
DWIDTH 8 0
BBX 7 12 0 0
BITMAP
24
3C
00
C2
46
66
24
3C
18
18
30
60
ENDCHAR
STARTCHAR 040F
ENCODING 1039
SWIDTH 666 0
DWIDTH 8 0
BBX 6 11 1 -2
BITMAP
C4
C4
C4
C4
C4
C4
C4
C4
FC
30
30
ENDCHAR
STARTCHAR 0410
ENCODING 1040
SWIDTH 666 0
DWIDTH 8 0
BBX 8 9 0 0
BITMAP
18
1C
34
26
26
7E
43
43
C1
ENDCHAR
STARTCHAR 0411
ENCODING 1041
SWIDTH 666 0
DWIDTH 8 0
BBX 6 9 1 0
BITMAP
F8
C0
C0
C0
F8
CC
CC
CC
F8
ENDCHAR
STARTCHAR 0412
ENCODING 1042
SWIDTH 583 0
DWIDTH 7 0
BBX 6 9 1 0
BITMAP
F8
C8
CC
C8
F0
C8
CC
C8
F8
ENDCHAR
STARTCHAR 0413
ENCODING 1043
SWIDTH 500 0
DWIDTH 6 0
BBX 5 9 1 0
BITMAP
F8
C0
C0
C0
C0
C0
C0
C0
C0
ENDCHAR
STARTCHAR 0414
ENCODING 1044
SWIDTH 750 0
DWIDTH 9 0
BBX 9 11 0 -2
BITMAP
3F00
3300
3300
2300
2300
2300
6300
6300
FF80
C180
C180
ENDCHAR
STARTCHAR 0415
ENCODING 1045
SWIDTH 583 0
DWIDTH 7 0
BBX 5 9 1 0
BITMAP
F8
C0
C0
C0
F8
C0
C0
C0
F8
ENDCHAR
STARTCHAR 0416
ENCODING 1046
SWIDTH 916 0
DWIDTH 11 0
BBX 11 9 0 0
BITMAP
4660
6640
36C0
1780
1F80
36C0
6640
4660
C660
ENDCHAR
STARTCHAR 0417
ENCODING 1047
SWIDTH 666 0
DWIDTH 8 0
BBX 6 9 1 0
BITMAP
F8
18
0C
08
F0
18
0C
08
F8
ENDCHAR
STARTCHAR 0418
ENCODING 1048
SWIDTH 750 0
DWIDTH 9 0
BBX 7 9 1 0
BITMAP
CE
CE
CE
DE
D6
F6
E6
E6
C6
ENDCHAR
STARTCHAR 0419
ENCODING 1049
SWIDTH 750 0
DWIDTH 9 0
BBX 7 12 1 0
BITMAP
68
38
00
CE
CE
DE
DE
D6
F6
E6
E6
E6
ENDCHAR
STARTCHAR 041A
ENCODING 1050
SWIDTH 666 0
DWIDTH 8 0
BBX 6 9 1 0
BITMAP
CC
C8
D8
F0
F0
D8
C8
CC
CC
ENDCHAR
STARTCHAR 041B
ENCODING 1051
SWIDTH 666 0
DWIDTH 8 0
BBX 8 9 0 0
BITMAP
3F
33
23
23
23
23
63
63
C3
ENDCHAR
STARTCHAR 041C
ENCODING 1052
SWIDTH 916 0
DWIDTH 11 0
BBX 9 9 1 0
BITMAP
E380
E380
E780
F580
DD80
DD80
D980
C180
C180
ENDCHAR
STARTCHAR 041D
ENCODING 1053
SWIDTH 750 0
DWIDTH 9 0
BBX 7 9 1 0
BITMAP
C6
C6
C6
C6
FE
C6
C6
C6
C6
ENDCHAR
STARTCHAR 041E
ENCODING 1054
SWIDTH 750 0
DWIDTH 9 0
BBX 8 9 1 0
BITMAP
3C
66
C2
C2
C3
C3
C2
46
7C
ENDCHAR
STARTCHAR 041F
ENCODING 1055
SWIDTH 750 0
DWIDTH 9 0
BBX 7 9 1 0
BITMAP
FE
C6
C6
C6
C6
C6
C6
C6
C6
ENDCHAR
STARTCHAR 0420
ENCODING 1056
SWIDTH 666 0
DWIDTH 8 0
BBX 6 9 1 0
BITMAP
F8
CC
CC
CC
CC
F8
C0
C0
C0
ENDCHAR
STARTCHAR 0421
ENCODING 1057
SWIDTH 666 0
DWIDTH 8 0
BBX 6 9 1 0
BITMAP
3C
60
C0
C0
C0
C0
C0
60
3C
ENDCHAR
STARTCHAR 0422
ENCODING 1058
SWIDTH 500 0
DWIDTH 6 0
BBX 6 9 0 0
BITMAP
FC
30
30
30
30
30
30
30
30
ENDCHAR
STARTCHAR 0423
ENCODING 1059
SWIDTH 583 0
DWIDTH 7 0
BBX 7 9 0 0
BITMAP
C6
46
64
2C
3C
18
18
30
60
ENDCHAR
STARTCHAR 0424
ENCODING 1060
SWIDTH 916 0
DWIDTH 11 0
BBX 10 9 1 0
BITMAP
0C00
7F00
ED80
CC80
CCC0
CC80
CD80
7F00
0C00
ENDCHAR
STARTCHAR 0425
ENCODING 1061
SWIDTH 666 0
DWIDTH 8 0
BBX 6 9 1 0
BITMAP
C4
CC
78
78
30
78
78
CC
84
ENDCHAR
STARTCHAR 0426
ENCODING 1062
SWIDTH 750 0
DWIDTH 9 0
BBX 8 11 1 -2
BITMAP
C6
C6
C6
C6
C6
C6
C6
C6
FF
03
03
ENDCHAR
STARTCHAR 0427
ENCODING 1063
SWIDTH 750 0
DWIDTH 9 0
BBX 7 9 1 0
BITMAP
C6
C6
C6
C6
C6
7E
06
06
06
ENDCHAR
STARTCHAR 0428
ENCODING 1064
SWIDTH 1000 0
DWIDTH 12 0
BBX 10 9 1 0
BITMAP
CC40
CC40
CC40
CC40
CC40
CC40
CC40
CC40
FFC0
ENDCHAR
STARTCHAR 0429
ENCODING 1065
SWIDTH 1083 0
DWIDTH 13 0
BBX 12 11 1 -2
BITMAP
CC60
CC60
CC60
CC60
CC60
CC60
CC60
CC60
FFF0
0030
0030
ENDCHAR
STARTCHAR 042A
ENCODING 1066
SWIDTH 750 0
DWIDTH 9 0
BBX 8 9 0 0
BITMAP
F0
30
30
30
3E
33
33
33
3E
ENDCHAR
STARTCHAR 042B
ENCODING 1067
SWIDTH 916 0
DWIDTH 11 0
BBX 9 9 1 0
BITMAP
C180
C180
C180
C180
F980
CD80
CD80
CD80
F980
ENDCHAR
STARTCHAR 042C
ENCODING 1068
SWIDTH 666 0
DWIDTH 8 0
BBX 6 9 1 0
BITMAP
C0
C0
C0
C0
F8
CC
CC
CC
F8
ENDCHAR
STARTCHAR 042D
ENCODING 1069
SWIDTH 583 0
DWIDTH 7 0
BBX 6 9 1 0
BITMAP
F0
18
08
08
FC
08
08
18
F0
ENDCHAR
STARTCHAR 042E
ENCODING 1070
SWIDTH 1000 0
DWIDTH 12 0
BBX 11 9 1 0
BITMAP
C780
C4C0
CC40
CC40
FC60
CC60
CC40
CCC0
C780
ENDCHAR
STARTCHAR 042F
ENCODING 1071
SWIDTH 666 0
DWIDTH 8 0
BBX 6 9 1 0
BITMAP
7C
CC
CC
CC
7C
6C
6C
CC
8C
ENDCHAR
STARTCHAR 0430
ENCODING 1072
SWIDTH 666 0
DWIDTH 8 0
BBX 6 7 1 0
BITMAP
38
0C
0C
7C
CC
CC
74
ENDCHAR
STARTCHAR 0431
ENCODING 1073
SWIDTH 666 0
DWIDTH 8 0
BBX 6 9 1 1
BITMAP
7C
C0
F8
CC
CC
CC
CC
CC
78
ENDCHAR
STARTCHAR 0432
ENCODING 1074
SWIDTH 583 0
DWIDTH 7 0
BBX 6 7 1 0
BITMAP
F8
CC
C8
F0
C8
CC
F8
ENDCHAR
STARTCHAR 0433
ENCODING 1075
SWIDTH 416 0
DWIDTH 5 0
BBX 4 7 1 0
BITMAP
F0
C0
C0
C0
C0
C0
C0
ENDCHAR
STARTCHAR 0434
ENCODING 1076
SWIDTH 583 0
DWIDTH 7 0
BBX 7 9 0 -2
BITMAP
3C
2C
6C
6C
6C
4C
FE
C6
C6
ENDCHAR
STARTCHAR 0435
ENCODING 1077
SWIDTH 666 0
DWIDTH 8 0
BBX 6 7 1 0
BITMAP
78
CC
CC
FC
C0
C0
78
ENDCHAR
STARTCHAR 0436
ENCODING 1078
SWIDTH 833 0
DWIDTH 10 0
BBX 9 7 0 0
BITMAP
CD80
6D00
2F00
3F00
6D00
4D80
CC80
ENDCHAR
STARTCHAR 0437
ENCODING 1079
SWIDTH 500 0
DWIDTH 6 0
BBX 5 7 1 0
BITMAP
F0
18
10
E0
10
18
F0
ENDCHAR
STARTCHAR 0438
ENCODING 1080
SWIDTH 666 0
DWIDTH 8 0
BBX 6 7 1 0
BITMAP
CC
DC
DC
FC
EC
EC
CC
ENDCHAR
STARTCHAR 0439
ENCODING 1081
SWIDTH 666 0
DWIDTH 8 0
BBX 6 10 1 0
BITMAP
48
78
00
CC
DC
DC
FC
EC
EC
CC
ENDCHAR
STARTCHAR 043A
ENCODING 1082
SWIDTH 583 0
DWIDTH 7 0
BBX 5 7 1 0
BITMAP
D8
D0
F0
F0
D0
D8
C8
ENDCHAR
STARTCHAR 043B
ENCODING 1083
SWIDTH 583 0
DWIDTH 7 0
BBX 7 7 0 0
BITMAP
3E
26
26
26
66
66
C6
ENDCHAR
STARTCHAR 043C
ENCODING 1084
SWIDTH 750 0
DWIDTH 9 0
BBX 7 7 1 0
BITMAP
C6
EE
EE
EE
FE
D6
C6
ENDCHAR
STARTCHAR 043D
ENCODING 1085
SWIDTH 666 0
DWIDTH 8 0
BBX 6 7 1 0
BITMAP
CC
CC
CC
FC
CC
CC
CC
ENDCHAR
STARTCHAR 043E
ENCODING 1086
SWIDTH 666 0
DWIDTH 8 0
BBX 6 7 1 0
BITMAP
78
CC
CC
CC
CC
CC
78
ENDCHAR
STARTCHAR 043F
ENCODING 1087
SWIDTH 666 0
DWIDTH 8 0
BBX 6 7 1 0
BITMAP
FC
CC
CC
CC
CC
CC
CC
ENDCHAR
STARTCHAR 0440
ENCODING 1088
SWIDTH 666 0
DWIDTH 8 0
BBX 6 10 1 -3
BITMAP
F8
CC
CC
CC
CC
CC
F8
C0
C0
C0
ENDCHAR
STARTCHAR 0441
ENCODING 1089
SWIDTH 583 0
DWIDTH 7 0
BBX 5 7 1 0
BITMAP
78
C0
C0
C0
C0
C0
78
ENDCHAR
STARTCHAR 0442
ENCODING 1090
SWIDTH 416 0
DWIDTH 5 0
BBX 5 7 0 0
BITMAP
F8
30
30
30
30
30
30
ENDCHAR
STARTCHAR 0443
ENCODING 1091
SWIDTH 583 0
DWIDTH 7 0
BBX 7 10 0 -3
BITMAP
C6
44
64
6C
28
28
38
10
30
60
ENDCHAR
STARTCHAR 0444
ENCODING 1092
SWIDTH 916 0
DWIDTH 11 0
BBX 10 13 1 -3
BITMAP
0C00
0C00
0C00
7F80
DC80
CC80
CCC0
CCC0
DD80
7F80
0C00
0C00
0C00
ENDCHAR
STARTCHAR 0445
ENCODING 1093
SWIDTH 583 0
DWIDTH 7 0
BBX 6 7 0 0
BITMAP
44
6C
28
30
28
6C
C4
ENDCHAR
STARTCHAR 0446
ENCODING 1094
SWIDTH 666 0
DWIDTH 8 0
BBX 7 9 1 -2
BITMAP
CC
CC
CC
CC
CC
CC
FE
06
06
ENDCHAR
STARTCHAR 0447
ENCODING 1095
SWIDTH 666 0
DWIDTH 8 0
BBX 6 7 1 0
BITMAP
CC
CC
CC
CC
FC
0C
0C
ENDCHAR
STARTCHAR 0448
ENCODING 1096
SWIDTH 916 0
DWIDTH 11 0
BBX 10 7 1 0
BITMAP
CCC0
CCC0
CCC0
CCC0
CCC0
CCC0
FFC0
ENDCHAR
STARTCHAR 0449
ENCODING 1097
SWIDTH 916 0
DWIDTH 11 0
BBX 10 9 1 -2
BITMAP
CD80
CD80
CD80
CD80
CD80
CD80
FFC0
00C0
00C0
ENDCHAR
STARTCHAR 044A
ENCODING 1098
SWIDTH 666 0
DWIDTH 8 0
BBX 8 7 0 0
BITMAP
F0
30
30
3E
32
33
3E
ENDCHAR
STARTCHAR 044B
ENCODING 1099
SWIDTH 833 0
DWIDTH 10 0
BBX 8 7 1 0
BITMAP
C3
C3
C3
FB
CB
CF
FB
ENDCHAR
STARTCHAR 044C
ENCODING 1100
SWIDTH 583 0
DWIDTH 7 0
BBX 6 7 1 0
BITMAP
C0
C0
C0
F8
C8
CC
F8
ENDCHAR
STARTCHAR 044D
ENCODING 1101
SWIDTH 500 0
DWIDTH 6 0
BBX 5 7 1 0
BITMAP
E0
30
10
F8
10
30
E0
ENDCHAR
STARTCHAR 044E
ENCODING 1102
SWIDTH 833 0
DWIDTH 10 0
BBX 9 7 1 0
BITMAP
CE00
DB00
D100
F180
D100
DB00
CE00
ENDCHAR
STARTCHAR 044F
ENCODING 1103
SWIDTH 583 0
DWIDTH 7 0
BBX 5 7 1 0
BITMAP
78
D8
D8
F8
58
D8
98
ENDCHAR
STARTCHAR 0450
ENCODING 1104
SWIDTH 666 0
DWIDTH 8 0
BBX 6 10 1 0
BITMAP
60
20
00
78
CC
CC
FC
C0
C0
78
ENDCHAR
STARTCHAR 0451
ENCODING 1105
SWIDTH 666 0
DWIDTH 8 0
BBX 6 10 1 0
BITMAP
78
00
00
78
CC
CC
FC
C0
C0
78
ENDCHAR
STARTCHAR 0452
ENCODING 1106
SWIDTH 583 0
DWIDTH 7 0
BBX 7 13 0 -3
BITMAP
60
F0
60
7C
64
66
66
66
66
66
06
04
0C
ENDCHAR
STARTCHAR 0453
ENCODING 1107
SWIDTH 416 0
DWIDTH 5 0
BBX 4 10 1 0
BITMAP
20
40
00
F0
C0
C0
C0
C0
C0
C0
ENDCHAR
STARTCHAR 0454
ENCODING 1108
SWIDTH 583 0
DWIDTH 7 0
BBX 5 7 1 0
BITMAP
78
C0
C0
F0
C0
C0
78
ENDCHAR
STARTCHAR 0455
ENCODING 1109
SWIDTH 500 0
DWIDTH 6 0
BBX 5 7 1 0
BITMAP
F0
80
80
F0
18
18
F0
ENDCHAR
STARTCHAR 0456
ENCODING 1110
SWIDTH 250 0
DWIDTH 3 0
BBX 2 10 1 0
BITMAP
C0
00
00
C0
C0
C0
C0
C0
C0
C0
ENDCHAR
STARTCHAR 0457
ENCODING 1111
SWIDTH 333 0
DWIDTH 4 0
BBX 4 10 0 0
BITMAP
F0
00
00
60
60
60
60
60
60
60
ENDCHAR
STARTCHAR 0458
ENCODING 1112
SWIDTH 250 0
DWIDTH 3 0
BBX 4 13 -1 -3
BITMAP
30
00
00
30
30
30
30
30
30
30
30
20
E0
ENDCHAR
STARTCHAR 0459
ENCODING 1113
SWIDTH 916 0
DWIDTH 11 0
BBX 11 7 0 0
BITMAP
3E00
2600
2600
27C0
6640
6660
C7C0
ENDCHAR
STARTCHAR 045A
ENCODING 1114
SWIDTH 916 0
DWIDTH 11 0
BBX 10 7 1 0
BITMAP
CC00
CC00
CC00
FFC0
CCC0
CCC0
CF80
ENDCHAR
STARTCHAR 045B
ENCODING 1115
SWIDTH 583 0
DWIDTH 7 0
BBX 7 10 0 0
BITMAP
60
F0
60
7C
64
66
66
66
66
66
ENDCHAR
STARTCHAR 045C
ENCODING 1116
SWIDTH 583 0
DWIDTH 7 0
BBX 5 10 1 0
BITMAP
30
20
00
D8
D0
F0
F0
D0
D8
C8
ENDCHAR
STARTCHAR 045D
ENCODING 1117
SWIDTH 666 0
DWIDTH 8 0
BBX 6 10 1 0
BITMAP
60
20
00
CC
DC
DC
FC
EC
EC
CC
ENDCHAR
STARTCHAR 045E
ENCODING 1118
SWIDTH 583 0
DWIDTH 7 0
BBX 6 13 0 -3
BITMAP
28
28
38
C4
4C
6C
28
28
28
10
10
30
60
ENDCHAR
STARTCHAR 045F
ENCODING 1119
SWIDTH 666 0
DWIDTH 8 0
BBX 6 9 1 -2
BITMAP
CC
CC
CC
CC
CC
CC
FC
30
30
ENDCHAR
STARTCHAR 0490
ENCODING 1168
SWIDTH 500 0
DWIDTH 6 0
BBX 5 11 1 0
BITMAP
18
18
F8
C0
C0
C0
C0
C0
C0
C0
C0
ENDCHAR
STARTCHAR 0491
ENCODING 1169
SWIDTH 416 0
DWIDTH 5 0
BBX 4 9 1 0
BITMAP
30
30
F0
C0
C0
C0
C0
C0
C0
ENDCHAR
STARTCHAR 0492
ENCODING 1170
SWIDTH 500 0
DWIDTH 6 0
BBX 6 9 0 0
BITMAP
7C
60
60
60
F8
60
60
60
60
ENDCHAR
STARTCHAR 0493
ENCODING 1171
SWIDTH 416 0
DWIDTH 5 0
BBX 5 7 0 0
BITMAP
78
60
60
F0
60
60
60
ENDCHAR
STARTCHAR 0496
ENCODING 1174
SWIDTH 1000 0
DWIDTH 12 0
BBX 10 9 1 0
BITMAP
CCC0
CD80
6D00
2F00
3F00
6D80
CD80
CCC0
8CC0
ENDCHAR
STARTCHAR 0497
ENCODING 1175
SWIDTH 750 0
DWIDTH 9 0
BBX 9 7 0 0
BITMAP
4D80
6D00
2F00
3E00
6F00
4D80
CC80
ENDCHAR
STARTCHAR 049A
ENCODING 1178
SWIDTH 666 0
DWIDTH 8 0
BBX 7 11 1 -2
BITMAP
CC
C8
D8
F0
F0
D8
C8
CC
CE
06
06
ENDCHAR
STARTCHAR 049B
ENCODING 1179
SWIDTH 583 0
DWIDTH 7 0
BBX 6 9 1 -2
BITMAP
D8
D8
F0
F0
D0
D8
CC
0C
0C
ENDCHAR
STARTCHAR 049C
ENCODING 1180
SWIDTH 750 0
DWIDTH 9 0
BBX 7 9 1 0
BITMAP
C6
C4
FC
F8
F8
FC
F6
C6
C6
ENDCHAR
STARTCHAR 049D
ENCODING 1181
SWIDTH 583 0
DWIDTH 7 0
BBX 6 7 1 0
BITMAP
CC
E8
F8
F8
F8
EC
CC
ENDCHAR
STARTCHAR 04A2
ENCODING 1186
SWIDTH 750 0
DWIDTH 9 0
BBX 8 11 1 -2
BITMAP
C6
C6
C6
C6
FE
C6
C6
C6
C7
03
03
ENDCHAR
STARTCHAR 04A3
ENCODING 1187
SWIDTH 666 0
DWIDTH 8 0
BBX 7 9 1 -2
BITMAP
CC
CC
CC
FC
CC
CC
CE
06
06
ENDCHAR
STARTCHAR 04AE
ENCODING 1198
SWIDTH 666 0
DWIDTH 8 0
BBX 7 9 0 0
BITMAP
C2
66
64
3C
38
18
18
18
18
ENDCHAR
STARTCHAR 04AF
ENCODING 1199
SWIDTH 583 0
DWIDTH 7 0
BBX 6 10 1 -3
BITMAP
8C
8C
C8
58
58
70
30
30
30
30
ENDCHAR
STARTCHAR 04B2
ENCODING 1202
SWIDTH 750 0
DWIDTH 9 0
BBX 8 11 1 -2
BITMAP
C6
CC
68
38
30
38
68
CC
C7
03
03
ENDCHAR
STARTCHAR 04B3
ENCODING 1203
SWIDTH 583 0
DWIDTH 7 0
BBX 7 9 0 -2
BITMAP
CC
48
78
30
78
48
CE
06
06
ENDCHAR
STARTCHAR 04B8
ENCODING 1208
SWIDTH 750 0
DWIDTH 9 0
BBX 7 9 1 0
BITMAP
C6
C6
F6
F6
FE
7E
36
06
06
ENDCHAR
STARTCHAR 04B9
ENCODING 1209
SWIDTH 666 0
DWIDTH 8 0
BBX 6 7 1 0
BITMAP
CC
CC
EC
EC
FC
2C
2C
ENDCHAR
STARTCHAR 04BA
ENCODING 1210
SWIDTH 666 0
DWIDTH 8 0
BBX 7 9 1 0
BITMAP
C0
C0
C0
FC
CC
C6
C6
C6
C6
ENDCHAR
STARTCHAR 04BB
ENCODING 1211
SWIDTH 583 0
DWIDTH 7 0
BBX 6 10 1 0
BITMAP
C0
C0
C0
F8
C8
CC
CC
CC
CC
CC
ENDCHAR
STARTCHAR 04C0
ENCODING 1216
SWIDTH 333 0
DWIDTH 4 0
BBX 2 9 1 0
BITMAP
C0
C0
C0
C0
C0
C0
C0
C0
C0
ENDCHAR
STARTCHAR 04CF
ENCODING 1231
SWIDTH 250 0
DWIDTH 3 0
BBX 2 10 1 0
BITMAP
C0
C0
C0
C0
C0
C0
C0
C0
C0
C0
ENDCHAR
STARTCHAR 04D8
ENCODING 1240
SWIDTH 750 0
DWIDTH 9 0
BBX 8 9 1 0
BITMAP
FC
86
02
02
FF
C2
C2
C6
7C
ENDCHAR
STARTCHAR 04D9
ENCODING 1241
SWIDTH 666 0
DWIDTH 8 0
BBX 6 7 1 0
BITMAP
F8
9C
0C
FC
CC
CC
78
ENDCHAR
STARTCHAR 04E8
ENCODING 1256
SWIDTH 750 0
DWIDTH 9 0
BBX 8 9 1 0
BITMAP
3C
66
C2
C2
FF
C3
C2
46
7C
ENDCHAR
STARTCHAR 04E9
ENCODING 1257
SWIDTH 666 0
DWIDTH 8 0
BBX 6 7 1 0
BITMAP
78
CC
CC
FC
CC
CC
78
ENDCHAR
STARTCHAR 1E80
ENCODING 7808
SWIDTH 916 0
DWIDTH 11 0
BBX 11 11 0 0
BITMAP
0C00
0000
C060
4660
4E40
6A40
6AC0
6BC0
3BC0
3180
3180
ENDCHAR
STARTCHAR 1E81
ENCODING 7809
SWIDTH 833 0
DWIDTH 10 0
BBX 10 10 0 0
BITMAP
1800
0C00
0000
CCC0
4CC0
4E80
7A80
7280
3380
3300
ENDCHAR
STARTCHAR 1E82
ENCODING 7810
SWIDTH 916 0
DWIDTH 11 0
BBX 11 11 0 0
BITMAP
0300
0600
C060
4660
4E40
6A40
6AC0
6BC0
3BC0
3180
3180
ENDCHAR
STARTCHAR 1E83
ENCODING 7811
SWIDTH 833 0
DWIDTH 10 0
BBX 10 10 0 0
BITMAP
0600
0400
0000
CCC0
4CC0
4E80
7A80
7280
3380
3300
ENDCHAR
STARTCHAR 1E84
ENCODING 7812
SWIDTH 916 0
DWIDTH 11 0
BBX 11 11 0 1
BITMAP
1B00
0000
C060
CC40
CE40
4EC0
5AC0
5AC0
7380
7380
3180
ENDCHAR
STARTCHAR 1E85
ENCODING 7813
SWIDTH 833 0
DWIDTH 10 0
BBX 10 10 0 0
BITMAP
1E00
0000
0000
CCC0
CCC0
5E80
5E80
7380
7380
3300
ENDCHAR
STARTCHAR 1E9E
ENCODING 7838
SWIDTH 750 0
DWIDTH 9 0
BBX 8 9 1 0
BITMAP
7E
D8
D8
D8
CE
C2
C3
C2
DE
ENDCHAR
STARTCHAR 1EF2
ENCODING 7922
SWIDTH 666 0
DWIDTH 8 0
BBX 7 11 0 0
BITMAP
30
00
C2
66
64
3C
38
18
18
18
18
ENDCHAR
STARTCHAR 1EF3
ENCODING 7923
SWIDTH 583 0
DWIDTH 7 0
BBX 7 13 0 -3
BITMAP
20
30
10
C6
44
64
6C
28
28
38
10
30
60
ENDCHAR
STARTCHAR 2010
ENCODING 8208
SWIDTH 500 0
DWIDTH 6 0
BBX 4 1 1 4
BITMAP
F0
ENDCHAR
STARTCHAR 2011
ENCODING 8209
SWIDTH 500 0
DWIDTH 6 0
BBX 4 1 1 4
BITMAP
F0
ENDCHAR
STARTCHAR 2013
ENCODING 8211
SWIDTH 500 0
DWIDTH 6 0
BBX 4 1 1 4
BITMAP
F0
ENDCHAR
STARTCHAR 2014
ENCODING 8212
SWIDTH 1000 0
DWIDTH 12 0
BBX 12 1 0 4
BITMAP
FFF0
ENDCHAR
STARTCHAR 2015
ENCODING 8213
SWIDTH 1000 0
DWIDTH 12 0
BBX 12 1 0 4
BITMAP
FFF0
ENDCHAR
STARTCHAR 2016
ENCODING 8214
SWIDTH 1000 0
DWIDTH 12 0
BBX 4 12 4 -2
BITMAP
F0
F0
F0
F0
F0
F0
F0
F0
F0
F0
F0
F0
ENDCHAR
STARTCHAR 2017
ENCODING 8215
SWIDTH 500 0
DWIDTH 6 0
BBX 6 3 0 -4
BITMAP
FC
00
FC
ENDCHAR
STARTCHAR 2018
ENCODING 8216
SWIDTH 333 0
DWIDTH 4 0
BBX 2 3 1 7
BITMAP
40
C0
C0
ENDCHAR
STARTCHAR 2019
ENCODING 8217
SWIDTH 250 0
DWIDTH 3 0
BBX 3 3 0 7
BITMAP
60
40
C0
ENDCHAR
STARTCHAR 201A
ENCODING 8218
SWIDTH 250 0
DWIDTH 3 0
BBX 2 3 0 -2
BITMAP
40
40
C0
ENDCHAR
STARTCHAR 201B
ENCODING 8219
SWIDTH 333 0
DWIDTH 4 0
BBX 2 3 1 7
BITMAP
C0
C0
40
ENDCHAR
STARTCHAR 201C
ENCODING 8220
SWIDTH 1000 0
DWIDTH 12 0
BBX 5 3 6 7
BITMAP
58
D0
F0
ENDCHAR
STARTCHAR 201D
ENCODING 8221
SWIDTH 1000 0
DWIDTH 12 0
BBX 5 3 1 7
BITMAP
58
58
D0
ENDCHAR
STARTCHAR 201E
ENCODING 8222
SWIDTH 500 0
DWIDTH 6 0
BBX 5 3 0 -2
BITMAP
58
58
D0
ENDCHAR
STARTCHAR 2020
ENCODING 8224
SWIDTH 583 0
DWIDTH 7 0
BBX 5 9 1 0
BITMAP
60
60
60
F8
60
60
60
60
60
ENDCHAR
STARTCHAR 2021
ENCODING 8225
SWIDTH 583 0
DWIDTH 7 0
BBX 5 9 1 0
BITMAP
60
60
F8
60
60
F8
60
60
60
ENDCHAR
STARTCHAR 2022
ENCODING 8226
SWIDTH 250 0
DWIDTH 3 0
BBX 3 3 0 2
BITMAP
E0
E0
E0
ENDCHAR
STARTCHAR 2025
ENCODING 8229
SWIDTH 1000 0
DWIDTH 12 0
BBX 7 2 3 4
BITMAP
C6
C6
ENDCHAR
STARTCHAR 2026
ENCODING 8230
SWIDTH 1000 0
DWIDTH 12 0
BBX 10 2 1 1
BITMAP
CCC0
CCC0
ENDCHAR
STARTCHAR 2030
ENCODING 8240
SWIDTH 1250 0
DWIDTH 15 0
BBX 13 9 1 0
BITMAP
E200
E400
F800
E800
7730
1578
2DF8
2578
0730
ENDCHAR
STARTCHAR 2032
ENCODING 8242
SWIDTH 250 0
DWIDTH 3 0
BBX 2 4 1 6
BITMAP
C0
80
80
80
ENDCHAR
STARTCHAR 2033
ENCODING 8243
SWIDTH 500 0
DWIDTH 6 0
BBX 5 4 1 6
BITMAP
D8
90
90
90
ENDCHAR
STARTCHAR 2034
ENCODING 8244
SWIDTH 666 0
DWIDTH 8 0
BBX 7 4 1 6
BITMAP
D6
94
94
94
ENDCHAR
STARTCHAR 2035
ENCODING 8245
SWIDTH 250 0
DWIDTH 3 0
BBX 2 4 0 6
BITMAP
C0
40
40
40
ENDCHAR
STARTCHAR 2036
ENCODING 8246
SWIDTH 500 0
DWIDTH 6 0
BBX 5 4 0 6
BITMAP
D8
48
48
48
ENDCHAR
STARTCHAR 2037
ENCODING 8247
SWIDTH 666 0
DWIDTH 8 0
BBX 7 4 0 6
BITMAP
DA
4A
4A
4A
ENDCHAR
STARTCHAR 2039
ENCODING 8249
SWIDTH 333 0
DWIDTH 4 0
BBX 2 4 1 1
BITMAP
C0
80
80
40
ENDCHAR
STARTCHAR 203A
ENCODING 8250
SWIDTH 333 0
DWIDTH 4 0
BBX 2 4 1 1
BITMAP
80
40
40
80
ENDCHAR
STARTCHAR 203B
ENCODING 8251
SWIDTH 1000 0
DWIDTH 12 0
BBX 10 9 1 -1
BITMAP
8C80
4180
2300
1600
CCC0
1600
2200
4100
8C80
ENDCHAR
STARTCHAR 203C
ENCODING 8252
SWIDTH 583 0
DWIDTH 7 0
BBX 5 9 1 0
BITMAP
D8
D8
D8
D8
D8
D8
00
D0
D8
ENDCHAR
STARTCHAR 203D
ENCODING 8253
SWIDTH 500 0
DWIDTH 6 0
BBX 5 9 1 0
BITMAP
F0
70
78
70
60
60
00
60
60
ENDCHAR
STARTCHAR 203E
ENCODING 8254
SWIDTH 500 0
DWIDTH 6 0
BBX 6 1 0 10
BITMAP
FC
ENDCHAR
STARTCHAR 2044
ENCODING 8260
SWIDTH 83 0
DWIDTH 1 0
BBX 5 9 -2 0
BITMAP
08
08
10
10
20
20
40
40
80
ENDCHAR
STARTCHAR 2070
ENCODING 8304
SWIDTH 416 0
DWIDTH 5 0
BBX 4 5 1 5
BITMAP
60
F0
F0
F0
F0
ENDCHAR
STARTCHAR 2074
ENCODING 8308
SWIDTH 416 0
DWIDTH 5 0
BBX 4 5 0 5
BITMAP
70
70
B0
F0
30
ENDCHAR
STARTCHAR 2075
ENCODING 8309
SWIDTH 416 0
DWIDTH 5 0
BBX 4 6 1 5
BITMAP
E0
80
E0
20
30
E0
ENDCHAR
STARTCHAR 2076
ENCODING 8310
SWIDTH 416 0
DWIDTH 5 0
BBX 4 6 1 5
BITMAP
60
C0
F0
F0
F0
F0
ENDCHAR
STARTCHAR 2077
ENCODING 8311
SWIDTH 500 0
DWIDTH 6 0
BBX 4 5 1 6
BITMAP
F0
10
20
20
40
ENDCHAR
STARTCHAR 2078
ENCODING 8312
SWIDTH 500 0
DWIDTH 6 0
BBX 4 5 1 5
BITMAP
F0
F0
60
F0
F0
ENDCHAR
STARTCHAR 2079
ENCODING 8313
SWIDTH 416 0
DWIDTH 5 0
BBX 4 5 1 5
BITMAP
E0
F0
F0
30
60
ENDCHAR
STARTCHAR 207A
ENCODING 8314
SWIDTH 500 0
DWIDTH 6 0
BBX 4 4 1 6
BITMAP
40
F0
40
40
ENDCHAR
STARTCHAR 207B
ENCODING 8315
SWIDTH 500 0
DWIDTH 6 0
BBX 4 1 1 7
BITMAP
F0
ENDCHAR
STARTCHAR 207C
ENCODING 8316
SWIDTH 500 0
DWIDTH 6 0
BBX 4 3 1 6
BITMAP
F0
00
F0
ENDCHAR
STARTCHAR 207D
ENCODING 8317
SWIDTH 333 0
DWIDTH 4 0
BBX 2 7 1 4
BITMAP
40
C0
C0
C0
C0
C0
40
ENDCHAR
STARTCHAR 207E
ENCODING 8318
SWIDTH 250 0
DWIDTH 3 0
BBX 3 7 0 4
BITMAP
80
40
40
60
40
40
80
ENDCHAR
STARTCHAR 207F
ENCODING 8319
SWIDTH 500 0
DWIDTH 6 0
BBX 4 4 1 5
BITMAP
F0
F0
F0
F0
ENDCHAR
STARTCHAR 2080
ENCODING 8320
SWIDTH 416 0
DWIDTH 5 0
BBX 4 5 1 -2
BITMAP
60
F0
F0
F0
F0
ENDCHAR
STARTCHAR 2081
ENCODING 8321
SWIDTH 416 0
DWIDTH 5 0
BBX 3 5 1 -2
BITMAP
E0
60
60
60
60
ENDCHAR
STARTCHAR 2082
ENCODING 8322
SWIDTH 500 0
DWIDTH 6 0
BBX 4 5 1 -2
BITMAP
F0
30
20
40
F0
ENDCHAR
STARTCHAR 2083
ENCODING 8323
SWIDTH 416 0
DWIDTH 5 0
BBX 4 5 1 -2
BITMAP
E0
30
C0
20
E0
ENDCHAR
STARTCHAR 2084
ENCODING 8324
SWIDTH 416 0
DWIDTH 5 0
BBX 4 5 0 -2
BITMAP
70
70
B0
F0
30
ENDCHAR
STARTCHAR 2085
ENCODING 8325
SWIDTH 416 0
DWIDTH 5 0
BBX 4 5 1 -2
BITMAP
E0
80
E0
30
E0
ENDCHAR
STARTCHAR 2086
ENCODING 8326
SWIDTH 416 0
DWIDTH 5 0
BBX 4 5 1 -2
BITMAP
60
C0
F0
F0
F0
ENDCHAR
STARTCHAR 2087
ENCODING 8327
SWIDTH 500 0
DWIDTH 6 0
BBX 4 5 1 -1
BITMAP
F0
10
20
20
40
ENDCHAR
STARTCHAR 2088
ENCODING 8328
SWIDTH 500 0
DWIDTH 6 0
BBX 4 5 1 -2
BITMAP
F0
F0
60
F0
F0
ENDCHAR
STARTCHAR 2089
ENCODING 8329
SWIDTH 416 0
DWIDTH 5 0
BBX 4 6 1 -2
BITMAP
60
F0
F0
F0
30
60
ENDCHAR
STARTCHAR 208A
ENCODING 8330
SWIDTH 500 0
DWIDTH 6 0
BBX 4 4 1 -1
BITMAP
40
F0
40
40
ENDCHAR
STARTCHAR 208B
ENCODING 8331
SWIDTH 500 0
DWIDTH 6 0
BBX 4 1 1 1
BITMAP
F0
ENDCHAR
STARTCHAR 208C
ENCODING 8332
SWIDTH 500 0
DWIDTH 6 0
BBX 4 3 1 0
BITMAP
F0
00
F0
ENDCHAR
STARTCHAR 208D
ENCODING 8333
SWIDTH 333 0
DWIDTH 4 0
BBX 2 7 1 -3
BITMAP
40
C0
C0
C0
C0
C0
40
ENDCHAR
STARTCHAR 208E
ENCODING 8334
SWIDTH 250 0
DWIDTH 3 0
BBX 3 7 0 -3
BITMAP
80
40
40
60
40
40
80
ENDCHAR
STARTCHAR 2099
ENCODING 8345
SWIDTH 500 0
DWIDTH 6 0
BBX 4 4 1 -1
BITMAP
F0
F0
F0
F0
ENDCHAR
STARTCHAR 20A1
ENCODING 8353
SWIDTH 666 0
DWIDTH 8 0
BBX 6 12 1 -1
BITMAP
18
3C
78
D8
D8
E8
E8
E8
68
7C
30
30
ENDCHAR
STARTCHAR 20A2
ENCODING 8354
SWIDTH 666 0
DWIDTH 8 0
BBX 6 9 1 0
BITMAP
3C
60
C0
DC
D8
D0
D0
74
3C
ENDCHAR
STARTCHAR 20A3
ENCODING 8355
SWIDTH 500 0
DWIDTH 6 0
BBX 6 9 0 0
BITMAP
7C
60
60
60
7C
60
F0
60
60
ENDCHAR
STARTCHAR 20A4
ENCODING 8356
SWIDTH 666 0
DWIDTH 8 0
BBX 6 9 1 0
BITMAP
38
60
60
F8
60
F8
60
60
7C
ENDCHAR
STARTCHAR 20A5
ENCODING 8357
SWIDTH 916 0
DWIDTH 11 0
BBX 10 11 1 -2
BITMAP
0300
0200
FF80
CC80
CCC0
CCC0
DCC0
DCC0
FCC0
2000
6000
ENDCHAR
STARTCHAR 20A6
ENCODING 8358
SWIDTH 583 0
DWIDTH 7 0
BBX 7 9 0 0
BITMAP
66
76
76
FE
76
FE
6E
6E
6E
ENDCHAR
STARTCHAR 20A7
ENCODING 8359
SWIDTH 583 0
DWIDTH 7 0
BBX 7 9 0 0
BITMAP
78
58
4C
FE
4C
78
40
40
40
ENDCHAR
STARTCHAR 20A8
ENCODING 8360
SWIDTH 1166 0
DWIDTH 14 0
BBX 12 9 1 0
BITMAP
F800
CC00
CCF0
CC80
F8C0
D870
D830
CC30
C6E0
ENDCHAR
STARTCHAR 20A9
ENCODING 8361
SWIDTH 750 0
DWIDTH 9 0
BBX 9 9 0 0
BITMAP
C980
DD80
5500
FF80
5500
FF80
5500
7700
6300
ENDCHAR
STARTCHAR 20AA
ENCODING 8362
SWIDTH 833 0
DWIDTH 10 0
BBX 8 9 1 0
BITMAP
FB
CF
CF
FF
FF
FF
FF
F3
FE
ENDCHAR
STARTCHAR 20AB
ENCODING 8363
SWIDTH 666 0
DWIDTH 8 0
BBX 7 12 1 -3
BITMAP
0C
1E
0C
7C
CC
CC
CC
CC
CC
74
00
FC
ENDCHAR
STARTCHAR 20AC
ENCODING 8364
SWIDTH 583 0
DWIDTH 7 0
BBX 6 9 0 0
BITMAP
3C
30
60
F8
60
F8
60
60
3C
ENDCHAR
STARTCHAR 20AD
ENCODING 8365
SWIDTH 583 0
DWIDTH 7 0
BBX 7 9 0 0
BITMAP
66
6C
6C
78
FE
78
68
6C
66
ENDCHAR
STARTCHAR 20AE
ENCODING 8366
SWIDTH 500 0
DWIDTH 6 0
BBX 6 9 0 0
BITMAP
FC
30
38
30
70
38
70
30
30
ENDCHAR
STARTCHAR 20AF
ENCODING 8367
SWIDTH 1250 0
DWIDTH 15 0
BBX 15 12 0 -3
BITMAP
7C00
E600
623C
4364
4346
4244
C644
CCCC
F8F8
0080
0080
0080
ENDCHAR
STARTCHAR 20B0
ENCODING 8368
SWIDTH 1000 0
DWIDTH 12 0
BBX 10 11 1 -3
BITMAP
F8C0
D980
CD80
CD80
CBC0
F980
C180
C180
C180
0100
0300
ENDCHAR
STARTCHAR 20B1
ENCODING 8369
SWIDTH 583 0
DWIDTH 7 0
BBX 7 9 0 0
BITMAP
78
6C
FE
6C
FE
6C
78
60
60
ENDCHAR
STARTCHAR 20B2
ENCODING 8370
SWIDTH 666 0
DWIDTH 8 0
BBX 7 12 1 -2
BITMAP
10
3C
70
D0
D0
DE
D6
D6
76
3E
10
10
ENDCHAR
STARTCHAR 20B3
ENCODING 8371
SWIDTH 666 0
DWIDTH 8 0
BBX 8 9 0 0
BITMAP
18
3C
3C
24
FF
66
FF
42
C3
ENDCHAR
STARTCHAR 20B4
ENCODING 8372
SWIDTH 583 0
DWIDTH 7 0
BBX 7 9 0 0
BITMAP
78
0C
0C
FE
38
FE
40
40
7C
ENDCHAR
STARTCHAR 20B5
ENCODING 8373
SWIDTH 583 0
DWIDTH 7 0
BBX 6 12 1 -2
BITMAP
10
3C
70
D0
D0
D0
D0
D0
70
7C
10
10
ENDCHAR
STARTCHAR 20B6
ENCODING 8374
SWIDTH 583 0
DWIDTH 7 0
BBX 7 9 0 0
BITMAP
6C
6C
FE
6C
6C
6C
6C
6C
6E
ENDCHAR
STARTCHAR 20B7
ENCODING 8375
SWIDTH 750 0
DWIDTH 9 0
BBX 8 11 0 -2
BITMAP
1E
10
10
18
1E
03
FF
7F
3E
3C
3C
ENDCHAR
STARTCHAR 20B8
ENCODING 8376
SWIDTH 500 0
DWIDTH 6 0
BBX 6 9 0 0
BITMAP
FC
00
FC
30
30
30
30
30
30
ENDCHAR
STARTCHAR 20B9
ENCODING 8377
SWIDTH 583 0
DWIDTH 7 0
BBX 5 9 1 0
BITMAP
F8
30
F8
30
30
E0
C0
60
30
ENDCHAR
STARTCHAR 20BA
ENCODING 8378
SWIDTH 583 0
DWIDTH 7 0
BBX 7 9 0 0
BITMAP
60
60
60
F0
60
E6
64
6C
78
ENDCHAR
STARTCHAR 20BB
ENCODING 8379
SWIDTH 833 0
DWIDTH 10 0
BBX 9 9 0 0
BITMAP
E000
E000
FF00
3180
3B80
3780
3000
1800
1E00
ENDCHAR
STARTCHAR 20BC
ENCODING 8380
SWIDTH 750 0
DWIDTH 9 0
BBX 8 9 1 0
BITMAP
18
18
3C
7E
DA
DA
DB
DB
C3
ENDCHAR
STARTCHAR 20BD
ENCODING 8381
SWIDTH 583 0
DWIDTH 7 0
BBX 7 9 0 0
BITMAP
7C
64
66
64
FC
60
F8
60
60
ENDCHAR
STARTCHAR 20BE
ENCODING 8382
SWIDTH 666 0
DWIDTH 8 0
BBX 6 10 1 0
BITMAP
30
78
FC
FC
FC
C0
C0
40
60
FC
ENDCHAR
STARTCHAR 20BF
ENCODING 8383
SWIDTH 583 0
DWIDTH 7 0
BBX 6 12 1 -2
BITMAP
50
F8
88
8C
88
F0
88
8C
88
F8
50
50
ENDCHAR
STARTCHAR 2103
ENCODING 8451
SWIDTH 1000 0
DWIDTH 12 0
BBX 11 9 0 0
BITMAP
71E0
D300
DE00
7600
0600
0600
0600
0300
01E0
ENDCHAR
STARTCHAR 2105
ENCODING 8453
SWIDTH 916 0
DWIDTH 11 0
BBX 9 9 1 0
BITMAP
6200
C400
C400
C800
6F00
1580
1D80
2580
2700
ENDCHAR
STARTCHAR 2109
ENCODING 8457
SWIDTH 916 0
DWIDTH 11 0
BBX 10 9 0 0
BITMAP
77C0
D600
DE00
7600
07C0
0600
0600
0600
0600
ENDCHAR
STARTCHAR 2113
ENCODING 8467
SWIDTH 416 0
DWIDTH 5 0
BBX 4 9 1 0
BITMAP
70
70
70
60
60
C0
C0
40
70
ENDCHAR
STARTCHAR 2116
ENCODING 8470
SWIDTH 1250 0
DWIDTH 15 0
BBX 13 9 1 0
BITMAP
E600
E600
E6F0
F698
D798
DE98
CEF0
CE00
C6F0
ENDCHAR
STARTCHAR 2117
ENCODING 8471
SWIDTH 916 0
DWIDTH 11 0
BBX 9 9 1 0
BITMAP
3E00
6300
FF80
F780
FF80
F180
F180
7300
3E00
ENDCHAR
STARTCHAR 2121
ENCODING 8481
SWIDTH 1000 0
DWIDTH 12 0
BBX 12 5 0 3
BITMAP
F740
6440
6740
6440
6770
ENDCHAR
STARTCHAR 2122
ENCODING 8482
SWIDTH 916 0
DWIDTH 11 0
BBX 11 5 0 4
BITMAP
FEE0
6EE0
6EE0
6D60
6C60
ENDCHAR
STARTCHAR 2126
ENCODING 8486
SWIDTH 750 0
DWIDTH 9 0
BBX 8 9 1 0
BITMAP
3C
66
C2
C3
C3
C2
46
6C
EF
ENDCHAR
STARTCHAR 212E
ENCODING 8494
SWIDTH 916 0
DWIDTH 11 0
BBX 9 9 1 0
BITMAP
3E00
6300
C100
C180
FF80
C000
C000
6300
3E00
ENDCHAR
STARTCHAR 215B
ENCODING 8539
SWIDTH 916 0
DWIDTH 11 0
BBX 9 9 1 0
BITMAP
E400
6400
6800
6800
7F80
1D80
3300
2580
2780
ENDCHAR
STARTCHAR 215C
ENCODING 8540
SWIDTH 1000 0
DWIDTH 12 0
BBX 10 9 1 0
BITMAP
E200
3600
C400
2F80
EEC0
1AC0
1180
32C0
23C0
ENDCHAR
STARTCHAR 215D
ENCODING 8541
SWIDTH 1000 0
DWIDTH 12 0
BBX 10 9 1 0
BITMAP
E100
8200
E600
35C0
EB40
1B40
1180
3340
23C0
ENDCHAR
STARTCHAR 215E
ENCODING 8542
SWIDTH 916 0
DWIDTH 11 0
BBX 9 9 1 0
BITMAP
F000
1200
2400
2400
4B80
4B80
1100
3380
2380
ENDCHAR
STARTCHAR 2160
ENCODING 8544
SWIDTH 1000 0
DWIDTH 12 0
BBX 2 9 5 0
BITMAP
C0
C0
C0
C0
C0
C0
C0
C0
C0
ENDCHAR
STARTCHAR 2161
ENCODING 8545
SWIDTH 1000 0
DWIDTH 12 0
BBX 6 9 3 0
BITMAP
CC
CC
CC
CC
CC
CC
CC
CC
CC
ENDCHAR
STARTCHAR 2162
ENCODING 8546
SWIDTH 916 0
DWIDTH 11 0
BBX 8 9 1 0
BITMAP
D9
D9
D9
D9
D9
D9
D9
D9
D9
ENDCHAR
STARTCHAR 2163
ENCODING 8547
SWIDTH 1000 0
DWIDTH 12 0
BBX 10 9 1 0
BITMAP
D840
D8C0
D8C0
C880
CD80
CD80
C500
C700
C700
ENDCHAR
STARTCHAR 2164
ENCODING 8548
SWIDTH 1000 0
DWIDTH 12 0
BBX 8 9 2 0
BITMAP
C3
42
66
66
64
2C
3C
38
18
ENDCHAR
STARTCHAR 2165
ENCODING 8549
SWIDTH 916 0
DWIDTH 11 0
BBX 11 9 0 0
BITMAP
C360
4260
6260
6660
2660
3460
3C60
1C60
1860
ENDCHAR
STARTCHAR 2166
ENCODING 8550
SWIDTH 1000 0
DWIDTH 12 0
BBX 11 9 1 0
BITMAP
85E0
85E0
CDE0
49E0
49E0
79E0
79E0
31E0
31E0
ENDCHAR
STARTCHAR 2167
ENCODING 8551
SWIDTH 1083 0
DWIDTH 13 0
BBX 11 9 1 0
BITMAP
8FE0
8BE0
8BE0
DBE0
5BE0
53E0
53E0
73E0
23E0
ENDCHAR
STARTCHAR 2168
ENCODING 8552
SWIDTH 1000 0
DWIDTH 12 0
BBX 10 9 1 0
BITMAP
D8C0
D980
CD00
C700
C600
CF00
CD80
D980
D8C0
ENDCHAR
STARTCHAR 2169
ENCODING 8553
SWIDTH 1000 0
DWIDTH 12 0
BBX 7 9 2 0
BITMAP
46
66
3C
3C
18
3C
3C
66
C6
ENDCHAR
STARTCHAR 216A
ENCODING 8554
SWIDTH 916 0
DWIDTH 11 0
BBX 10 9 1 0
BITMAP
C6C0
6CC0
6CC0
38C0
38C0
38C0
6CC0
CCC0
C6C0
ENDCHAR
STARTCHAR 216B
ENCODING 8555
SWIDTH 1000 0
DWIDTH 12 0
BBX 11 9 1 0
BITMAP
C5E0
4DE0
69E0
39E0
31E0
39E0
69E0
4DE0
C5E0
ENDCHAR
STARTCHAR 2170
ENCODING 8560
SWIDTH 1000 0
DWIDTH 12 0
BBX 2 10 5 0
BITMAP
C0
00
00
C0
C0
C0
C0
C0
C0
C0
ENDCHAR
STARTCHAR 2171
ENCODING 8561
SWIDTH 1000 0
DWIDTH 12 0
BBX 6 10 3 0
BITMAP
CC
00
00
CC
CC
CC
CC
CC
CC
CC
ENDCHAR
STARTCHAR 2172
ENCODING 8562
SWIDTH 1000 0
DWIDTH 12 0
BBX 8 10 2 0
BITMAP
D9
00
00
D9
D9
D9
D9
D9
D9
D9
ENDCHAR
STARTCHAR 2173
ENCODING 8563
SWIDTH 916 0
DWIDTH 11 0
BBX 9 10 1 0
BITMAP
C000
0000
0000
D180
D980
D900
CB00
CF00
CE00
C600
ENDCHAR
STARTCHAR 2174
ENCODING 8564
SWIDTH 1000 0
DWIDTH 12 0
BBX 6 7 3 0
BITMAP
8C
CC
C8
58
78
70
30
ENDCHAR
STARTCHAR 2175
ENCODING 8565
SWIDTH 1000 0
DWIDTH 12 0
BBX 10 10 1 0
BITMAP
00C0
0000
0000
C6C0
44C0
6CC0
6CC0
28C0
38C0
38C0
ENDCHAR
STARTCHAR 2176
ENCODING 8566
SWIDTH 1000 0
DWIDTH 12 0
BBX 10 10 1 0
BITMAP
03C0
0000
0000
8BC0
9BC0
DBC0
D3C0
53C0
73C0
63C0
ENDCHAR
STARTCHAR 2177
ENCODING 8567
SWIDTH 1000 0
DWIDTH 12 0
BBX 12 10 0 0
BITMAP
03F0
0000
0000
CFF0
CBF0
4BF0
5BF0
73F0
33F0
33F0
ENDCHAR
STARTCHAR 2178
ENCODING 8568
SWIDTH 916 0
DWIDTH 11 0
BBX 9 10 1 0
BITMAP
C000
0000
0000
D980
DB00
CA00
C600
CA00
DB00
D180
ENDCHAR
STARTCHAR 2179
ENCODING 8569
SWIDTH 1000 0
DWIDTH 12 0
BBX 6 7 3 0
BITMAP
CC
48
78
30
78
48
CC
ENDCHAR
STARTCHAR 2190
ENCODING 8592
SWIDTH 1000 0
DWIDTH 12 0
BBX 10 7 1 0
BITMAP
1000
3000
6000
FFC0
4000
2000
1000
ENDCHAR
STARTCHAR 2191
ENCODING 8593
SWIDTH 916 0
DWIDTH 11 0
BBX 7 11 2 -1
BITMAP
10
38
7C
D6
92
10
10
10
10
10
10
ENDCHAR
STARTCHAR 2192
ENCODING 8594
SWIDTH 1000 0
DWIDTH 12 0
BBX 10 7 1 1
BITMAP
0200
0100
0180
FFC0
0080
0100
0200
ENDCHAR
STARTCHAR 2193
ENCODING 8595
SWIDTH 916 0
DWIDTH 11 0
BBX 7 11 2 -1
BITMAP
10
10
10
10
10
10
92
D6
7C
38
10
ENDCHAR
STARTCHAR 2196
ENCODING 8598
SWIDTH 1000 0
DWIDTH 12 0
BBX 8 8 2 0
BITMAP
FC
E0
F0
D8
CC
46
03
01
ENDCHAR
STARTCHAR 2197
ENCODING 8599
SWIDTH 1083 0
DWIDTH 13 0
BBX 8 8 3 0
BITMAP
3F
07
0F
1B
33
62
C0
80
ENDCHAR
STARTCHAR 2198
ENCODING 8600
SWIDTH 1083 0
DWIDTH 13 0
BBX 8 8 3 0
BITMAP
80
C0
62
33
1B
0F
07
3F
ENDCHAR
STARTCHAR 2199
ENCODING 8601
SWIDTH 1000 0
DWIDTH 12 0
BBX 8 7 2 1
BITMAP
03
46
CC
D8
F0
E0
FC
ENDCHAR
STARTCHAR 2202
ENCODING 8706
SWIDTH 583 0
DWIDTH 7 0
BBX 6 10 1 0
BITMAP
70
58
08
08
7C
DC
C8
C8
D8
70
ENDCHAR
STARTCHAR 2206
ENCODING 8710
SWIDTH 750 0
DWIDTH 9 0
BBX 7 9 1 0
BITMAP
38
28
28
6C
6C
44
C6
C6
FE
ENDCHAR
STARTCHAR 2208
ENCODING 8712
SWIDTH 750 0
DWIDTH 9 0
BBX 7 8 1 1
BITMAP
3E
60
C0
C0
FE
C0
40
3E
ENDCHAR
STARTCHAR 220F
ENCODING 8719
SWIDTH 750 0
DWIDTH 9 0
BBX 9 12 0 -3
BITMAP
FF80
6300
6300
6300
6300
6300
6300
6300
6300
6300
6300
6300
ENDCHAR
STARTCHAR 2211
ENCODING 8721
SWIDTH 666 0
DWIDTH 8 0
BBX 6 12 1 -3
BITMAP
FC
C0
60
60
30
30
30
30
60
40
C0
FC
ENDCHAR
STARTCHAR 2212
ENCODING 8722
SWIDTH 500 0
DWIDTH 6 0
BBX 6 1 0 3
BITMAP
FC
ENDCHAR
STARTCHAR 2215
ENCODING 8725
SWIDTH 583 0
DWIDTH 7 0
BBX 6 10 0 0
BITMAP
04
04
08
08
10
30
20
60
40
C0
ENDCHAR
STARTCHAR 2219
ENCODING 8729
SWIDTH 500 0
DWIDTH 6 0
BBX 2 2 2 4
BITMAP
C0
C0
ENDCHAR
STARTCHAR 221A
ENCODING 8730
SWIDTH 666 0
DWIDTH 8 0
BBX 7 12 0 -3
BITMAP
02
06
06
04
04
04
EC
6C
28
38
18
18
ENDCHAR
STARTCHAR 221D
ENCODING 8733
SWIDTH 1000 0
DWIDTH 12 0
BBX 7 4 2 1
BITMAP
66
DC
D8
F6
ENDCHAR
STARTCHAR 221E
ENCODING 8734
SWIDTH 666 0
DWIDTH 8 0
BBX 8 4 0 1
BITMAP
66
DB
DB
E7
ENDCHAR
STARTCHAR 221F
ENCODING 8735
SWIDTH 1000 0
DWIDTH 12 0
BBX 8 6 2 1
BITMAP
80
80
80
80
80
FF
ENDCHAR
STARTCHAR 2220
ENCODING 8736
SWIDTH 1000 0
DWIDTH 12 0
BBX 8 8 2 1
BITMAP
04
0C
18
30
20
60
C0
FF
ENDCHAR
STARTCHAR 2223
ENCODING 8739
SWIDTH 1000 0
DWIDTH 12 0
BBX 2 13 5 -3
BITMAP
C0
C0
C0
C0
C0
C0
C0
C0
C0
C0
C0
C0
C0
ENDCHAR
STARTCHAR 2225
ENCODING 8741
SWIDTH 1000 0
DWIDTH 12 0
BBX 10 11 1 -1
BITMAP
06C0
0480
0D80
0900
1B00
1200
3600
2400
6C00
4800
D800
ENDCHAR
STARTCHAR 2227
ENCODING 8743
SWIDTH 666 0
DWIDTH 8 0
BBX 8 9 0 0
BITMAP
18
1C
3C
3C
24
66
66
42
C3
ENDCHAR
STARTCHAR 2228
ENCODING 8744
SWIDTH 666 0
DWIDTH 8 0
BBX 8 9 0 0
BITMAP
C3
42
66
66
24
34
3C
18
18
ENDCHAR
STARTCHAR 2229
ENCODING 8745
SWIDTH 1000 0
DWIDTH 12 0
BBX 7 9 3 -1
BITMAP
78
CC
C6
C6
C6
C6
C6
C6
C6
ENDCHAR
STARTCHAR 222A
ENCODING 8746
SWIDTH 1000 0
DWIDTH 12 0
BBX 7 9 3 0
BITMAP
C6
C6
C6
C6
C6
C6
C6
CC
78
ENDCHAR
STARTCHAR 222B
ENCODING 8747
SWIDTH 500 0
DWIDTH 6 0
BBX 4 13 1 -3
BITMAP
30
70
60
60
60
60
60
60
60
60
60
40
C0
ENDCHAR
STARTCHAR 222E
ENCODING 8750
SWIDTH 750 0
DWIDTH 9 0
BBX 7 13 1 -3
BITMAP
18
38
30
30
78
F4
F6
F4
7C
30
30
20
20
ENDCHAR
STARTCHAR 2234
ENCODING 8756
SWIDTH 1000 0
DWIDTH 12 0
BBX 8 9 2 0
BITMAP
18
18
00
00
00
00
00
C3
C3
ENDCHAR
STARTCHAR 2235
ENCODING 8757
SWIDTH 1000 0
DWIDTH 12 0
BBX 8 9 2 0
BITMAP
C3
C3
00
00
00
00
00
18
18
ENDCHAR
STARTCHAR 2236
ENCODING 8758
SWIDTH 1000 0
DWIDTH 12 0
BBX 2 9 5 0
BITMAP
C0
C0
00
00
00
00
00
C0
C0
ENDCHAR
STARTCHAR 2237
ENCODING 8759
SWIDTH 1000 0
DWIDTH 12 0
BBX 8 9 2 0
BITMAP
C3
C3
00
00
00
00
00
C3
C3
ENDCHAR
STARTCHAR 223D
ENCODING 8765
SWIDTH 1000 0
DWIDTH 12 0
BBX 9 3 1 2
BITMAP
C700
CD80
7880
ENDCHAR
STARTCHAR 2248
ENCODING 8776
SWIDTH 583 0
DWIDTH 7 0
BBX 6 5 0 1
BITMAP
64
9C
00
E4
9C
ENDCHAR
STARTCHAR 224C
ENCODING 8780
SWIDTH 1000 0
DWIDTH 12 0
BBX 6 6 3 1
BITMAP
E4
9C
00
FC
00
FC
ENDCHAR
STARTCHAR 2252
ENCODING 8786
SWIDTH 750 0
DWIDTH 9 0
BBX 7 10 1 -1
BITMAP
C0
C0
00
FE
00
00
FE
00
06
06
ENDCHAR
STARTCHAR 2260
ENCODING 8800
SWIDTH 500 0
DWIDTH 6 0
BBX 6 6 0 1
BITMAP
08
FC
10
30
FC
40
ENDCHAR
STARTCHAR 2261
ENCODING 8801
SWIDTH 916 0
DWIDTH 11 0
BBX 7 6 2 1
BITMAP
FE
00
FE
00
00
FE
ENDCHAR
STARTCHAR 2264
ENCODING 8804
SWIDTH 500 0
DWIDTH 6 0
BBX 6 8 0 1
BITMAP
0C
38
E0
C0
78
0C
00
FC
ENDCHAR
STARTCHAR 2265
ENCODING 8805
SWIDTH 500 0
DWIDTH 6 0
BBX 6 8 0 1
BITMAP
C0
70
1C
0C
78
C0
00
FC
ENDCHAR
STARTCHAR 2266
ENCODING 8806
SWIDTH 500 0
DWIDTH 6 0
BBX 6 8 0 1
BITMAP
3C
E0
E0
3C
00
FC
00
FC
ENDCHAR
STARTCHAR 2267
ENCODING 8807
SWIDTH 500 0
DWIDTH 6 0
BBX 6 8 0 1
BITMAP
F0
1C
1C
F0
00
FC
00
FC
ENDCHAR
STARTCHAR 226E
ENCODING 8814
SWIDTH 1000 0
DWIDTH 12 0
BBX 6 8 3 0
BITMAP
18
1C
38
F0
B0
70
3C
24
ENDCHAR
STARTCHAR 226F
ENCODING 8815
SWIDTH 1000 0
DWIDTH 12 0
BBX 6 8 3 0
BITMAP
60
E0
70
3C
34
38
F0
90
ENDCHAR
STARTCHAR 2295
ENCODING 8853
SWIDTH 1000 0
DWIDTH 12 0
BBX 12 12 0 -2
BITMAP
1F00
31C0
6060
CC60
CC20
CC30
FF30
CC20
CC20
6060
30C0
1F80
ENDCHAR
STARTCHAR 2299
ENCODING 8857
SWIDTH 1000 0
DWIDTH 12 0
BBX 12 12 0 -2
BITMAP
1F00
31C0
6060
C060
C020
CC30
CC30
CC20
C020
6060
30C0
1F80
ENDCHAR
STARTCHAR 22A5
ENCODING 8869
SWIDTH 1000 0
DWIDTH 12 0
BBX 8 9 2 0
BITMAP
18
18
18
18
18
18
18
18
FF
ENDCHAR
STARTCHAR 22BF
ENCODING 8895
SWIDTH 1000 0
DWIDTH 12 0
BBX 9 9 2 0
BITMAP
0180
0380
0780
0D80
1980
3180
6180
C180
FF80
ENDCHAR
STARTCHAR 2312
ENCODING 8978
SWIDTH 916 0
DWIDTH 11 0
BBX 11 3 0 4
BITMAP
3F80
61C0
8020
ENDCHAR
STARTCHAR 2460
ENCODING 9312
SWIDTH 1000 0
DWIDTH 12 0
BBX 12 12 0 -2
BITMAP
1F00
31C0
6060
DE60
D620
C630
C630
C620
C620
6660
30C0
1F80
ENDCHAR
STARTCHAR 2461
ENCODING 9313
SWIDTH 1000 0
DWIDTH 12 0
BBX 12 12 0 -2
BITMAP
1F00
31C0
6060
DE60
C220
C330
C630
C420
C820
7F60
30C0
1F80
ENDCHAR
STARTCHAR 2462
ENCODING 9314
SWIDTH 1000 0
DWIDTH 12 0
BBX 12 12 0 -2
BITMAP
1F00
31C0
6060
DE60
C320
C230
CC30
C220
C320
7E60
30C0
1F80
ENDCHAR
STARTCHAR 2463
ENCODING 9315
SWIDTH 1000 0
DWIDTH 12 0
BBX 12 12 0 -2
BITMAP
1F00
31C0
6060
C660
CE20
CE30
D630
DF20
C620
6660
30C0
1F80
ENDCHAR
STARTCHAR 2464
ENCODING 9316
SWIDTH 1000 0
DWIDTH 12 0
BBX 12 12 0 -2
BITMAP
1F00
31C0
6060
CE60
C820
CE30
C330
C320
C320
6E60
30C0
1F80
ENDCHAR
STARTCHAR 2465
ENCODING 9317
SWIDTH 1000 0
DWIDTH 12 0
BBX 12 12 0 -2
BITMAP
1F00
31C0
6060
C660
CC20
DE30
DB30
DB20
DB20
6E60
30C0
1F80
ENDCHAR
STARTCHAR 2466
ENCODING 9318
SWIDTH 1000 0
DWIDTH 12 0
BBX 12 12 0 -2
BITMAP
1F00
31C0
6060
CF60
C120
C330
C230
C220
C420
6460
30C0
1F80
ENDCHAR
STARTCHAR 2467
ENCODING 9319
SWIDTH 1000 0
DWIDTH 12 0
BBX 12 12 0 -2
BITMAP
1F00
31C0
6060
CE60
DB20
DA30
CC30
DA20
DB20
7E60
30C0
1F80
ENDCHAR
STARTCHAR 2468
ENCODING 9320
SWIDTH 1000 0
DWIDTH 12 0
BBX 12 12 0 -2
BITMAP
1F00
31C0
6060
CE60
DB20
DB30
DF30
C320
C220
6E60
30C0
1F80
ENDCHAR
STARTCHAR 2469
ENCODING 9321
SWIDTH 1000 0
DWIDTH 12 0
BBX 12 12 0 -2
BITMAP
1F00
31C0
6060
FF60
FDA0
DDB0
DDB0
DDA0
DDA0
7F60
30C0
1F80
ENDCHAR
STARTCHAR 2474
ENCODING 9332
SWIDTH 1000 0
DWIDTH 12 0
BBX 12 11 0 -1
BITMAP
4040
4C60
8C20
8420
8420
8430
8430
8420
8420
4460
4040
ENDCHAR
STARTCHAR 2475
ENCODING 9333
SWIDTH 1000 0
DWIDTH 12 0
BBX 12 11 0 -1
BITMAP
4040
4E60
8320
8120
8320
8230
8630
8C20
9820
5F60
4040
ENDCHAR
STARTCHAR 2476
ENCODING 9334
SWIDTH 1000 0
DWIDTH 12 0
BBX 12 11 0 -1
BITMAP
4040
4E60
8320
8120
8320
8E30
8330
8120
8320
4E60
4040
ENDCHAR
STARTCHAR 2477
ENCODING 9335
SWIDTH 1000 0
DWIDTH 12 0
BBX 12 11 0 -1
BITMAP
4040
4260
8620
8620
8A20
8A30
9230
9F20
8220
4260
4040
ENDCHAR
STARTCHAR 2478
ENCODING 9336
SWIDTH 1000 0
DWIDTH 12 0
BBX 12 11 0 -1
BITMAP
4040
4F60
8820
8820
8E20
8F30
8330
8120
8320
4E60
4040
ENDCHAR
STARTCHAR 2479
ENCODING 9337
SWIDTH 1000 0
DWIDTH 12 0
BBX 12 11 0 -1
BITMAP
4040
4660
8C20
8820
9620
9930
9130
9120
8920
4E60
4040
ENDCHAR
STARTCHAR 247A
ENCODING 9338
SWIDTH 1000 0
DWIDTH 12 0
BBX 12 11 0 -1
BITMAP
4040
5F20
C120
C330
C230
C630
C430
C430
CC20
4820
4040
ENDCHAR
STARTCHAR 247B
ENCODING 9339
SWIDTH 1000 0
DWIDTH 12 0
BBX 12 11 0 -1
BITMAP
4040
4E60
9120
9120
9120
8E30
9130
9120
9120
4E60
4040
ENDCHAR
STARTCHAR 247C
ENCODING 9340
SWIDTH 1000 0
DWIDTH 12 0
BBX 12 11 0 -1
BITMAP
4040
4E60
8920
9120
9120
9130
8F30
8120
8220
4C60
4040
ENDCHAR
STARTCHAR 247D
ENCODING 9341
SWIDTH 1000 0
DWIDTH 12 0
BBX 12 11 0 -1
BITMAP
4040
7360
B6A0
94A0
94A0
94B0
94B0
94A0
96A0
5360
4040
ENDCHAR
STARTCHAR 247E
ENCODING 9342
SWIDTH 1000 0
DWIDTH 12 0
BBX 12 11 0 -1
BITMAP
4040
5B60
CB20
8920
8920
8930
8930
8920
C920
4960
4040
ENDCHAR
STARTCHAR 247F
ENCODING 9343
SWIDTH 1000 0
DWIDTH 12 0
BBX 12 11 0 -1
BITMAP
4040
7760
B1A0
91A0
91A0
9130
9330
9220
9620
57E0
4040
ENDCHAR
STARTCHAR 2480
ENCODING 9344
SWIDTH 1000 0
DWIDTH 12 0
BBX 12 11 0 -1
BITMAP
4040
7760
B1A0
91A0
9120
9330
9130
91A0
9120
5760
4040
ENDCHAR
STARTCHAR 2481
ENCODING 9345
SWIDTH 1000 0
DWIDTH 12 0
BBX 12 11 0 -1
BITMAP
4040
7160
B320
9320
9320
9530
9530
97A0
9120
5160
4040
ENDCHAR
STARTCHAR 2482
ENCODING 9346
SWIDTH 1000 0
DWIDTH 12 0
BBX 12 11 0 -1
BITMAP
4040
7BE0
9A20
9A20
9B20
9BB0
98B0
98A0
98A0
5B60
4040
ENDCHAR
STARTCHAR 2483
ENCODING 9347
SWIDTH 916 0
DWIDTH 11 0
BBX 11 11 0 -1
BITMAP
4040
71C0
B220
9620
9520
96A0
94A0
94A0
96A0
5340
4040
ENDCHAR
STARTCHAR 2484
ENCODING 9348
SWIDTH 1000 0
DWIDTH 12 0
BBX 12 11 0 -1
BITMAP
4040
77E0
90A0
9120
9120
9130
9330
9220
9220
5260
4040
ENDCHAR
STARTCHAR 2485
ENCODING 9349
SWIDTH 1000 0
DWIDTH 12 0
BBX 12 11 0 -1
BITMAP
4040
7360
B6A0
94A0
96A0
9330
94B0
94A0
94A0
5360
4040
ENDCHAR
STARTCHAR 2486
ENCODING 9350
SWIDTH 916 0
DWIDTH 11 0
BBX 11 11 0 -1
BITMAP
4040
7740
B740
95A0
95A0
97A0
97A0
9120
9120
5240
4040
ENDCHAR
STARTCHAR 2487
ENCODING 9351
SWIDTH 1000 0
DWIDTH 12 0
BBX 12 11 0 -1
BITMAP
4040
7BA0
C6A0
C670
C670
CA70
CA70
D270
E2B0
7FA0
4040
ENDCHAR
STARTCHAR 2488
ENCODING 9352
SWIDTH 1000 0
DWIDTH 12 0
BBX 10 9 2 0
BITMAP
F000
B000
3000
3000
3000
3000
3000
30C0
30C0
ENDCHAR
STARTCHAR 2489
ENCODING 9353
SWIDTH 1000 0
DWIDTH 12 0
BBX 9 9 2 0
BITMAP
F000
1000
1800
1000
3000
2000
6000
C180
F980
ENDCHAR
STARTCHAR 248A
ENCODING 9354
SWIDTH 1000 0
DWIDTH 12 0
BBX 9 9 2 0
BITMAP
F000
1000
1800
1000
6000
1000
1800
1180
F180
ENDCHAR
STARTCHAR 248B
ENCODING 9355
SWIDTH 1000 0
DWIDTH 12 0
BBX 10 9 2 0
BITMAP
3800
3800
7800
5800
D800
9800
F800
18C0
18C0
ENDCHAR
STARTCHAR 248C
ENCODING 9356
SWIDTH 1000 0
DWIDTH 12 0
BBX 9 9 2 0
BITMAP
F000
8000
8000
F000
3000
1800
1800
3180
E180
ENDCHAR
STARTCHAR 248D
ENCODING 9357
SWIDTH 1000 0
DWIDTH 12 0
BBX 10 9 2 0
BITMAP
3000
6000
C000
F000
D800
D800
D800
D8C0
70C0
ENDCHAR
STARTCHAR 248E
ENCODING 9358
SWIDTH 1000 0
DWIDTH 12 0
BBX 9 9 2 0
BITMAP
F800
0800
1800
1000
3000
3000
2000
6180
4180
ENDCHAR
STARTCHAR 248F
ENCODING 9359
SWIDTH 1000 0
DWIDTH 12 0
BBX 10 9 2 0
BITMAP
7000
D800
D800
D800
2000
D800
D800
D8C0
70C0
ENDCHAR
STARTCHAR 2490
ENCODING 9360
SWIDTH 1000 0
DWIDTH 12 0
BBX 10 9 2 0
BITMAP
7000
D800
D800
D800
D800
7800
1800
30C0
20C0
ENDCHAR
STARTCHAR 2491
ENCODING 9361
SWIDTH 1000 0
DWIDTH 12 0
BBX 10 9 1 0
BITMAP
EE00
FA00
7A00
7B00
7B00
7B00
7A00
7AC0
6EC0
ENDCHAR
STARTCHAR 2492
ENCODING 9362
SWIDTH 1000 0
DWIDTH 12 0
BBX 10 9 1 0
BITMAP
FC00
FC00
6C00
6C00
6C00
6C00
6C00
6CC0
6CC0
ENDCHAR
STARTCHAR 2493
ENCODING 9363
SWIDTH 1000 0
DWIDTH 12 0
BBX 10 9 1 0
BITMAP
FE00
E200
6300
6200
6600
6400
6C00
78C0
7FC0
ENDCHAR
STARTCHAR 2494
ENCODING 9364
SWIDTH 1000 0
DWIDTH 12 0
BBX 10 9 1 0
BITMAP
EE00
E200
6300
6200
6C00
6200
6300
66C0
7EC0
ENDCHAR
STARTCHAR 2495
ENCODING 9365
SWIDTH 1000 0
DWIDTH 12 0
BBX 10 9 1 0
BITMAP
E600
EE00
6E00
6E00
7600
7600
7E00
66C0
66C0
ENDCHAR
STARTCHAR 2496
ENCODING 9366
SWIDTH 1000 0
DWIDTH 12 0
BBX 10 9 1 0
BITMAP
EE00
6800
6800
6E00
6600
6300
6300
66C0
6EC0
ENDCHAR
STARTCHAR 2497
ENCODING 9367
SWIDTH 1000 0
DWIDTH 12 0
BBX 10 9 1 0
BITMAP
C400
C800
5800
5E00
5A00
5B00
5B00
5AC0
4EC0
ENDCHAR
STARTCHAR 2498
ENCODING 9368
SWIDTH 1000 0
DWIDTH 12 0
BBX 10 9 1 0
BITMAP
FE00
E200
6600
6400
6400
6400
6C00
68C0
68C0
ENDCHAR
STARTCHAR 2499
ENCODING 9369
SWIDTH 1000 0
DWIDTH 12 0
BBX 10 9 1 0
BITMAP
EE00
FA00
7B00
7A00
6E00
7A00
7B00
7AC0
6EC0
ENDCHAR
STARTCHAR 249A
ENCODING 9370
SWIDTH 1000 0
DWIDTH 12 0
BBX 10 9 1 0
BITMAP
EE00
FA00
7A00
7B00
7B00
7E00
6200
66C0
6CC0
ENDCHAR
STARTCHAR 249B
ENCODING 9371
SWIDTH 1000 0
DWIDTH 12 0
BBX 10 9 1 0
BITMAP
E600
2F00
3F00
2F00
2F00
6F00
4F00
8FC0
F6C0
ENDCHAR
STARTCHAR 2500
ENCODING 9472
SWIDTH 1000 0
DWIDTH 12 0
BBX 12 1 0 4
BITMAP
FFF0
ENDCHAR
STARTCHAR 2501
ENCODING 9473
SWIDTH 1000 0
DWIDTH 12 0
BBX 12 1 0 4
BITMAP
FFF0
ENDCHAR
STARTCHAR 2502
ENCODING 9474
SWIDTH 1083 0
DWIDTH 13 0
BBX 1 13 6 -2
BITMAP
80
80
80
80
80
80
80
80
80
80
80
80
80
ENDCHAR
STARTCHAR 2503
ENCODING 9475
SWIDTH 1000 0
DWIDTH 12 0
BBX 2 13 5 -2
BITMAP
C0
C0
C0
C0
C0
C0
C0
C0
C0
C0
C0
C0
C0
ENDCHAR
STARTCHAR 2504
ENCODING 9476
SWIDTH 1083 0
DWIDTH 13 0
BBX 11 1 1 4
BITMAP
EEE0
ENDCHAR
STARTCHAR 2505
ENCODING 9477
SWIDTH 1083 0
DWIDTH 13 0
BBX 11 1 1 4
BITMAP
EEE0
ENDCHAR
STARTCHAR 2506
ENCODING 9478
SWIDTH 1083 0
DWIDTH 13 0
BBX 1 11 6 -1
BITMAP
80
80
80
00
80
80
80
00
80
80
80
ENDCHAR
STARTCHAR 2507
ENCODING 9479
SWIDTH 1000 0
DWIDTH 12 0
BBX 2 11 5 -1
BITMAP
C0
C0
C0
00
C0
C0
C0
00
C0
C0
C0
ENDCHAR
STARTCHAR 2508
ENCODING 9480
SWIDTH 1000 0
DWIDTH 12 0
BBX 11 1 1 4
BITMAP
DB60
ENDCHAR
STARTCHAR 2509
ENCODING 9481
SWIDTH 1000 0
DWIDTH 12 0
BBX 11 1 1 4
BITMAP
DB60
ENDCHAR
STARTCHAR 250A
ENCODING 9482
SWIDTH 1083 0
DWIDTH 13 0
BBX 1 11 6 -1
BITMAP
80
80
00
80
80
00
80
80
00
80
80
ENDCHAR
STARTCHAR 250B
ENCODING 9483
SWIDTH 1000 0
DWIDTH 12 0
BBX 2 11 5 -1
BITMAP
C0
C0
00
C0
C0
00
C0
C0
00
C0
C0
ENDCHAR
STARTCHAR 250C
ENCODING 9484
SWIDTH 1000 0
DWIDTH 12 0
BBX 7 7 5 -2
BITMAP
FE
80
80
80
80
80
80
ENDCHAR
STARTCHAR 250D
ENCODING 9485
SWIDTH 1000 0
DWIDTH 12 0
BBX 7 7 5 -1
BITMAP
FE
80
80
80
80
80
80
ENDCHAR
STARTCHAR 250E
ENCODING 9486
SWIDTH 1000 0
DWIDTH 12 0
BBX 6 7 6 -2
BITMAP
FC
80
80
80
80
80
80
ENDCHAR
STARTCHAR 250F
ENCODING 9487
SWIDTH 1000 0
DWIDTH 12 0
BBX 6 7 6 -1
BITMAP
FC
80
80
80
80
80
80
ENDCHAR
STARTCHAR 2510
ENCODING 9488
SWIDTH 1083 0
DWIDTH 13 0
BBX 7 7 0 -2
BITMAP
FE
02
02
02
02
02
02
ENDCHAR
STARTCHAR 2511
ENCODING 9489
SWIDTH 1083 0
DWIDTH 13 0
BBX 7 7 0 -1
BITMAP
FE
02
02
02
02
02
02
ENDCHAR
STARTCHAR 2512
ENCODING 9490
SWIDTH 1000 0
DWIDTH 12 0
BBX 7 7 0 -2
BITMAP
FE
06
06
06
06
06
06
ENDCHAR
STARTCHAR 2513
ENCODING 9491
SWIDTH 1000 0
DWIDTH 12 0
BBX 7 7 0 -1
BITMAP
FE
06
06
06
06
06
06
ENDCHAR
STARTCHAR 2514
ENCODING 9492
SWIDTH 1000 0
DWIDTH 12 0
BBX 7 7 5 4
BITMAP
80
80
80
80
80
80
FE
ENDCHAR
STARTCHAR 2515
ENCODING 9493
SWIDTH 1000 0
DWIDTH 12 0
BBX 7 7 5 3
BITMAP
80
80
80
80
80
80
FE
ENDCHAR
STARTCHAR 2516
ENCODING 9494
SWIDTH 1000 0
DWIDTH 12 0
BBX 6 7 6 4
BITMAP
80
80
80
80
80
80
FC
ENDCHAR
STARTCHAR 2517
ENCODING 9495
SWIDTH 1000 0
DWIDTH 12 0
BBX 6 7 6 3
BITMAP
80
80
80
80
80
80
FC
ENDCHAR
STARTCHAR 2518
ENCODING 9496
SWIDTH 1083 0
DWIDTH 13 0
BBX 7 7 0 4
BITMAP
02
02
02
02
02
02
FE
ENDCHAR
STARTCHAR 2519
ENCODING 9497
SWIDTH 1083 0
DWIDTH 13 0
BBX 7 7 0 3
BITMAP
02
02
02
02
02
02
FE
ENDCHAR
STARTCHAR 251A
ENCODING 9498
SWIDTH 1000 0
DWIDTH 12 0
BBX 7 7 0 4
BITMAP
06
06
06
06
06
06
FE
ENDCHAR
STARTCHAR 251B
ENCODING 9499
SWIDTH 1000 0
DWIDTH 12 0
BBX 7 7 0 3
BITMAP
06
06
06
06
06
06
FE
ENDCHAR
STARTCHAR 251C
ENCODING 9500
SWIDTH 1000 0
DWIDTH 12 0
BBX 7 13 5 -2
BITMAP
80
80
80
80
80
80
FE
80
80
80
80
80
80
ENDCHAR
STARTCHAR 251D
ENCODING 9501
SWIDTH 1000 0
DWIDTH 12 0
BBX 7 13 5 -2
BITMAP
80
80
80
80
80
80
FE
80
80
80
80
80
80
ENDCHAR
STARTCHAR 251E
ENCODING 9502
SWIDTH 1000 0
DWIDTH 12 0
BBX 7 12 5 -3
BITMAP
C0
C0
C0
C0
C0
FE
80
80
80
80
80
80
ENDCHAR
STARTCHAR 251F
ENCODING 9503
SWIDTH 1000 0
DWIDTH 12 0
BBX 7 12 5 -1
BITMAP
80
80
80
80
80
FE
C0
C0
C0
C0
C0
C0
ENDCHAR
STARTCHAR 2520
ENCODING 9504
SWIDTH 1000 0
DWIDTH 12 0
BBX 6 13 6 -2
BITMAP
80
80
80
80
80
80
FC
80
80
80
80
80
80
ENDCHAR
STARTCHAR 2521
ENCODING 9505
SWIDTH 1000 0
DWIDTH 12 0
BBX 6 13 6 -2
BITMAP
80
80
80
80
80
80
FC
80
80
80
80
80
80
ENDCHAR
STARTCHAR 2522
ENCODING 9506
SWIDTH 1000 0
DWIDTH 12 0
BBX 6 13 6 -2
BITMAP
80
80
80
80
80
80
FC
80
80
80
80
80
80
ENDCHAR
STARTCHAR 2523
ENCODING 9507
SWIDTH 1000 0
DWIDTH 12 0
BBX 6 13 6 -2
BITMAP
80
80
80
80
80
80
FC
80
80
80
80
80
80
ENDCHAR
STARTCHAR 2524
ENCODING 9508
SWIDTH 1083 0
DWIDTH 13 0
BBX 7 13 0 -2
BITMAP
02
02
02
02
02
02
FE
02
02
02
02
02
02
ENDCHAR
STARTCHAR 2525
ENCODING 9509
SWIDTH 1083 0
DWIDTH 13 0
BBX 7 13 0 -2
BITMAP
02
02
02
02
02
02
FE
02
02
02
02
02
02
ENDCHAR
STARTCHAR 2526
ENCODING 9510
SWIDTH 1083 0
DWIDTH 13 0
BBX 8 12 0 -3
BITMAP
03
03
03
03
03
FF
02
02
02
02
02
02
ENDCHAR
STARTCHAR 2527
ENCODING 9511
SWIDTH 1083 0
DWIDTH 13 0
BBX 8 12 0 -1
BITMAP
02
02
02
02
02
FE
03
03
03
03
03
03
ENDCHAR
STARTCHAR 2528
ENCODING 9512
SWIDTH 1000 0
DWIDTH 12 0
BBX 7 13 0 -2
BITMAP
06
06
06
06
06
06
FE
06
06
06
06
06
06
ENDCHAR
STARTCHAR 2529
ENCODING 9513
SWIDTH 1000 0
DWIDTH 12 0
BBX 7 13 0 -3
BITMAP
06
06
06
06
06
06
FE
04
04
04
04
04
04
ENDCHAR
STARTCHAR 252A
ENCODING 9514
SWIDTH 1000 0
DWIDTH 12 0
BBX 7 13 0 -2
BITMAP
04
04
04
04
04
04
FE
06
06
06
06
06
06
ENDCHAR
STARTCHAR 252B
ENCODING 9515
SWIDTH 1000 0
DWIDTH 12 0
BBX 7 13 0 -2
BITMAP
06
06
06
06
06
06
FE
06
06
06
06
06
06
ENDCHAR
STARTCHAR 252C
ENCODING 9516
SWIDTH 1000 0
DWIDTH 12 0
BBX 12 7 0 -2
BITMAP
FFF0
0200
0200
0200
0200
0200
0200
ENDCHAR
STARTCHAR 252D
ENCODING 9517
SWIDTH 1083 0
DWIDTH 13 0
BBX 13 7 0 -1
BITMAP
FFF8
0200
0200
0200
0200
0200
0200
ENDCHAR
STARTCHAR 252E
ENCODING 9518
SWIDTH 1000 0
DWIDTH 12 0
BBX 12 7 0 -1
BITMAP
FFF0
0200
0200
0200
0200
0200
0200
ENDCHAR
STARTCHAR 252F
ENCODING 9519
SWIDTH 1000 0
DWIDTH 12 0
BBX 12 7 0 -1
BITMAP
FFF0
0200
0200
0200
0200
0200
0200
ENDCHAR
STARTCHAR 2530
ENCODING 9520
SWIDTH 1000 0
DWIDTH 12 0
BBX 12 7 0 -2
BITMAP
FFF0
0600
0600
0600
0600
0600
0600
ENDCHAR
STARTCHAR 2531
ENCODING 9521
SWIDTH 1000 0
DWIDTH 12 0
BBX 12 7 0 -1
BITMAP
FFF0
0200
0200
0200
0200
0200
0200
ENDCHAR
STARTCHAR 2532
ENCODING 9522
SWIDTH 1000 0
DWIDTH 12 0
BBX 12 7 0 -1
BITMAP
FFF0
0600
0600
0600
0600
0600
0600
ENDCHAR
STARTCHAR 2533
ENCODING 9523
SWIDTH 1000 0
DWIDTH 12 0
BBX 12 7 0 -1
BITMAP
FFF0
0600
0600
0600
0600
0600
0600
ENDCHAR
STARTCHAR 2534
ENCODING 9524
SWIDTH 1000 0
DWIDTH 12 0
BBX 12 7 0 4
BITMAP
0200
0200
0200
0200
0200
0200
FFF0
ENDCHAR
STARTCHAR 2535
ENCODING 9525
SWIDTH 1083 0
DWIDTH 13 0
BBX 13 7 0 3
BITMAP
0200
0200
0200
0200
0200
0200
FFF8
ENDCHAR
STARTCHAR 2536
ENCODING 9526
SWIDTH 1083 0
DWIDTH 13 0
BBX 13 7 0 3
BITMAP
0200
0200
0200
0200
0200
0200
FFF8
ENDCHAR
STARTCHAR 2537
ENCODING 9527
SWIDTH 1000 0
DWIDTH 12 0
BBX 12 7 0 3
BITMAP
0200
0200
0200
0200
0200
0200
FFF0
ENDCHAR
STARTCHAR 2538
ENCODING 9528
SWIDTH 1000 0
DWIDTH 12 0
BBX 12 7 0 4
BITMAP
0600
0600
0600
0600
0600
0600
FFF0
ENDCHAR
STARTCHAR 2539
ENCODING 9529
SWIDTH 1000 0
DWIDTH 12 0
BBX 12 7 0 3
BITMAP
0200
0200
0200
0200
0200
0200
FFF0
ENDCHAR
STARTCHAR 253A
ENCODING 9530
SWIDTH 1000 0
DWIDTH 12 0
BBX 12 7 0 3
BITMAP
0200
0200
0200
0200
0200
0200
FFF0
ENDCHAR
STARTCHAR 253B
ENCODING 9531
SWIDTH 1000 0
DWIDTH 12 0
BBX 12 7 0 3
BITMAP
0600
0600
0600
0600
0600
0600
FFF0
ENDCHAR
STARTCHAR 253C
ENCODING 9532
SWIDTH 1000 0
DWIDTH 12 0
BBX 12 13 0 -2
BITMAP
0200
0200
0200
0200
0200
0200
FFF0
0200
0200
0200
0200
0200
0200
ENDCHAR
STARTCHAR 253D
ENCODING 9533
SWIDTH 1000 0
DWIDTH 12 0
BBX 12 13 0 -2
BITMAP
0200
0200
0200
0200
0200
0200
FFF0
0200
0200
0200
0200
0200
0200
ENDCHAR
STARTCHAR 253E
ENCODING 9534
SWIDTH 1083 0
DWIDTH 13 0
BBX 13 13 0 -2
BITMAP
0200
0200
0200
0200
0200
0200
FFF8
0200
0200
0200
0200
0200
0200
ENDCHAR
STARTCHAR 253F
ENCODING 9535
SWIDTH 1000 0
DWIDTH 12 0
BBX 12 13 0 -2
BITMAP
0200
0200
0200
0200
0200
0200
FFF0
0200
0200
0200
0200
0200
0200
ENDCHAR
STARTCHAR 2540
ENCODING 9536
SWIDTH 1000 0
DWIDTH 12 0
BBX 12 13 0 -2
BITMAP
0600
0600
0600
0600
0600
0600
FFF0
0200
0200
0200
0200
0200
0200
ENDCHAR
STARTCHAR 2541
ENCODING 9537
SWIDTH 1000 0
DWIDTH 12 0
BBX 12 13 0 -2
BITMAP
0200
0200
0200
0200
0200
0200
FFF0
0600
0600
0600
0600
0600
0600
ENDCHAR
STARTCHAR 2542
ENCODING 9538
SWIDTH 1000 0
DWIDTH 12 0
BBX 12 13 0 -2
BITMAP
0600
0600
0600
0600
0600
0600
FFF0
0600
0600
0600
0600
0600
0600
ENDCHAR
STARTCHAR 2543
ENCODING 9539
SWIDTH 1083 0
DWIDTH 13 0
BBX 13 13 0 -3
BITMAP
0300
0300
0300
0300
0300
0300
FFF8
0200
0200
0200
0200
0200
0200
ENDCHAR
STARTCHAR 2544
ENCODING 9540
SWIDTH 1083 0
DWIDTH 13 0
BBX 13 13 0 -3
BITMAP
0300
0300
0300
0300
0300
0300
FFF8
0200
0200
0200
0200
0200
0200
ENDCHAR
STARTCHAR 2545
ENCODING 9541
SWIDTH 1083 0
DWIDTH 13 0
BBX 13 13 0 -2
BITMAP
0200
0200
0200
0200
0200
0200
FFF8
0300
0300
0300
0300
0300
0300
ENDCHAR
STARTCHAR 2546
ENCODING 9542
SWIDTH 1083 0
DWIDTH 13 0
BBX 13 13 0 -2
BITMAP
0200
0200
0200
0200
0200
0200
FFF8
0300
0300
0300
0300
0300
0300
ENDCHAR
STARTCHAR 2547
ENCODING 9543
SWIDTH 1000 0
DWIDTH 12 0
BBX 12 13 0 -3
BITMAP
0600
0600
0600
0600
0600
0600
FFF0
0200
0200
0200
0200
0200
0200
ENDCHAR
STARTCHAR 2548
ENCODING 9544
SWIDTH 1000 0
DWIDTH 12 0
BBX 12 13 0 -2
BITMAP
0200
0200
0200
0200
0200
0200
FFF0
0600
0600
0600
0600
0600
0600
ENDCHAR
STARTCHAR 2549
ENCODING 9545
SWIDTH 1000 0
DWIDTH 12 0
BBX 12 13 0 -2
BITMAP
0600
0600
0600
0600
0600
0600
FFF0
0600
0600
0600
0600
0600
0600
ENDCHAR
STARTCHAR 254A
ENCODING 9546
SWIDTH 1000 0
DWIDTH 12 0
BBX 12 13 0 -2
BITMAP
0200
0200
0200
0200
0200
0200
FFF0
0200
0200
0200
0200
0200
0200
ENDCHAR
STARTCHAR 254B
ENCODING 9547
SWIDTH 1000 0
DWIDTH 12 0
BBX 12 13 0 -2
BITMAP
0600
0600
0600
0600
0600
0600
FFF0
0600
0600
0600
0600
0600
0600
ENDCHAR
STARTCHAR 2550
ENCODING 9552
SWIDTH 1000 0
DWIDTH 12 0
BBX 12 2 0 3
BITMAP
FFF0
FFF0
ENDCHAR
STARTCHAR 2551
ENCODING 9553
SWIDTH 1000 0
DWIDTH 12 0
BBX 2 13 5 -2
BITMAP
C0
C0
C0
C0
C0
C0
C0
C0
C0
C0
C0
C0
C0
ENDCHAR
STARTCHAR 2552
ENCODING 9554
SWIDTH 1000 0
DWIDTH 12 0
BBX 7 8 5 -2
BITMAP
FE
FE
80
80
80
80
80
80
ENDCHAR
STARTCHAR 2553
ENCODING 9555
SWIDTH 1000 0
DWIDTH 12 0
BBX 7 7 5 -2
BITMAP
FE
C0
C0
C0
C0
C0
C0
ENDCHAR
STARTCHAR 2554
ENCODING 9556
SWIDTH 1000 0
DWIDTH 12 0
BBX 7 8 5 -2
BITMAP
FE
FE
C0
C0
C0
C0
C0
C0
ENDCHAR
STARTCHAR 2555
ENCODING 9557
SWIDTH 1083 0
DWIDTH 13 0
BBX 7 8 0 -2
BITMAP
FE
FE
02
02
02
02
02
02
ENDCHAR
STARTCHAR 2556
ENCODING 9558
SWIDTH 1000 0
DWIDTH 12 0
BBX 7 7 0 -2
BITMAP
FE
06
06
06
06
06
06
ENDCHAR
STARTCHAR 2557
ENCODING 9559
SWIDTH 1000 0
DWIDTH 12 0
BBX 7 8 0 -2
BITMAP
FE
FE
06
06
06
06
06
06
ENDCHAR
STARTCHAR 2558
ENCODING 9560
SWIDTH 1000 0
DWIDTH 12 0
BBX 7 8 5 3
BITMAP
80
80
80
80
80
80
FE
FE
ENDCHAR
STARTCHAR 2559
ENCODING 9561
SWIDTH 1000 0
DWIDTH 12 0
BBX 7 7 5 4
BITMAP
C0
C0
C0
C0
C0
C0
FE
ENDCHAR
STARTCHAR 255A
ENCODING 9562
SWIDTH 1000 0
DWIDTH 12 0
BBX 7 7 5 4
BITMAP
C0
C0
C0
C0
C0
FE
FE
ENDCHAR
STARTCHAR 255B
ENCODING 9563
SWIDTH 1083 0
DWIDTH 13 0
BBX 7 8 0 3
BITMAP
02
02
02
02
02
02
FE
FE
ENDCHAR
STARTCHAR 255C
ENCODING 9564
SWIDTH 1000 0
DWIDTH 12 0
BBX 7 7 0 4
BITMAP
06
06
06
06
06
06
FE
ENDCHAR
STARTCHAR 255D
ENCODING 9565
SWIDTH 1000 0
DWIDTH 12 0
BBX 7 7 0 4
BITMAP
06
06
06
06
06
FE
FE
ENDCHAR
STARTCHAR 255E
ENCODING 9566
SWIDTH 1000 0
DWIDTH 12 0
BBX 7 13 5 -2
BITMAP
80
80
80
80
80
FE
80
FE
80
80
80
80
80
ENDCHAR
STARTCHAR 255F
ENCODING 9567
SWIDTH 1000 0
DWIDTH 12 0
BBX 7 13 5 -2
BITMAP
C0
C0
C0
C0
C0
C0
FE
C0
C0
C0
C0
C0
C0
ENDCHAR
STARTCHAR 2560
ENCODING 9568
SWIDTH 1000 0
DWIDTH 12 0
BBX 7 13 5 -2
BITMAP
C0
C0
C0
C0
C0
FE
80
FE
C0
C0
C0
C0
C0
ENDCHAR
STARTCHAR 2561
ENCODING 9569
SWIDTH 1083 0
DWIDTH 13 0
BBX 7 13 0 -2
BITMAP
02
02
02
02
02
FE
02
FE
02
02
02
02
02
ENDCHAR
STARTCHAR 2562
ENCODING 9570
SWIDTH 1000 0
DWIDTH 12 0
BBX 7 13 0 -2
BITMAP
06
06
06
06
06
06
FE
06
06
06
06
06
06
ENDCHAR
STARTCHAR 2563
ENCODING 9571
SWIDTH 1000 0
DWIDTH 12 0
BBX 7 13 0 -2
BITMAP
06
06
06
06
06
FE
02
FE
06
06
06
06
06
ENDCHAR
STARTCHAR 2564
ENCODING 9572
SWIDTH 1000 0
DWIDTH 12 0
BBX 12 8 0 -2
BITMAP
FFF0
FFF0
0400
0400
0400
0400
0400
0400
ENDCHAR
STARTCHAR 2565
ENCODING 9573
SWIDTH 1000 0
DWIDTH 12 0
BBX 12 7 0 -2
BITMAP
FFF0
0600
0600
0600
0600
0600
0600
ENDCHAR
STARTCHAR 2566
ENCODING 9574
SWIDTH 1000 0
DWIDTH 12 0
BBX 12 8 0 -2
BITMAP
FFF0
FFF0
0600
0600
0600
0600
0600
0600
ENDCHAR
STARTCHAR 2567
ENCODING 9575
SWIDTH 1000 0
DWIDTH 12 0
BBX 12 7 0 3
BITMAP
0200
0200
0200
0200
0200
FFF0
FFF0
ENDCHAR
STARTCHAR 2568
ENCODING 9576
SWIDTH 1000 0
DWIDTH 12 0
BBX 12 7 0 4
BITMAP
0600
0600
0600
0600
0600
0600
FFF0
ENDCHAR
STARTCHAR 2569
ENCODING 9577
SWIDTH 1000 0
DWIDTH 12 0
BBX 12 7 0 3
BITMAP
0600
0600
0600
0600
0600
FFF0
FFF0
ENDCHAR
STARTCHAR 256A
ENCODING 9578
SWIDTH 1000 0
DWIDTH 12 0
BBX 12 13 0 -2
BITMAP
0200
0200
0200
0200
0200
FFF0
0200
FFF0
0200
0200
0200
0200
0200
ENDCHAR
STARTCHAR 256B
ENCODING 9579
SWIDTH 1000 0
DWIDTH 12 0
BBX 12 13 0 -2
BITMAP
0600
0600
0600
0600
0600
0600
FFF0
0600
0600
0600
0600
0600
0600
ENDCHAR
STARTCHAR 256C
ENCODING 9580
SWIDTH 1000 0
DWIDTH 12 0
BBX 12 13 0 -2
BITMAP
0600
0600
0600
0600
0600
FFF0
FFF0
0600
0600
0600
0600
0600
0600
ENDCHAR
STARTCHAR 256D
ENCODING 9581
SWIDTH 1000 0
DWIDTH 12 0
BBX 6 7 6 -2
BITMAP
0C
38
60
60
C0
C0
C0
ENDCHAR
STARTCHAR 256E
ENCODING 9582
SWIDTH 1083 0
DWIDTH 13 0
BBX 8 7 0 -2
BITMAP
E0
78
0C
04
06
02
03
ENDCHAR
STARTCHAR 256F
ENCODING 9583
SWIDTH 1083 0
DWIDTH 13 0
BBX 8 7 0 3
BITMAP
03
02
06
06
0C
38
E0
ENDCHAR
STARTCHAR 2570
ENCODING 9584
SWIDTH 1000 0
DWIDTH 12 0
BBX 6 7 6 3
BITMAP
C0
C0
C0
40
60
30
1C
ENDCHAR
STARTCHAR 2571
ENCODING 9585
SWIDTH 1000 0
DWIDTH 12 0
BBX 12 13 0 -2
BITMAP
0010
0020
0040
0080
0100
0200
0400
0800
0800
1000
2000
4000
8000
ENDCHAR
STARTCHAR 2572
ENCODING 9586
SWIDTH 1000 0
DWIDTH 12 0
BBX 12 13 0 -2
BITMAP
8000
4000
2000
2000
1000
0800
0400
0200
0100
0080
0040
0020
0010
ENDCHAR
STARTCHAR 2573
ENCODING 9587
SWIDTH 1000 0
DWIDTH 12 0
BBX 12 13 0 -2
BITMAP
8010
4020
2040
2080
1100
0A00
0400
0A00
0900
1080
2040
4020
8010
ENDCHAR
STARTCHAR 2581
ENCODING 9601
SWIDTH 1000 0
DWIDTH 12 0
BBX 12 1 0 -2
BITMAP
FFF0
ENDCHAR
STARTCHAR 2582
ENCODING 9602
SWIDTH 1000 0
DWIDTH 12 0
BBX 12 3 0 -2
BITMAP
FFF0
FFF0
FFF0
ENDCHAR
STARTCHAR 2583
ENCODING 9603
SWIDTH 1000 0
DWIDTH 12 0
BBX 12 5 0 -2
BITMAP
FFF0
FFF0
FFF0
FFF0
FFF0
ENDCHAR
STARTCHAR 2584
ENCODING 9604
SWIDTH 1000 0
DWIDTH 12 0
BBX 12 6 0 -2
BITMAP
FFF0
FFF0
FFF0
FFF0
FFF0
FFF0
ENDCHAR
STARTCHAR 2585
ENCODING 9605
SWIDTH 1000 0
DWIDTH 12 0
BBX 12 8 0 -2
BITMAP
FFF0
FFF0
FFF0
FFF0
FFF0
FFF0
FFF0
FFF0
ENDCHAR
STARTCHAR 2586
ENCODING 9606
SWIDTH 1000 0
DWIDTH 12 0
BBX 12 9 0 -2
BITMAP
FFF0
FFF0
FFF0
FFF0
FFF0
FFF0
FFF0
FFF0
FFF0
ENDCHAR
STARTCHAR 2587
ENCODING 9607
SWIDTH 1000 0
DWIDTH 12 0
BBX 12 11 0 -2
BITMAP
FFF0
FFF0
FFF0
FFF0
FFF0
FFF0
FFF0
FFF0
FFF0
FFF0
FFF0
ENDCHAR
STARTCHAR 2588
ENCODING 9608
SWIDTH 1000 0
DWIDTH 12 0
BBX 12 13 0 -2
BITMAP
FFF0
FFF0
FFF0
FFF0
FFF0
FFF0
FFF0
FFF0
FFF0
FFF0
FFF0
FFF0
FFF0
ENDCHAR
STARTCHAR 2589
ENCODING 9609
SWIDTH 1083 0
DWIDTH 13 0
BBX 11 13 0 -2
BITMAP
FFE0
FFE0
FFE0
FFE0
FFE0
FFE0
FFE0
FFE0
FFE0
FFE0
FFE0
FFE0
FFE0
ENDCHAR
STARTCHAR 258A
ENCODING 9610
SWIDTH 1000 0
DWIDTH 12 0
BBX 9 13 0 -2
BITMAP
FF80
FF80
FF80
FF80
FF80
FF80
FF80
FF80
FF80
FF80
FF80
FF80
FF80
ENDCHAR
STARTCHAR 258B
ENCODING 9611
SWIDTH 1083 0
DWIDTH 13 0
BBX 8 13 0 -2
BITMAP
FF
FF
FF
FF
FF
FF
FF
FF
FF
FF
FF
FF
FF
ENDCHAR
STARTCHAR 258C
ENCODING 9612
SWIDTH 1000 0
DWIDTH 12 0
BBX 6 13 0 -2
BITMAP
FC
FC
FC
FC
FC
FC
FC
FC
FC
FC
FC
FC
FC
ENDCHAR
STARTCHAR 258D
ENCODING 9613
SWIDTH 1083 0
DWIDTH 13 0
BBX 5 13 0 -2
BITMAP
F8
F8
F8
F8
F8
F8
F8
F8
F8
F8
F8
F8
F8
ENDCHAR
STARTCHAR 258E
ENCODING 9614
SWIDTH 1000 0
DWIDTH 12 0
BBX 3 13 0 -2
BITMAP
E0
E0
E0
E0
E0
E0
E0
E0
E0
E0
E0
E0
E0
ENDCHAR
STARTCHAR 258F
ENCODING 9615
SWIDTH 1000 0
DWIDTH 12 0
BBX 2 13 0 -2
BITMAP
C0
C0
C0
C0
C0
C0
C0
C0
C0
C0
C0
C0
C0
ENDCHAR
STARTCHAR 2593
ENCODING 9619
SWIDTH 1000 0
DWIDTH 12 0
BBX 12 13 0 -1
BITMAP
FFF0
B6D0
FFF0
FFF0
FFF0
FFF0
C930
FFF0
FFF0
FFF0
FFF0
B6D0
FFF0
ENDCHAR
STARTCHAR 2594
ENCODING 9620
SWIDTH 1000 0
DWIDTH 12 0
BBX 12 1 0 10
BITMAP
FFF0
ENDCHAR
STARTCHAR 2595
ENCODING 9621
SWIDTH 1000 0
DWIDTH 12 0
BBX 2 13 10 -2
BITMAP
C0
C0
C0
C0
C0
C0
C0
C0
C0
C0
C0
C0
C0
ENDCHAR
STARTCHAR 25A0
ENCODING 9632
SWIDTH 1000 0
DWIDTH 12 0
BBX 8 9 2 0
BITMAP
FF
FF
FF
FF
FF
FF
FF
FF
FF
ENDCHAR
STARTCHAR 25A1
ENCODING 9633
SWIDTH 1083 0
DWIDTH 13 0
BBX 9 9 2 0
BITMAP
FF80
8080
8080
8080
8080
8080
8080
8080
FF80
ENDCHAR
STARTCHAR 25B2
ENCODING 9650
SWIDTH 1000 0
DWIDTH 12 0
BBX 8 7 2 3
BITMAP
18
18
3C
3C
7E
FF
FF
ENDCHAR
STARTCHAR 25B3
ENCODING 9651
SWIDTH 1000 0
DWIDTH 12 0
BBX 8 8 2 1
BITMAP
18
28
24
44
42
82
81
FF
ENDCHAR
STARTCHAR 25BC
ENCODING 9660
SWIDTH 1000 0
DWIDTH 12 0
BBX 8 7 2 -1
BITMAP
FF
FF
7E
3C
3C
18
18
ENDCHAR
STARTCHAR 25BD
ENCODING 9661
SWIDTH 1000 0
DWIDTH 12 0
BBX 8 8 2 1
BITMAP
FF
81
82
42
44
24
28
18
ENDCHAR
STARTCHAR 25C6
ENCODING 9670
SWIDTH 1000 0
DWIDTH 12 0
BBX 8 9 2 0
BITMAP
18
3C
7E
FF
FF
FF
7E
3C
18
ENDCHAR
STARTCHAR 25C7
ENCODING 9671
SWIDTH 1000 0
DWIDTH 12 0
BBX 9 9 1 0
BITMAP
0C00
1200
2100
4080
8080
4080
2100
1200
0C00
ENDCHAR
STARTCHAR 25CA
ENCODING 9674
SWIDTH 583 0
DWIDTH 7 0
BBX 5 10 1 -1
BITMAP
20
70
50
58
88
88
58
50
70
20
ENDCHAR
STARTCHAR 25CB
ENCODING 9675
SWIDTH 1083 0
DWIDTH 13 0
BBX 9 9 2 0
BITMAP
3C00
6300
C180
C180
C180
C180
C180
6300
3E00
ENDCHAR
STARTCHAR 25CE
ENCODING 9678
SWIDTH 1083 0
DWIDTH 13 0
BBX 9 9 2 0
BITMAP
3C00
6300
DD80
F780
F380
F380
DF80
6300
3E00
ENDCHAR
STARTCHAR 25CF
ENCODING 9679
SWIDTH 1083 0
DWIDTH 13 0
BBX 9 9 2 0
BITMAP
3C00
7F00
FF80
FF80
FF80
FF80
FF80
7F00
3E00
ENDCHAR
STARTCHAR 25E2
ENCODING 9698
SWIDTH 1000 0
DWIDTH 12 0
BBX 8 8 2 1
BITMAP
01
03
07
0F
1F
3F
7F
FF
ENDCHAR
STARTCHAR 25E3
ENCODING 9699
SWIDTH 1000 0
DWIDTH 12 0
BBX 8 8 2 1
BITMAP
80
C0
E0
F0
F8
FC
FE
FF
ENDCHAR
STARTCHAR 25E4
ENCODING 9700
SWIDTH 1000 0
DWIDTH 12 0
BBX 8 8 2 0
BITMAP
FF
FE
FC
F8
F0
E0
C0
80
ENDCHAR
STARTCHAR 25E5
ENCODING 9701
SWIDTH 1000 0
DWIDTH 12 0
BBX 8 8 2 0
BITMAP
FF
7F
3F
1F
0F
07
03
01
ENDCHAR
STARTCHAR 2605
ENCODING 9733
SWIDTH 1000 0
DWIDTH 12 0
BBX 8 9 2 1
BITMAP
10
18
18
FF
7E
3C
3C
24
42
ENDCHAR
STARTCHAR 2606
ENCODING 9734
SWIDTH 1000 0
DWIDTH 12 0
BBX 8 9 2 0
BITMAP
10
18
18
E7
82
44
44
5C
66
ENDCHAR
STARTCHAR 2609
ENCODING 9737
SWIDTH 1083 0
DWIDTH 13 0
BBX 9 9 2 0
BITMAP
3C00
6300
C180
C180
D980
C180
C180
6300
3E00
ENDCHAR
STARTCHAR 2640
ENCODING 9792
SWIDTH 1000 0
DWIDTH 12 0
BBX 6 10 3 1
BITMAP
70
D8
CC
CC
48
30
20
30
20
20
ENDCHAR
STARTCHAR 2642
ENCODING 9794
SWIDTH 1000 0
DWIDTH 12 0
BBX 6 10 3 -2
BITMAP
20
70
68
20
20
58
CC
CC
C8
78
ENDCHAR
STARTCHAR 2E81
ENCODING 11905
SWIDTH 1000 0
DWIDTH 12 0
BBX 10 11 1 -1
BITMAP
0040
7FC0
6000
6000
6000
6000
4000
4000
C000
C000
8000
ENDCHAR
STARTCHAR 2E84
ENCODING 11908
SWIDTH 1000 0
DWIDTH 12 0
BBX 11 11 0 -2
BITMAP
FFC0
00C0
00C0
00C0
00C0
00C0
00C0
00C0
00E0
00E0
0060
ENDCHAR
STARTCHAR 2E88
ENCODING 11912
SWIDTH 1000 0
DWIDTH 12 0
BBX 8 5 1 5
BITMAP
10
3F
63
C6
8C
ENDCHAR
STARTCHAR 2E8B
ENCODING 11915
SWIDTH 1000 0
DWIDTH 12 0
BBX 9 8 2 -2
BITMAP
FF00
8300
8300
8300
8E00
8080
8180
FF00
ENDCHAR
STARTCHAR 2E8C
ENCODING 11916
SWIDTH 1000 0
DWIDTH 12 0
BBX 7 3 2 7
BITMAP
98
DA
18
ENDCHAR
STARTCHAR 2E97
ENCODING 11927
SWIDTH 1000 0
DWIDTH 12 0
BBX 10 6 1 -2
BITMAP
1800
5C80
DA80
9A40
9800
3000
ENDCHAR
STARTCHAR 2EA7
ENCODING 11943
SWIDTH 1000 0
DWIDTH 12 0
BBX 10 5 1 5
BITMAP
2C00
7FC0
4C00
4C00
FFC0
ENDCHAR
STARTCHAR 2EAA
ENCODING 11946
SWIDTH 1000 0
DWIDTH 12 0
BBX 5 10 0 -1
BITMAP
78
08
10
70
70
78
70
70
78
F8
ENDCHAR
STARTCHAR 2EAE
ENCODING 11950
SWIDTH 1000 0
DWIDTH 12 0
BBX 10 4 1 6
BITMAP
2200
7BC0
6700
D480
ENDCHAR
STARTCHAR 2EB3
ENCODING 11955
SWIDTH 1000 0
DWIDTH 12 0
BBX 10 6 1 4
BITMAP
FFC0
D6C0
1600
2600
C780
8000
ENDCHAR
STARTCHAR 2EB6
ENCODING 11958
SWIDTH 1083 0
DWIDTH 13 0
BBX 11 9 1 1
BITMAP
1100
FFC0
0800
7FC0
FFE0
1000
2000
C000
8000
ENDCHAR
STARTCHAR 2EB7
ENCODING 11959
SWIDTH 1083 0
DWIDTH 13 0
BBX 11 6 1 4
BITMAP
1100
7FC0
0C00
7F80
0C00
FFE0
ENDCHAR
STARTCHAR 2EBB
ENCODING 11963
SWIDTH 916 0
DWIDTH 11 0
BBX 11 7 0 4
BITMAP
0C00
7FC0
FFE0
0CC0
7FC0
0C00
FFC0
ENDCHAR
STARTCHAR 2ECA
ENCODING 11978
SWIDTH 1000 0
DWIDTH 12 0
BBX 5 10 1 -1
BITMAP
78
68
68
78
10
70
78
70
70
F8
ENDCHAR
STARTCHAR 2FF0
ENCODING 12272
SWIDTH 1000 0
DWIDTH 12 0
BBX 10 11 1 -1
BITMAP
BBC0
0400
8040
8040
0400
0400
8040
0400
0400
0400
BBC0
ENDCHAR
STARTCHAR 2FF1
ENCODING 12273
SWIDTH 1000 0
DWIDTH 12 0
BBX 10 11 1 -1
BITMAP
BD80
8000
8000
8000
8000
4240
8000
8000
0000
8000
BD80
ENDCHAR
STARTCHAR 2FF2
ENCODING 12274
SWIDTH 1000 0
DWIDTH 12 0
BBX 10 11 1 -1
BITMAP
BDC0
0000
8040
8040
0000
0000
8040
0000
0000
0000
BDC0
ENDCHAR
STARTCHAR 2FF3
ENCODING 12275
SWIDTH 1000 0
DWIDTH 12 0
BBX 10 11 1 -1
BITMAP
BD80
8000
0000
C240
8000
8000
C240
8000
8000
0000
BD80
ENDCHAR
STARTCHAR 2FF4
ENCODING 12276
SWIDTH 1000 0
DWIDTH 12 0
BBX 10 11 1 -1
BITMAP
BDC0
8040
8040
9D40
0000
9140
9140
9140
9D40
8040
BDC0
ENDCHAR
STARTCHAR 2FF5
ENCODING 12277
SWIDTH 1000 0
DWIDTH 12 0
BBX 10 11 1 -1
BITMAP
BDC0
8040
0000
9D40
9140
8040
1100
9140
8040
1100
BDC0
ENDCHAR
STARTCHAR 2FF6
ENCODING 12278
SWIDTH 1000 0
DWIDTH 12 0
BBX 10 11 1 -1
BITMAP
BDC0
9140
1100
8040
9140
1100
8040
9D40
0000
8040
BDC0
ENDCHAR
STARTCHAR 2FF7
ENCODING 12279
SWIDTH 1000 0
DWIDTH 12 0
BBX 10 11 1 -1
BITMAP
BBC0
8040
8040
97C0
0000
9040
9040
9040
97C0
8040
BBC0
ENDCHAR
STARTCHAR 2FF8
ENCODING 12280
SWIDTH 1000 0
DWIDTH 12 0
BBX 10 11 1 -1
BITMAP
BD40
8040
8040
1E80
0000
8040
8040
8040
8040
0000
BD40
ENDCHAR
STARTCHAR 2FF9
ENCODING 12281
SWIDTH 1000 0
DWIDTH 12 0
BBX 10 11 1 -1
BITMAP
9CC0
8040
8040
7B00
0100
8040
8140
8140
8140
0100
9CC0
ENDCHAR
STARTCHAR 2FFA
ENCODING 12282
SWIDTH 1000 0
DWIDTH 12 0
BBX 10 11 1 -1
BITMAP
BD40
0000
8040
8040
0000
8040
8040
8040
8040
0000
BD40
ENDCHAR
STARTCHAR 2FFB
ENCODING 12283
SWIDTH 1000 0
DWIDTH 12 0
BBX 10 11 1 -1
BITMAP
BB00
8100
8100
1CC0
0040
8100
8140
0040
BB00
0040
1CC0
ENDCHAR
STARTCHAR 3000
ENCODING 12288
SWIDTH 1000 0
DWIDTH 12 0
BBX 0 0 0 0
BITMAP
ENDCHAR
STARTCHAR 3001
ENCODING 12289
SWIDTH 1000 0
DWIDTH 12 0
BBX 2 3 2 -2
BITMAP
80
C0
40
ENDCHAR
STARTCHAR 3002
ENCODING 12290
SWIDTH 1000 0
DWIDTH 12 0
BBX 4 3 1 -1
BITMAP
E0
F0
E0
ENDCHAR
STARTCHAR 3003
ENCODING 12291
SWIDTH 1000 0
DWIDTH 12 0
BBX 6 5 3 1
BITMAP
24
6C
48
90
90
ENDCHAR
STARTCHAR 3007
ENCODING 12295
SWIDTH 916 0
DWIDTH 11 0
BBX 11 11 0 -1
BITMAP
1F00
3180
60C0
C060
C060
C060
C060
C060
40C0
71C0
1F00
ENDCHAR
STARTCHAR 3008
ENCODING 12296
SWIDTH 1000 0
DWIDTH 12 0
BBX 4 11 6 -1
BITMAP
30
20
60
60
40
C0
40
60
60
20
30
ENDCHAR
STARTCHAR 3009
ENCODING 12297
SWIDTH 1000 0
DWIDTH 12 0
BBX 4 11 2 -1
BITMAP
C0
C0
40
60
20
30
20
60
40
C0
C0
ENDCHAR
STARTCHAR 300A
ENCODING 12298
SWIDTH 1000 0
DWIDTH 12 0
BBX 6 11 4 -1
BITMAP
34
2C
68
58
58
D0
58
58
68
2C
34
ENDCHAR
STARTCHAR 300B
ENCODING 12299
SWIDTH 1000 0
DWIDTH 12 0
BBX 6 11 2 -1
BITMAP
B0
D0
50
58
68
2C
68
58
D0
D0
B0
ENDCHAR
STARTCHAR 300C
ENCODING 12300
SWIDTH 1000 0
DWIDTH 12 0
BBX 3 7 7 3
BITMAP
E0
C0
C0
C0
C0
C0
C0
ENDCHAR
STARTCHAR 300D
ENCODING 12301
SWIDTH 1000 0
DWIDTH 12 0
BBX 3 7 2 -2
BITMAP
60
60
60
60
60
60
E0
ENDCHAR
STARTCHAR 300E
ENCODING 12302
SWIDTH 916 0
DWIDTH 11 0
BBX 4 7 6 3
BITMAP
F0
B0
A0
A0
A0
A0
E0
ENDCHAR
STARTCHAR 300F
ENCODING 12303
SWIDTH 916 0
DWIDTH 11 0
BBX 4 8 1 -2
BITMAP
70
50
50
50
50
D0
90
F0
ENDCHAR
STARTCHAR 3010
ENCODING 12304
SWIDTH 1000 0
DWIDTH 12 0
BBX 3 11 7 -1
BITMAP
E0
C0
C0
C0
C0
C0
C0
C0
C0
C0
E0
ENDCHAR
STARTCHAR 3011
ENCODING 12305
SWIDTH 1000 0
DWIDTH 12 0
BBX 3 11 2 -1
BITMAP
E0
E0
60
60
60
60
60
60
60
E0
E0
ENDCHAR
STARTCHAR 3012
ENCODING 12306
SWIDTH 1000 0
DWIDTH 12 0
BBX 8 9 2 0
BITMAP
FF
00
00
FF
18
18
18
18
18
ENDCHAR
STARTCHAR 3013
ENCODING 12307
SWIDTH 1000 0
DWIDTH 12 0
BBX 8 8 2 1
BITMAP
FF
FF
FF
00
00
FF
FF
FF
ENDCHAR
STARTCHAR 3014
ENCODING 12308
SWIDTH 1000 0
DWIDTH 12 0
BBX 3 12 7 -1
BITMAP
60
E0
C0
C0
C0
C0
C0
C0
C0
C0
E0
20
ENDCHAR
STARTCHAR 3015
ENCODING 12309
SWIDTH 1000 0
DWIDTH 12 0
BBX 3 11 2 -1
BITMAP
80
E0
60
60
60
60
60
60
60
60
C0
ENDCHAR
STARTCHAR 3016
ENCODING 12310
SWIDTH 1083 0
DWIDTH 13 0
BBX 5 12 7 -3
BITMAP
F8
90
90
90
B0
B0
B0
B0
B0
90
90
F8
ENDCHAR
STARTCHAR 3017
ENCODING 12311
SWIDTH 1000 0
DWIDTH 12 0
BBX 3 12 2 -3
BITMAP
E0
A0
A0
60
60
60
60
60
60
E0
A0
E0
ENDCHAR
STARTCHAR 301D
ENCODING 12317
SWIDTH 1000 0
DWIDTH 12 0
BBX 5 4 3 6
BITMAP
D8
48
48
48
ENDCHAR
STARTCHAR 301E
ENCODING 12318
SWIDTH 500 0
DWIDTH 6 0
BBX 5 4 0 6
BITMAP
D8
48
48
48
ENDCHAR
STARTCHAR 3021
ENCODING 12321
SWIDTH 1000 0
DWIDTH 12 0
BBX 2 10 5 0
BITMAP
C0
C0
C0
C0
C0
C0
C0
C0
C0
C0
ENDCHAR
STARTCHAR 3022
ENCODING 12322
SWIDTH 1000 0
DWIDTH 12 0
BBX 7 10 3 0
BITMAP
06
C6
C6
C6
C6
C6
C6
C6
C6
C6
ENDCHAR
STARTCHAR 3023
ENCODING 12323
SWIDTH 1000 0
DWIDTH 12 0
BBX 8 10 2 0
BITMAP
01
D9
D9
D9
D9
D9
D9
D9
D9
C1
ENDCHAR
STARTCHAR 3024
ENCODING 12324
SWIDTH 1000 0
DWIDTH 12 0
BBX 8 9 2 0
BITMAP
02
46
76
3C
1C
1E
37
63
C1
ENDCHAR
STARTCHAR 3025
ENCODING 12325
SWIDTH 1000 0
DWIDTH 12 0
BBX 7 10 2 -2
BITMAP
42
CE
D8
F0
70
DC
C6
C6
C6
7C
ENDCHAR
STARTCHAR 3026
ENCODING 12326
SWIDTH 916 0
DWIDTH 11 0
BBX 9 4 1 4
BITMAP
0C00
0C00
0C00
FF80
ENDCHAR
STARTCHAR 3027
ENCODING 12327
SWIDTH 916 0
DWIDTH 11 0
BBX 9 9 1 0
BITMAP
0C00
0C00
0C00
FF80
0000
0000
0000
0000
7F00
ENDCHAR
STARTCHAR 3028
ENCODING 12328
SWIDTH 916 0
DWIDTH 11 0
BBX 9 10 1 -1
BITMAP
1800
1800
FF80
0000
0000
0000
7E00
0000
0000
FF80
ENDCHAR
STARTCHAR 3029
ENCODING 12329
SWIDTH 1000 0
DWIDTH 12 0
BBX 9 10 2 0
BITMAP
3000
3000
7F00
C300
C300
B600
1C00
1C00
3700
E380
ENDCHAR
STARTCHAR 303E
ENCODING 12350
SWIDTH 1000 0
DWIDTH 12 0
BBX 11 12 0 -1
BITMAP
BB60
9020
A820
87A0
0000
3FC0
8420
0800
BFE0
8820
0000
BB60
ENDCHAR
STARTCHAR 3041
ENCODING 12353
SWIDTH 1000 0
DWIDTH 12 0
BBX 9 10 2 -1
BITMAP
1000
FE00
3400
3E00
7700
7500
F980
D900
F700
0400
ENDCHAR
STARTCHAR 3042
ENCODING 12354
SWIDTH 1000 0
DWIDTH 12 0
BBX 10 11 1 0
BITMAP
1000
7F00
1000
3200
3F00
7780
F480
DCC0
D980
FB80
0200
ENDCHAR
STARTCHAR 3043
ENCODING 12355
SWIDTH 1000 0
DWIDTH 12 0
BBX 8 7 2 0
BITMAP
C2
C2
C3
C3
C1
D1
70
ENDCHAR
STARTCHAR 3044
ENCODING 12356
SWIDTH 1000 0
DWIDTH 12 0
BBX 9 8 2 1
BITMAP
C200
C300
C100
C180
C180
C880
5800
7000
ENDCHAR
STARTCHAR 3045
ENCODING 12357
SWIDTH 1000 0
DWIDTH 12 0
BBX 7 9 3 -2
BITMAP
60
7C
00
7C
C4
06
04
0C
38
ENDCHAR
STARTCHAR 3046
ENCODING 12358
SWIDTH 1000 0
DWIDTH 12 0
BBX 8 10 2 -1
BITMAP
38
1E
00
7C
C6
03
02
06
0C
38
ENDCHAR
STARTCHAR 3047
ENCODING 12359
SWIDTH 1083 0
DWIDTH 13 0
BBX 9 9 2 -2
BITMAP
3000
1E00
0000
7E00
0C00
1C00
3600
6600
C780
ENDCHAR
STARTCHAR 3048
ENCODING 12360
SWIDTH 1000 0
DWIDTH 12 0
BBX 9 10 1 -1
BITMAP
3000
3E00
0000
7E00
0C00
1800
3C00
6600
C600
8780
ENDCHAR
STARTCHAR 3049
ENCODING 12361
SWIDTH 1000 0
DWIDTH 12 0
BBX 8 9 2 -2
BITMAP
30
32
FB
30
3E
73
F3
F3
6E
ENDCHAR
STARTCHAR 304A
ENCODING 12362
SWIDTH 1000 0
DWIDTH 12 0
BBX 10 10 1 -1
BITMAP
3000
3100
FDC0
3000
3000
3F00
7180
F180
F180
7700
ENDCHAR
STARTCHAR 304B
ENCODING 12363
SWIDTH 1000 0
DWIDTH 12 0
BBX 10 9 1 0
BITMAP
1000
3000
FD80
E480
26C0
6640
4400
C400
9C00
ENDCHAR
STARTCHAR 304C
ENCODING 12364
SWIDTH 1000 0
DWIDTH 12 0
BBX 10 10 1 0
BITMAP
00C0
1080
3000
FD80
E480
26C0
6640
4600
C400
9C00
ENDCHAR
STARTCHAR 304D
ENCODING 12365
SWIDTH 916 0
DWIDTH 11 0
BBX 8 10 2 -2
BITMAP
10
1A
FE
0C
1F
FC
02
4E
40
7E
ENDCHAR
STARTCHAR 304E
ENCODING 12366
SWIDTH 1000 0
DWIDTH 12 0
BBX 10 10 2 -1
BITMAP
1140
1A00
FE00
0C00
1F00
FE00
0200
4E00
4000
7E00
ENDCHAR
STARTCHAR 304F
ENCODING 12367
SWIDTH 916 0
DWIDTH 11 0
BBX 6 11 2 -2
BITMAP
08
1C
38
70
C0
C0
E0
30
18
0C
0C
ENDCHAR
STARTCHAR 3050
ENCODING 12368
SWIDTH 916 0
DWIDTH 11 0
BBX 8 11 2 -2
BITMAP
08
1C
38
75
C2
C0
60
30
18
0C
0C
ENDCHAR
STARTCHAR 3051
ENCODING 12369
SWIDTH 916 0
DWIDTH 11 0
BBX 9 11 1 -1
BITMAP
C200
C300
C300
DF80
C300
C300
C300
C200
C600
CC00
0800
ENDCHAR
STARTCHAR 3052
ENCODING 12370
SWIDTH 1000 0
DWIDTH 12 0
BBX 10 12 1 -1
BITMAP
0040
C2C0
C380
C300
DF80
C300
C300
C300
C200
C600
CC00
0800
ENDCHAR
STARTCHAR 3053
ENCODING 12371
SWIDTH 1000 0
DWIDTH 12 0
BBX 8 9 2 1
BITMAP
7E
00
00
00
00
C0
C0
C0
7F
ENDCHAR
STARTCHAR 3054
ENCODING 12372
SWIDTH 1000 0
DWIDTH 12 0
BBX 10 11 2 0
BITMAP
0080
0140
7E00
0000
0000
0000
0000
C000
C000
C000
7F00
ENDCHAR
STARTCHAR 3055
ENCODING 12373
SWIDTH 1000 0
DWIDTH 12 0
BBX 8 10 2 -1
BITMAP
08
0C
FF
04
02
02
66
60
60
3E
ENDCHAR
STARTCHAR 3056
ENCODING 12374
SWIDTH 916 0
DWIDTH 11 0
BBX 10 10 1 0
BITMAP
0940
0C00
FF00
0400
0200
0200
6600
6000
6000
3E00
ENDCHAR
STARTCHAR 3057
ENCODING 12375
SWIDTH 1000 0
DWIDTH 12 0
BBX 8 10 3 -1
BITMAP
C0
C0
C0
C0
C0
C0
C0
C3
CE
78
ENDCHAR
STARTCHAR 3058
ENCODING 12376
SWIDTH 1000 0
DWIDTH 12 0
BBX 8 10 3 -1
BITMAP
C0
C7
C4
C0
C0
C0
C0
C3
CE
78
ENDCHAR
STARTCHAR 3059
ENCODING 12377
SWIDTH 916 0
DWIDTH 11 0
BBX 9 11 1 -2
BITMAP
0600
FF80
0600
1E00
3600
3600
3600
1C00
0400
1800
3000
ENDCHAR
STARTCHAR 305A
ENCODING 12378
SWIDTH 1000 0
DWIDTH 12 0
BBX 10 12 2 -2
BITMAP
0180
0540
FF80
0400
1C00
3C00
3400
3400
1C00
0C00
1800
3000
ENDCHAR
STARTCHAR 305B
ENCODING 12379
SWIDTH 1000 0
DWIDTH 12 0
BBX 10 10 1 -1
BITMAP
0100
3100
3100
FFC0
3100
3100
3700
3000
3000
1F80
ENDCHAR
STARTCHAR 305C
ENCODING 12380
SWIDTH 1000 0
DWIDTH 12 0
BBX 11 11 1 0
BITMAP
0020
0160
3140
3100
FFC0
3100
3100
3700
3000
3000
1F80
ENDCHAR
STARTCHAR 305D
ENCODING 12381
SWIDTH 1000 0
DWIDTH 12 0
BBX 9 9 1 0
BITMAP
3F00
0600
0C00
3F80
FE00
1800
1800
1800
0F00
ENDCHAR
STARTCHAR 305E
ENCODING 12382
SWIDTH 1000 0
DWIDTH 12 0
BBX 10 9 1 0
BITMAP
3F40
0680
0C00
3F80
FE00
1800
1800
1800
0F00
ENDCHAR
STARTCHAR 305F
ENCODING 12383
SWIDTH 916 0
DWIDTH 11 0
BBX 9 10 1 0
BITMAP
3000
3000
FC00
2000
2780
6000
6000
4800
4C00
C780
ENDCHAR
STARTCHAR 3060
ENCODING 12384
SWIDTH 1000 0
DWIDTH 12 0
BBX 10 10 1 0
BITMAP
31C0
3100
FC00
2000
2780
6000
6000
4800
4C00
C780
ENDCHAR
STARTCHAR 3061
ENCODING 12385
SWIDTH 1000 0
DWIDTH 12 0
BBX 9 10 2 -1
BITMAP
1000
1000
FF00
3000
2000
7F00
7100
0180
0300
1E00
ENDCHAR
STARTCHAR 3062
ENCODING 12386
SWIDTH 1000 0
DWIDTH 12 0
BBX 10 10 1 0
BITMAP
1140
1080
FE00
3000
2000
7F00
7100
0180
0300
1E00
ENDCHAR
STARTCHAR 3063
ENCODING 12387
SWIDTH 1000 0
DWIDTH 12 0
BBX 8 7 2 0
BITMAP
7C
C6
02
03
02
0E
38
ENDCHAR
STARTCHAR 3064
ENCODING 12388
SWIDTH 1000 0
DWIDTH 12 0
BBX 10 8 1 1
BITMAP
3F00
F180
0080
00C0
0080
0180
0700
1C00
ENDCHAR
STARTCHAR 3065
ENCODING 12389
SWIDTH 1000 0
DWIDTH 12 0
BBX 10 10 1 1
BITMAP
00C0
0080
3F00
F180
0080
00C0
0080
0180
0700
1C00
ENDCHAR
STARTCHAR 3066
ENCODING 12390
SWIDTH 1000 0
DWIDTH 12 0
BBX 9 9 1 1
BITMAP
FF80
0C00
0800
1800
1800
1800
1800
0C00
0300
ENDCHAR
STARTCHAR 3067
ENCODING 12391
SWIDTH 1000 0
DWIDTH 12 0
BBX 10 9 1 1
BITMAP
FF80
0C00
1940
1140
3000
1000
1800
0C00
0700
ENDCHAR
STARTCHAR 3068
ENCODING 12392
SWIDTH 1000 0
DWIDTH 12 0
BBX 8 10 2 -1
BITMAP
60
20
20
36
3E
70
C0
C0
C0
7F
ENDCHAR
STARTCHAR 3069
ENCODING 12393
SWIDTH 1000 0
DWIDTH 12 0
BBX 8 10 2 0
BITMAP
65
22
20
36
3E
70
C0
C0
C0
7F
ENDCHAR
STARTCHAR 306A
ENCODING 12394
SWIDTH 1000 0
DWIDTH 12 0
BBX 9 10 2 -1
BITMAP
3000
3000
F900
6180
6600
4600
DE00
B380
3280
3E00
ENDCHAR
STARTCHAR 306B
ENCODING 12395
SWIDTH 1000 0
DWIDTH 12 0
BBX 9 10 2 0
BITMAP
C000
DF00
C000
C000
C000
C000
D800
D800
CF80
C000
ENDCHAR
STARTCHAR 306C
ENCODING 12396
SWIDTH 1000 0
DWIDTH 12 0
BBX 10 10 1 0
BITMAP
0C00
6C00
3F00
3D80
6C80
78C0
DF80
DDC0
FDC0
6740
ENDCHAR
STARTCHAR 306D
ENCODING 12397
SWIDTH 1000 0
DWIDTH 12 0
BBX 10 10 1 0
BITMAP
3000
3780
3D80
F880
30C0
70C0
F7C0
BDC0
3DC0
3700
ENDCHAR
STARTCHAR 306E
ENCODING 12398
SWIDTH 1000 0
DWIDTH 12 0
BBX 10 10 1 -1
BITMAP
1E00
7F00
6D80
C880
C8C0
C8C0
D880
D180
6300
0600
ENDCHAR
STARTCHAR 306F
ENCODING 12399
SWIDTH 916 0
DWIDTH 11 0
BBX 9 10 1 -1
BITMAP
C300
C300
DF80
C300
C300
C300
DF00
D380
F380
DE00
ENDCHAR
STARTCHAR 3070
ENCODING 12400
SWIDTH 1000 0
DWIDTH 12 0
BBX 11 11 1 -1
BITMAP
0040
C3E0
C300
DF80
C300
C300
C300
DF00
D380
F380
DE00
ENDCHAR
STARTCHAR 3071
ENCODING 12401
SWIDTH 1000 0
DWIDTH 12 0
BBX 11 11 1 0
BITMAP
00C0
C3E0
C3C0
DF80
C300
C300
C300
DF00
D380
F380
DE00
ENDCHAR
STARTCHAR 3072
ENCODING 12402
SWIDTH 1000 0
DWIDTH 12 0
BBX 10 10 1 -1
BITMAP
0B00
FB00
1380
2380
63C0
6340
6300
6300
6600
3C00
ENDCHAR
STARTCHAR 3073
ENCODING 12403
SWIDTH 1000 0
DWIDTH 12 0
BBX 11 11 1 -1
BITMAP
0020
00E0
FB00
1380
2380
23C0
6360
6300
6300
6600
3E00
ENDCHAR
STARTCHAR 3074
ENCODING 12404
SWIDTH 1000 0
DWIDTH 12 0
BBX 11 11 1 -1
BITMAP
00E0
00E0
FBE0
7B00
1380
2380
6340
6300
6300
6200
3E00
ENDCHAR
STARTCHAR 3075
ENCODING 12405
SWIDTH 1083 0
DWIDTH 13 0
BBX 11 10 1 -1
BITMAP
1800
1F00
0300
0C00
0C00
0C80
26C0
6240
C360
1E00
ENDCHAR
STARTCHAR 3076
ENCODING 12406
SWIDTH 1083 0
DWIDTH 13 0
BBX 11 10 1 -1
BITMAP
1800
1E20
03E0
0C40
0C00
0C80
26C0
6240
C360
1E00
ENDCHAR
STARTCHAR 3077
ENCODING 12407
SWIDTH 1083 0
DWIDTH 13 0
BBX 11 10 1 0
BITMAP
1800
1EE0
03E0
0CE0
0C00
0C40
26C0
6260
C360
1E00
ENDCHAR
STARTCHAR 3078
ENCODING 12408
SWIDTH 1000 0
DWIDTH 12 0
BBX 10 7 1 0
BITMAP
1800
3C00
6600
C700
C380
01C0
00C0
ENDCHAR
STARTCHAR 3079
ENCODING 12409
SWIDTH 1000 0
DWIDTH 12 0
BBX 10 8 1 0
BITMAP
0080
1940
3C00
6600
C700
C380
01C0
00C0
ENDCHAR
STARTCHAR 307A
ENCODING 12410
SWIDTH 1083 0
DWIDTH 13 0
BBX 11 9 1 0
BITMAP
01C0
01E0
3DC0
6E00
6700
C380
81C0
00E0
0040
ENDCHAR
STARTCHAR 307B
ENCODING 12411
SWIDTH 1000 0
DWIDTH 12 0
BBX 10 9 1 0
BITMAP
CF80
C300
C300
DF80
C300
DF00
D380
F3C0
DE00
ENDCHAR
STARTCHAR 307C
ENCODING 12412
SWIDTH 916 0
DWIDTH 11 0
BBX 10 11 1 -1
BITMAP
0040
00C0
CF80
C300
C300
DF80
C300
DF00
D380
F380
DE00
ENDCHAR
STARTCHAR 307D
ENCODING 12413
SWIDTH 916 0
DWIDTH 11 0
BBX 10 11 1 0
BITMAP
00C0
00C0
CFC0
C300
C300
DF80
C300
DF00
D380
F380
DE00
ENDCHAR
STARTCHAR 307E
ENCODING 12414
SWIDTH 1000 0
DWIDTH 12 0
BBX 8 10 2 -1
BITMAP
18
18
FF
18
7F
18
18
7C
DF
F8
ENDCHAR
STARTCHAR 307F
ENCODING 12415
SWIDTH 1000 0
DWIDTH 12 0
BBX 10 10 1 -1
BITMAP
3C00
0400
0D00
0D80
3F80
6B80
D9C0
F340
E300
0600
ENDCHAR
STARTCHAR 3080
ENCODING 12416
SWIDTH 1000 0
DWIDTH 12 0
BBX 10 10 1 -1
BITMAP
3000
F900
3080
30C0
7000
F000
F180
E180
2180
3F00
ENDCHAR
STARTCHAR 3081
ENCODING 12417
SWIDTH 1000 0
DWIDTH 12 0
BBX 10 10 1 0
BITMAP
0200
2600
3F00
3580
7480
DCC0
D880
D980
6B00
0200
ENDCHAR
STARTCHAR 3082
ENCODING 12418
SWIDTH 916 0
DWIDTH 11 0
BBX 9 10 1 -1
BITMAP
1000
1000
FC00
3000
3000
FD80
3180
3180
3180
1F00
ENDCHAR
STARTCHAR 3083
ENCODING 12419
SWIDTH 1000 0
DWIDTH 12 0
BBX 9 9 2 0
BITMAP
1800
4800
6F00
7100
A180
3700
1000
1000
1800
ENDCHAR
STARTCHAR 3084
ENCODING 12420
SWIDTH 916 0
DWIDTH 11 0
BBX 10 10 1 0
BITMAP
0C00
6400
6F80
7880
F0C0
B080
1380
1800
1800
0800
ENDCHAR
STARTCHAR 3085
ENCODING 12421
SWIDTH 1000 0
DWIDTH 12 0
BBX 8 9 2 -1
BITMAP
18
DC
FE
DB
DB
FB
FE
10
30
ENDCHAR
STARTCHAR 3086
ENCODING 12422
SWIDTH 1000 0
DWIDTH 12 0
BBX 9 11 2 -2
BITMAP
0C00
0C00
DE00
FF00
ED80
CD80
CD80
FF00
CE00
1800
1800
ENDCHAR
STARTCHAR 3087
ENCODING 12423
SWIDTH 916 0
DWIDTH 11 0
BBX 7 9 2 -2
BITMAP
10
10
1E
10
10
70
DC
D6
F0
ENDCHAR
STARTCHAR 3088
ENCODING 12424
SWIDTH 1000 0
DWIDTH 12 0
BBX 9 11 2 -2
BITMAP
1800
1800
1800
1F00
1800
1800
1800
7800
DE00
D980
7000
ENDCHAR
STARTCHAR 3089
ENCODING 12425
SWIDTH 916 0
DWIDTH 11 0
BBX 8 10 2 0
BITMAP
78
1E
C0
C0
9C
E6
C3
02
06
3C
ENDCHAR
STARTCHAR 308A
ENCODING 12426
SWIDTH 1000 0
DWIDTH 12 0
BBX 7 11 3 -1
BITMAP
C0
DC
E4
C6
C6
C6
C6
06
0C
18
10
ENDCHAR
STARTCHAR 308B
ENCODING 12427
SWIDTH 1083 0
DWIDTH 13 0
BBX 9 9 2 0
BITMAP
7E00
0600
1800
3F00
7180
C180
9980
3580
3F00
ENDCHAR
STARTCHAR 308C
ENCODING 12428
SWIDTH 1000 0
DWIDTH 12 0
BBX 10 10 1 0
BITMAP
3000
3700
3D00
F980
3180
3100
7100
F300
B300
31C0
ENDCHAR
STARTCHAR 308D
ENCODING 12429
SWIDTH 1000 0
DWIDTH 12 0
BBX 9 9 2 0
BITMAP
7E00
0C00
1800
3E00
7300
C180
0100
0300
1E00
ENDCHAR
STARTCHAR 308E
ENCODING 12430
SWIDTH 1000 0
DWIDTH 12 0
BBX 9 9 2 -1
BITMAP
3000
3000
FF00
3B00
3180
7100
B300
3600
3000
ENDCHAR
STARTCHAR 308F
ENCODING 12431
SWIDTH 916 0
DWIDTH 11 0
BBX 10 10 1 0
BITMAP
3000
3000
3700
F980
3080
70C0
F080
B180
3700
3000
ENDCHAR
STARTCHAR 3090
ENCODING 12432
SWIDTH 1000 0
DWIDTH 12 0
BBX 10 9 1 0
BITMAP
3C00
0C00
1F00
3980
7880
D8C0
DE80
FD80
EF00
ENDCHAR
STARTCHAR 3091
ENCODING 12433
SWIDTH 1000 0
DWIDTH 12 0
BBX 10 10 1 -1
BITMAP
3E00
0C00
3F00
7100
DD80
3F00
1E00
6380
DCC0
8C40
ENDCHAR
STARTCHAR 3092
ENCODING 12434
SWIDTH 1000 0
DWIDTH 12 0
BBX 9 10 2 -1
BITMAP
1000
FE00
2000
7800
EF80
9C00
3C00
6C00
6000
3F00
ENDCHAR
STARTCHAR 3093
ENCODING 12435
SWIDTH 1000 0
DWIDTH 12 0
BBX 10 10 1 0
BITMAP
0800
1800
1000
1000
3C00
3400
6640
6640
46C0
C380
ENDCHAR
STARTCHAR 3094
ENCODING 12436
SWIDTH 1000 0
DWIDTH 12 0
BBX 10 11 2 -2
BITMAP
0080
3940
1E00
0000
7C00
C600
0300
0200
0600
0C00
3800
ENDCHAR
STARTCHAR 30A1
ENCODING 12449
SWIDTH 1000 0
DWIDTH 12 0
BBX 8 8 2 -2
BITMAP
FF
03
1A
1C
10
10
30
60
ENDCHAR
STARTCHAR 30A2
ENCODING 12450
SWIDTH 1000 0
DWIDTH 12 0
BBX 9 9 2 -1
BITMAP
FF80
0180
1900
1A00
1800
1800
1000
7000
6000
ENDCHAR
STARTCHAR 30A3
ENCODING 12451
SWIDTH 1000 0
DWIDTH 12 0
BBX 8 8 2 0
BITMAP
03
06
1C
3C
EC
0C
0C
0C
ENDCHAR
STARTCHAR 30A4
ENCODING 12452
SWIDTH 1000 0
DWIDTH 12 0
BBX 8 10 2 -1
BITMAP
01
03
06
1C
3C
EC
CC
0C
0C
0C
ENDCHAR
STARTCHAR 30A5
ENCODING 12453
SWIDTH 1000 0
DWIDTH 12 0
BBX 8 9 2 -2
BITMAP
18
18
FF
C3
C2
06
04
1C
30
ENDCHAR
STARTCHAR 30A6
ENCODING 12454
SWIDTH 1000 0
DWIDTH 12 0
BBX 8 10 2 -2
BITMAP
18
18
FF
C1
C1
C3
03
06
1C
18
ENDCHAR
STARTCHAR 30A7
ENCODING 12455
SWIDTH 1000 0
DWIDTH 12 0
BBX 8 7 2 1
BITMAP
FE
18
18
18
18
18
FF
ENDCHAR
STARTCHAR 30A8
ENCODING 12456
SWIDTH 916 0
DWIDTH 11 0
BBX 9 7 1 1
BITMAP
FF00
1800
1800
1800
1800
1800
FF80
ENDCHAR
STARTCHAR 30A9
ENCODING 12457
SWIDTH 1000 0
DWIDTH 12 0
BBX 8 9 2 -2
BITMAP
0C
0C
FF
0C
1C
2C
CC
8C
1C
ENDCHAR
STARTCHAR 30AA
ENCODING 12458
SWIDTH 1000 0
DWIDTH 12 0
BBX 9 10 2 -1
BITMAP
0600
0600
FF80
0E00
1E00
3600
6600
C600
8600
1C00
ENDCHAR
STARTCHAR 30AB
ENCODING 12459
SWIDTH 1000 0
DWIDTH 12 0
BBX 8 9 2 0
BITMAP
18
18
FF
13
33
33
63
C3
87
ENDCHAR
STARTCHAR 30AC
ENCODING 12460
SWIDTH 1000 0
DWIDTH 12 0
BBX 9 10 2 0
BITMAP
0080
1900
1800
FF00
1300
3300
3300
6300
C300
8700
ENDCHAR
STARTCHAR 30AD
ENCODING 12461
SWIDTH 1000 0
DWIDTH 12 0
BBX 9 10 2 0
BITMAP
1000
1700
FF00
9800
1800
3F80
F800
0800
0800
0C00
ENDCHAR
STARTCHAR 30AE
ENCODING 12462
SWIDTH 1000 0
DWIDTH 12 0
BBX 10 11 1 0
BITMAP
0140
18C0
0F00
7F00
0800
0C00
1F80
FC00
0C00
0400
0400
ENDCHAR
STARTCHAR 30AF
ENCODING 12463
SWIDTH 1000 0
DWIDTH 12 0
BBX 8 10 2 -1
BITMAP
18
10
3F
63
C3
86
06
0C
38
60
ENDCHAR
STARTCHAR 30B0
ENCODING 12464
SWIDTH 1000 0
DWIDTH 12 0
BBX 10 11 2 -2
BITMAP
0080
19C0
3100
3F00
6300
C300
8600
0400
1C00
3800
6000
ENDCHAR
STARTCHAR 30B1
ENCODING 12465
SWIDTH 1000 0
DWIDTH 12 0
BBX 10 11 1 -1
BITMAP
1000
1800
1000
3FC0
6200
C200
0600
0600
0C00
3800
1000
ENDCHAR
STARTCHAR 30B2
ENCODING 12466
SWIDTH 1000 0
DWIDTH 12 0
BBX 11 11 1 0
BITMAP
1040
18A0
1000
3FC0
6200
C200
0600
0600
0C00
3800
1000
ENDCHAR
STARTCHAR 30B3
ENCODING 12467
SWIDTH 1000 0
DWIDTH 12 0
BBX 8 7 2 1
BITMAP
FF
03
03
03
03
03
FF
ENDCHAR
STARTCHAR 30B4
ENCODING 12468
SWIDTH 1000 0
DWIDTH 12 0
BBX 9 9 2 1
BITMAP
0080
0100
FF00
0300
0300
0300
0300
0300
FF00
ENDCHAR
STARTCHAR 30B5
ENCODING 12469
SWIDTH 1000 0
DWIDTH 12 0
BBX 10 9 1 -1
BITMAP
3300
3300
FFC0
3300
3300
3200
0600
0600
1C00
ENDCHAR
STARTCHAR 30B6
ENCODING 12470
SWIDTH 1000 0
DWIDTH 12 0
BBX 11 10 1 -1
BITMAP
0020
3360
3300
FFC0
3300
3300
3300
0300
0600
1C00
ENDCHAR
STARTCHAR 30B7
ENCODING 12471
SWIDTH 1000 0
DWIDTH 12 0
BBX 9 9 2 0
BITMAP
6000
3000
0100
C180
6300
0600
0C00
3800
F000
ENDCHAR
STARTCHAR 30B8
ENCODING 12472
SWIDTH 1000 0
DWIDTH 12 0
BBX 9 9 2 0
BITMAP
6280
3000
0100
C180
6300
0600
0C00
3800
F000
ENDCHAR
STARTCHAR 30B9
ENCODING 12473
SWIDTH 1000 0
DWIDTH 12 0
BBX 10 9 1 0
BITMAP
7F00
0300
0200
0600
0C00
1F00
3180
E1C0
C080
ENDCHAR
STARTCHAR 30BA
ENCODING 12474
SWIDTH 1000 0
DWIDTH 12 0
BBX 10 10 1 0
BITMAP
0140
7F00
0300
0200
0600
0E00
1F00
3180
E0C0
C080
ENDCHAR
STARTCHAR 30BB
ENCODING 12475
SWIDTH 1000 0
DWIDTH 12 0
BBX 10 10 1 0
BITMAP
1800
1800
1980
3FC0
F880
1980
1B00
1800
1800
0F80
ENDCHAR
STARTCHAR 30BC
ENCODING 12476
SWIDTH 1000 0
DWIDTH 12 0
BBX 11 11 1 1
BITMAP
0040
18E0
1880
1980
3FC0
F880
1980
1B00
1800
1800
0F80
ENDCHAR
STARTCHAR 30BD
ENCODING 12477
SWIDTH 1000 0
DWIDTH 12 0
BBX 8 9 2 0
BITMAP
C3
43
62
06
06
0C
18
70
20
ENDCHAR
STARTCHAR 30BE
ENCODING 12478
SWIDTH 1000 0
DWIDTH 12 0
BBX 9 11 2 0
BITMAP
0080
0180
C200
4300
6200
0600
0600
0C00
1800
7000
2000
ENDCHAR
STARTCHAR 30BF
ENCODING 12479
SWIDTH 1000 0
DWIDTH 12 0
BBX 8 10 2 0
BITMAP
10
30
3F
63
C3
BE
0E
0C
38
70
ENDCHAR
STARTCHAR 30C0
ENCODING 12480
SWIDTH 1000 0
DWIDTH 12 0
BBX 10 11 2 -1
BITMAP
0080
11C0
3100
3F00
6300
C300
BE00
0E00
0C00
3800
7000
ENDCHAR
STARTCHAR 30C1
ENCODING 12481
SWIDTH 916 0
DWIDTH 11 0
BBX 9 10 1 -1
BITMAP
0700
7E00
4C00
0C00
FF80
0C00
0800
1800
3000
2000
ENDCHAR
STARTCHAR 30C2
ENCODING 12482
SWIDTH 916 0
DWIDTH 11 0
BBX 10 10 1 -1
BITMAP
0700
7E40
4CC0
0C00
FF80
0C00
0800
1800
3000
2000
ENDCHAR
STARTCHAR 30C3
ENCODING 12483
SWIDTH 1000 0
DWIDTH 12 0
BBX 8 8 2 -1
BITMAP
13
D3
5A
06
04
0C
18
30
ENDCHAR
STARTCHAR 30C4
ENCODING 12484
SWIDTH 1000 0
DWIDTH 12 0
BBX 9 10 1 0
BITMAP
1880
C880
4C80
6980
0100
0300
0600
0C00
3800
1000
ENDCHAR
STARTCHAR 30C5
ENCODING 12485
SWIDTH 1000 0
DWIDTH 12 0
BBX 10 11 1 0
BITMAP
0040
18C0
C800
4980
6980
4300
0300
0600
0C00
3800
1000
ENDCHAR
STARTCHAR 30C6
ENCODING 12486
SWIDTH 916 0
DWIDTH 11 0
BBX 9 9 1 -1
BITMAP
7F00
0000
0000
FF80
0C00
0800
1800
3800
7000
ENDCHAR
STARTCHAR 30C7
ENCODING 12487
SWIDTH 916 0
DWIDTH 11 0
BBX 10 10 1 0
BITMAP
0140
7E80
0000
0000
FF80
0800
0800
1800
3000
7000
ENDCHAR
STARTCHAR 30C8
ENCODING 12488
SWIDTH 1000 0
DWIDTH 12 0
BBX 6 10 4 -1
BITMAP
C0
C0
C0
C0
F8
DC
C4
C0
C0
C0
ENDCHAR
STARTCHAR 30C9
ENCODING 12489
SWIDTH 1000 0
DWIDTH 12 0
BBX 7 10 4 0
BITMAP
C4
CA
C8
C0
F8
DC
C4
C0
C0
C0
ENDCHAR
STARTCHAR 30CA
ENCODING 12490
SWIDTH 916 0
DWIDTH 11 0
BBX 9 10 1 -2
BITMAP
0C00
0C00
0C00
FF80
0C00
0800
0800
1800
3000
2000
ENDCHAR
STARTCHAR 30CB
ENCODING 12491
SWIDTH 916 0
DWIDTH 11 0
BBX 9 7 1 1
BITMAP
7F00
0000
0000
0000
0000
0000
FF80
ENDCHAR
STARTCHAR 30CC
ENCODING 12492
SWIDTH 916 0
DWIDTH 11 0
BBX 7 9 2 -1
BITMAP
FE
06
46
64
3C
1C
36
E2
80
ENDCHAR
STARTCHAR 30CD
ENCODING 12493
SWIDTH 1000 0
DWIDTH 12 0
BBX 9 11 1 -1
BITMAP
0C00
0C00
7F00
0300
0600
1C00
7F00
ED80
0C80
0C00
0C00
ENDCHAR
STARTCHAR 30CE
ENCODING 12494
SWIDTH 1000 0
DWIDTH 12 0
BBX 8 9 2 -1
BITMAP
02
03
02
06
0C
0C
18
70
E0
ENDCHAR
STARTCHAR 30CF
ENCODING 12495
SWIDTH 1000 0
DWIDTH 12 0
BBX 10 8 1 1
BITMAP
3200
3300
2100
6180
6080
4080
C0C0
80C0
ENDCHAR
STARTCHAR 30D0
ENCODING 12496
SWIDTH 1000 0
DWIDTH 12 0
BBX 10 10 1 1
BITMAP
0040
0080
3200
2300
2100
6180
6180
4080
C0C0
80C0
ENDCHAR
STARTCHAR 30D1
ENCODING 12497
SWIDTH 1083 0
DWIDTH 13 0
BBX 12 11 1 1
BITMAP
00E0
00F0
00E0
3300
3180
2180
20C0
60C0
6040
C060
C060
ENDCHAR
STARTCHAR 30D2
ENCODING 12498
SWIDTH 916 0
DWIDTH 11 0
BBX 7 9 2 0
BITMAP
C0
C2
CE
FC
E0
C0
C0
C0
7E
ENDCHAR
STARTCHAR 30D3
ENCODING 12499
SWIDTH 916 0
DWIDTH 11 0
BBX 8 10 2 1
BITMAP
05
C3
C2
CE
FC
E0
C0
C0
C0
7E
ENDCHAR
STARTCHAR 30D4
ENCODING 12500
SWIDTH 1000 0
DWIDTH 12 0
BBX 9 11 2 1
BITMAP
0380
0380
C380
C100
CF00
FC00
E000
C000
C000
C000
7F00
ENDCHAR
STARTCHAR 30D5
ENCODING 12501
SWIDTH 1000 0
DWIDTH 12 0
BBX 9 9 2 0
BITMAP
FF80
0180
0100
0300
0300
0600
0C00
3800
2000
ENDCHAR
STARTCHAR 30D6
ENCODING 12502
SWIDTH 916 0
DWIDTH 11 0
BBX 10 11 1 0
BITMAP
0040
00C0
FF80
0180
0100
0300
0300
0600
0C00
3800
2000
ENDCHAR
STARTCHAR 30D7
ENCODING 12503
SWIDTH 1083 0
DWIDTH 13 0
BBX 12 11 1 0
BITMAP
00E0
01B0
FFE0
0180
0180
0300
0300
0600
0E00
3800
2000
ENDCHAR
STARTCHAR 30D8
ENCODING 12504
SWIDTH 1000 0
DWIDTH 12 0
BBX 10 7 1 0
BITMAP
1800
3C00
6600
C300
8380
01C0
00C0
ENDCHAR
STARTCHAR 30D9
ENCODING 12505
SWIDTH 1000 0
DWIDTH 12 0
BBX 10 8 1 0
BITMAP
0080
1940
3C00
6600
C700
8380
01C0
00C0
ENDCHAR
STARTCHAR 30DA
ENCODING 12506
SWIDTH 1083 0
DWIDTH 13 0
BBX 11 9 1 0
BITMAP
01C0
01E0
39C0
7C00
6E00
C700
8380
00E0
0040
ENDCHAR
STARTCHAR 30DB
ENCODING 12507
SWIDTH 1000 0
DWIDTH 12 0
BBX 10 9 1 0
BITMAP
0C00
0C00
7FC0
0C00
2D00
2C80
6CC0
CC40
1C00
ENDCHAR
STARTCHAR 30DC
ENCODING 12508
SWIDTH 1000 0
DWIDTH 12 0
BBX 10 11 2 -1
BITMAP
0080
19C0
1800
FF80
1800
5A00
5B00
D980
9880
3800
3000
ENDCHAR
STARTCHAR 30DD
ENCODING 12509
SWIDTH 1083 0
DWIDTH 13 0
BBX 11 11 1 0
BITMAP
00E0
0CE0
0C00
7FC0
0C00
2D00
2D80
6CC0
CC60
1C00
1800
ENDCHAR
STARTCHAR 30DE
ENCODING 12510
SWIDTH 1000 0
DWIDTH 12 0
BBX 9 8 2 0
BITMAP
FF80
0180
0300
2600
3C00
1800
0C00
0400
ENDCHAR
STARTCHAR 30DF
ENCODING 12511
SWIDTH 1000 0
DWIDTH 12 0
BBX 8 10 2 0
BITMAP
78
1E
00
70
3E
04
00
F8
1F
02
ENDCHAR
STARTCHAR 30E0
ENCODING 12512
SWIDTH 1000 0
DWIDTH 12 0
BBX 10 10 1 -1
BITMAP
0800
1800
1800
1800
1000
3300
3100
2380
FFC0
8080
ENDCHAR
STARTCHAR 30E1
ENCODING 12513
SWIDTH 1000 0
DWIDTH 12 0
BBX 8 9 2 0
BITMAP
02
06
66
3C
1C
1E
37
62
C0
ENDCHAR
STARTCHAR 30E2
ENCODING 12514
SWIDTH 916 0
DWIDTH 11 0
BBX 9 9 1 0
BITMAP
7F00
1800
1800
1800
FF80
1800
1800
1800
1F00
ENDCHAR
STARTCHAR 30E3
ENCODING 12515
SWIDTH 1000 0
DWIDTH 12 0
BBX 8 9 2 -2
BITMAP
20
20
3F
F3
32
16
10
10
10
ENDCHAR
STARTCHAR 30E4
ENCODING 12516
SWIDTH 1000 0
DWIDTH 12 0
BBX 10 10 1 0
BITMAP
3000
1180
7FC0
F080
1980
1B00
1800
0800
0800
0C00
ENDCHAR
STARTCHAR 30E5
ENCODING 12517
SWIDTH 1000 0
DWIDTH 12 0
BBX 8 7 2 0
BITMAP
7E
06
06
06
04
04
FF
ENDCHAR
STARTCHAR 30E6
ENCODING 12518
SWIDTH 916 0
DWIDTH 11 0
BBX 9 7 1 1
BITMAP
7E00
0600
0600
0600
0600
0400
FF80
ENDCHAR
STARTCHAR 30E7
ENCODING 12519
SWIDTH 1000 0
DWIDTH 12 0
BBX 7 7 3 -1
BITMAP
FE
06
06
7E
06
06
FE
ENDCHAR
STARTCHAR 30E8
ENCODING 12520
SWIDTH 1000 0
DWIDTH 12 0
BBX 8 8 2 1
BITMAP
FF
03
03
FF
03
03
03
FF
ENDCHAR
STARTCHAR 30E9
ENCODING 12521
SWIDTH 1000 0
DWIDTH 12 0
BBX 8 10 2 -1
BITMAP
7E
00
00
FF
03
03
06
0C
38
20
ENDCHAR
STARTCHAR 30EA
ENCODING 12522
SWIDTH 1000 0
DWIDTH 12 0
BBX 7 10 3 -2
BITMAP
C6
C6
C6
C6
C6
C4
04
0C
18
30
ENDCHAR
STARTCHAR 30EB
ENCODING 12523
SWIDTH 1000 0
DWIDTH 12 0
BBX 10 9 1 -1
BITMAP
3600
3600
3600
3600
2640
2640
67C0
C700
8600
ENDCHAR
STARTCHAR 30EC
ENCODING 12524
SWIDTH 1000 0
DWIDTH 12 0
BBX 8 9 3 -1
BITMAP
C0
C0
C0
C0
C3
C6
DC
F0
E0
ENDCHAR
STARTCHAR 30ED
ENCODING 12525
SWIDTH 1000 0
DWIDTH 12 0
BBX 8 7 2 1
BITMAP
FF
C3
C3
C3
C3
C3
FF
ENDCHAR
STARTCHAR 30EE
ENCODING 12526
SWIDTH 916 0
DWIDTH 11 0
BBX 7 8 2 -1
BITMAP
FE
C6
C6
06
04
0C
38
20
ENDCHAR
STARTCHAR 30EF
ENCODING 12527
SWIDTH 1000 0
DWIDTH 12 0
BBX 8 9 2 0
BITMAP
FF
C3
C3
C3
02
06
0C
38
10
ENDCHAR
STARTCHAR 30F0
ENCODING 12528
SWIDTH 916 0
DWIDTH 11 0
BBX 9 10 1 0
BITMAP
0600
0600
7F80
3600
3600
3600
FF80
0600
0600
0600
ENDCHAR
STARTCHAR 30F1
ENCODING 12529
SWIDTH 916 0
DWIDTH 11 0
BBX 9 8 1 1
BITMAP
7F80
0180
0100
1A00
1800
1800
1800
FF80
ENDCHAR
STARTCHAR 30F2
ENCODING 12530
SWIDTH 1000 0
DWIDTH 12 0
BBX 8 9 2 0
BITMAP
FF
03
03
FF
06
06
1C
78
60
ENDCHAR
STARTCHAR 30F3
ENCODING 12531
SWIDTH 1000 0
DWIDTH 12 0
BBX 9 9 2 0
BITMAP
C000
6000
3180
0300
0200
0600
1C00
7800
E000
ENDCHAR
STARTCHAR 30F4
ENCODING 12532
SWIDTH 1000 0
DWIDTH 12 0
BBX 10 11 2 -2
BITMAP
0080
19C0
1900
FF00
C100
C100
C300
0300
0600
1C00
1800
ENDCHAR
STARTCHAR 30F5
ENCODING 12533
SWIDTH 1000 0
DWIDTH 12 0
BBX 8 9 2 -2
BITMAP
18
18
FF
13
33
33
23
63
C6
ENDCHAR
STARTCHAR 30F6
ENCODING 12534
SWIDTH 1000 0
DWIDTH 12 0
BBX 8 9 2 0
BITMAP
20
20
7F
CC
8C
08
18
30
20
ENDCHAR
STARTCHAR 30F7
ENCODING 12535
SWIDTH 1000 0
DWIDTH 12 0
BBX 10 11 2 -1
BITMAP
0080
0140
FF00
C300
C300
C300
0200
0600
0C00
3800
1000
ENDCHAR
STARTCHAR 30F8
ENCODING 12536
SWIDTH 916 0
DWIDTH 11 0
BBX 10 11 1 0
BITMAP
0040
06C0
0680
7F80
3600
3600
3600
FF80
0600
0600
0600
ENDCHAR
STARTCHAR 30F9
ENCODING 12537
SWIDTH 1000 0
DWIDTH 12 0
BBX 10 10 1 1
BITMAP
00C0
0080
7F80
0180
0100
1A00
1800
1800
1800
FF80
ENDCHAR
STARTCHAR 30FA
ENCODING 12538
SWIDTH 1000 0
DWIDTH 12 0
BBX 10 11 2 -1
BITMAP
0080
0140
FF00
0300
0300
FF00
0600
0600
1C00
7800
6000
ENDCHAR
STARTCHAR 3105
ENCODING 12549
SWIDTH 916 0
DWIDTH 11 0
BBX 9 10 1 -1
BITMAP
2000
2000
6000
FF80
0180
0180
0180
0180
0180
0F00
ENDCHAR
STARTCHAR 3106
ENCODING 12550
SWIDTH 1000 0
DWIDTH 12 0
BBX 8 10 2 -1
BITMAP
20
60
FF
03
23
76
1C
1E
73
C1
ENDCHAR
STARTCHAR 3107
ENCODING 12551
SWIDTH 1000 0
DWIDTH 12 0
BBX 8 9 2 0
BITMAP
FF
C3
C3
C3
C3
C3
C3
C3
C3
ENDCHAR
STARTCHAR 3108
ENCODING 12552
SWIDTH 916 0
DWIDTH 11 0
BBX 7 8 2 1
BITMAP
FE
80
80
80
80
80
80
FE
ENDCHAR
STARTCHAR 3109
ENCODING 12553
SWIDTH 1000 0
DWIDTH 12 0
BBX 9 10 2 -1
BITMAP
2000
2000
6000
FF80
1980
1180
3180
2180
6180
C700
ENDCHAR
STARTCHAR 310A
ENCODING 12554
SWIDTH 916 0
DWIDTH 11 0
BBX 9 9 1 0
BITMAP
0800
1800
FF80
1000
3000
3200
2300
7F00
7180
ENDCHAR
STARTCHAR 310B
ENCODING 12555
SWIDTH 1000 0
DWIDTH 12 0
BBX 8 9 2 -1
BITMAP
FC
0C
0C
1F
01
03
03
03
1F
ENDCHAR
STARTCHAR 310C
ENCODING 12556
SWIDTH 1000 0
DWIDTH 12 0
BBX 9 10 2 -1
BITMAP
2800
6C00
4800
FF80
1980
1980
1180
3180
6180
C700
ENDCHAR
STARTCHAR 310D
ENCODING 12557
SWIDTH 1000 0
DWIDTH 12 0
BBX 8 11 2 -1
BITMAP
20
33
62
66
C4
8C
CC
66
63
33
20
ENDCHAR
STARTCHAR 310E
ENCODING 12558
SWIDTH 916 0
DWIDTH 11 0
BBX 9 9 1 -1
BITMAP
FF80
1000
3000
3F00
0100
0300
0300
0300
1E00
ENDCHAR
STARTCHAR 310F
ENCODING 12559
SWIDTH 1000 0
DWIDTH 12 0
BBX 9 9 1 -1
BITMAP
3F80
2000
2000
2000
2000
6000
6000
4000
C000
ENDCHAR
STARTCHAR 3110
ENCODING 12560
SWIDTH 1000 0
DWIDTH 12 0
BBX 7 10 3 0
BITMAP
06
C6
C6
C6
C6
CE
FE
C6
06
06
ENDCHAR
STARTCHAR 3111
ENCODING 12561
SWIDTH 1000 0
DWIDTH 12 0
BBX 5 10 3 0
BITMAP
18
18
30
60
C0
60
30
18
18
08
ENDCHAR
STARTCHAR 3112
ENCODING 12562
SWIDTH 916 0
DWIDTH 11 0
BBX 9 9 1 -1
BITMAP
FF80
0C00
0C00
0C00
0C00
0C00
0C00
0C00
0C00
ENDCHAR
STARTCHAR 3113
ENCODING 12563
SWIDTH 916 0
DWIDTH 11 0
BBX 9 9 1 0
BITMAP
CD80
CD80
CD80
CD80
FF80
0C00
0C00
0C00
FF80
ENDCHAR
STARTCHAR 3114
ENCODING 12564
SWIDTH 1000 0
DWIDTH 12 0
BBX 9 10 2 0
BITMAP
0C00
1800
7380
4700
0C00
3C00
6C00
CC00
0C00
0C00
ENDCHAR
STARTCHAR 3115
ENCODING 12565
SWIDTH 1000 0
DWIDTH 12 0
BBX 9 9 2 -1
BITMAP
FF80
0180
0180
7F80
6000
4000
4000
C000
8000
ENDCHAR
STARTCHAR 3116
ENCODING 12566
SWIDTH 1000 0
DWIDTH 12 0
BBX 8 9 2 0
BITMAP
FF
C3
D3
D3
DB
CB
C3
C3
FF
ENDCHAR
STARTCHAR 3117
ENCODING 12567
SWIDTH 1000 0
DWIDTH 12 0
BBX 9 10 2 -1
BITMAP
FF80
3180
3100
3100
3100
3700
3000
3000
3000
3000
ENDCHAR
STARTCHAR 3118
ENCODING 12568
SWIDTH 916 0
DWIDTH 11 0
BBX 9 10 1 -1
BITMAP
0800
1800
FF80
3000
3000
3F00
0300
0300
0600
0C00
ENDCHAR
STARTCHAR 3119
ENCODING 12569
SWIDTH 1000 0
DWIDTH 12 0
BBX 8 9 2 -1
BITMAP
18
10
30
30
60
66
42
FF
F1
ENDCHAR
STARTCHAR 311A
ENCODING 12570
SWIDTH 1000 0
DWIDTH 12 0
BBX 8 10 2 -1
BITMAP
81
C3
66
3C
38
18
18
18
18
18
ENDCHAR
STARTCHAR 311B
ENCODING 12571
SWIDTH 1000 0
DWIDTH 12 0
BBX 10 9 1 0
BITMAP
FFC0
0C00
0C00
3C00
6000
6100
6180
7F00
1E00
ENDCHAR
STARTCHAR 311C
ENCODING 12572
SWIDTH 1000 0
DWIDTH 12 0
BBX 10 10 1 -1
BITMAP
0C00
0C00
FFC0
0C00
1C00
3000
6100
6180
3300
1E00
ENDCHAR
STARTCHAR 311D
ENCODING 12573
SWIDTH 916 0
DWIDTH 11 0
BBX 9 10 1 -2
BITMAP
2300
2300
2300
FF80
2300
2300
2300
2000
2000
3F00
ENDCHAR
STARTCHAR 311E
ENCODING 12574
SWIDTH 916 0
DWIDTH 11 0
BBX 9 10 1 0
BITMAP
FF80
6400
6C00
4C00
7F00
1B00
1300
3300
6200
4600
ENDCHAR
STARTCHAR 311F
ENCODING 12575
SWIDTH 1000 0
DWIDTH 12 0
BBX 9 9 1 0
BITMAP
7C00
FC00
0400
0600
0600
0200
0300
0180
0180
ENDCHAR
STARTCHAR 3120
ENCODING 12576
SWIDTH 1000 0
DWIDTH 12 0
BBX 9 9 1 0
BITMAP
1800
1100
3300
7E00
7C00
1900
3100
6F80
FC80
ENDCHAR
STARTCHAR 3121
ENCODING 12577
SWIDTH 1000 0
DWIDTH 12 0
BBX 8 9 2 -1
BITMAP
FF
03
03
66
3C
1C
36
E3
C1
ENDCHAR
STARTCHAR 3122
ENCODING 12578
SWIDTH 916 0
DWIDTH 11 0
BBX 9 10 1 -1
BITMAP
FF00
3300
2300
6200
7F80
0080
0180
0100
0300
0100
ENDCHAR
STARTCHAR 3123
ENCODING 12579
SWIDTH 1000 0
DWIDTH 12 0
BBX 8 10 2 -1
BITMAP
60
40
C0
80
FF
03
03
02
06
06
ENDCHAR
STARTCHAR 3124
ENCODING 12580
SWIDTH 1000 0
DWIDTH 12 0
BBX 9 9 2 0
BITMAP
1800
1800
FF80
1C00
1C00
3C00
2C00
6C00
CF80
ENDCHAR
STARTCHAR 3125
ENCODING 12581
SWIDTH 1000 0
DWIDTH 12 0
BBX 9 9 1 0
BITMAP
0800
0800
1800
1800
3000
3000
6000
6000
FF80
ENDCHAR
STARTCHAR 3126
ENCODING 12582
SWIDTH 916 0
DWIDTH 11 0
BBX 9 9 1 -1
BITMAP
3400
3400
3400
3400
3400
2400
6400
6600
C780
ENDCHAR
STARTCHAR 3127
ENCODING 12583
SWIDTH 1000 0
DWIDTH 12 0
BBX 2 10 5 -1
BITMAP
C0
C0
C0
C0
C0
C0
C0
C0
C0
C0
ENDCHAR
STARTCHAR 3128
ENCODING 12584
SWIDTH 1000 0
DWIDTH 12 0
BBX 8 9 2 0
BITMAP
03
C2
66
3C
1C
1C
36
63
C1
ENDCHAR
STARTCHAR 3129
ENCODING 12585
SWIDTH 1000 0
DWIDTH 12 0
BBX 8 9 2 0
BITMAP
C3
C3
C3
C3
C3
C3
C3
C3
FF
ENDCHAR
STARTCHAR 3220
ENCODING 12832
SWIDTH 1000 0
DWIDTH 12 0
BBX 12 11 0 -1
BITMAP
4040
4060
8020
8020
BFA0
BFB0
8030
8020
8020
4060
4040
ENDCHAR
STARTCHAR 3221
ENCODING 12833
SWIDTH 1000 0
DWIDTH 12 0
BBX 12 11 0 -1
BITMAP
4040
4020
DFA0
C030
C030
C030
C030
FFB0
FFA0
4060
4040
ENDCHAR
STARTCHAR 3222
ENCODING 12834
SWIDTH 1000 0
DWIDTH 12 0
BBX 12 10 0 -1
BITMAP
4040
9FE0
9FA0
8020
9F30
8030
8020
BFA0
BFE0
4040
ENDCHAR
STARTCHAR 3223
ENCODING 12835
SWIDTH 1000 0
DWIDTH 12 0
BBX 12 11 0 -2
BITMAP
4060
4020
FFE0
FFF0
FFF0
FBF0
FBF0
F0F0
FFF0
70E0
4020
ENDCHAR
STARTCHAR 3224
ENCODING 12836
SWIDTH 1000 0
DWIDTH 12 0
BBX 12 11 0 -1
BITMAP
4040
4060
FFA0
C830
FFB0
C9B0
C9B0
D9B0
7FA0
4060
0040
ENDCHAR
STARTCHAR 3225
ENCODING 12837
SWIDTH 1000 0
DWIDTH 12 0
BBX 12 10 0 -1
BITMAP
4020
4420
C630
FFF0
C030
CD30
C9B0
D8B0
70E0
4020
ENDCHAR
STARTCHAR 3226
ENCODING 12838
SWIDTH 1000 0
DWIDTH 12 0
BBX 12 11 0 -1
BITMAP
4020
4C20
4C20
CC70
DFF0
FC30
CC30
CCF0
4CB0
4FA0
6020
ENDCHAR
STARTCHAR 3227
ENCODING 12839
SWIDTH 1000 0
DWIDTH 12 0
BBX 12 11 0 -1
BITMAP
4040
4F20
CF20
CF30
CB30
CB30
D930
D9B0
F0B0
40A0
6040
ENDCHAR
STARTCHAR 3228
ENCODING 12840
SWIDTH 1000 0
DWIDTH 12 0
BBX 12 11 0 -1
BITMAP
4060
4C20
CC20
FF30
CF30
CB30
CBB0
DBF0
F3F0
4020
4060
ENDCHAR
STARTCHAR 3229
ENCODING 12841
SWIDTH 1000 0
DWIDTH 12 0
BBX 12 11 0 -1
BITMAP
4020
4620
C630
C630
FFF0
C630
C630
C630
4620
4620
0040
ENDCHAR
STARTCHAR 3231
ENCODING 12849
SWIDTH 1000 0
DWIDTH 12 0
BBX 12 11 0 -2
BITMAP
4040
7320
B720
BFE0
B720
B7F0
BB30
F7A0
B760
7320
4000
ENDCHAR
STARTCHAR 32A3
ENCODING 12963
SWIDTH 1000 0
DWIDTH 12 0
BBX 12 12 0 -2
BITMAP
1F00
31C0
6060
DFE0
C420
DF30
DC30
DC20
DC20
7FE0
30C0
1F80
ENDCHAR
STARTCHAR 338E
ENCODING 13198
SWIDTH 1000 0
DWIDTH 12 0
BBX 12 10 0 -3
BITMAP
ECF0
F5B0
F7B0
F7B0
F7B0
F7B0
F6F0
0030
0020
00E0
ENDCHAR
STARTCHAR 338F
ENCODING 13199
SWIDTH 1000 0
DWIDTH 12 0
BBX 10 13 1 -3
BITMAP
C000
C000
C000
D3C0
D6C0
E6C0
E6C0
E6C0
D6C0
D3C0
00C0
00C0
0380
ENDCHAR
STARTCHAR 339C
ENCODING 13212
SWIDTH 1000 0
DWIDTH 12 0
BBX 12 7 0 0
BITMAP
EBA0
FAE0
FEF0
FEF0
FEF0
FEF0
FEF0
ENDCHAR
STARTCHAR 339D
ENCODING 13213
SWIDTH 1000 0
DWIDTH 12 0
BBX 12 7 0 0
BITMAP
6F60
CDA0
CDB0
CDB0
CDB0
CDB0
6DB0
ENDCHAR
STARTCHAR 339E
ENCODING 13214
SWIDTH 1000 0
DWIDTH 12 0
BBX 12 10 0 0
BITMAP
C000
C000
C000
DF60
EDA0
EDB0
EDB0
EDB0
EDB0
DDB0
ENDCHAR
STARTCHAR 33A1
ENCODING 13217
SWIDTH 1000 0
DWIDTH 12 0
BBX 11 10 1 0
BITMAP
00C0
0060
00C0
FDE0
F600
F600
F600
F600
F600
F600
ENDCHAR
STARTCHAR 33C4
ENCODING 13252
SWIDTH 1000 0
DWIDTH 12 0
BBX 10 7 1 0
BITMAP
79C0
C300
C600
C600
C200
C300
7BC0
ENDCHAR
STARTCHAR 33CE
ENCODING 13262
SWIDTH 1000 0
DWIDTH 12 0
BBX 12 9 0 0
BITMAP
D670
D770
F770
E770
E7B0
E7B0
F6B0
D630
DE30
ENDCHAR
STARTCHAR 33D1
ENCODING 13265
SWIDTH 1000 0
DWIDTH 12 0
BBX 10 10 1 0
BITMAP
C000
C000
C000
DF80
DC80
D8C0
D8C0
D8C0
D8C0
D8C0
ENDCHAR
STARTCHAR 33D2
ENCODING 13266
SWIDTH 1000 0
DWIDTH 12 0
BBX 12 13 0 -3
BITMAP
8000
8000
8000
9CF0
B5B0
B5B0
B7B0
B7B0
B5B0
DCF0
0030
0060
00E0
ENDCHAR
STARTCHAR 33D5
ENCODING 13269
SWIDTH 1000 0
DWIDTH 12 0
BBX 12 10 0 0
BITMAP
01A0
0020
0020
EDA0
F5A0
F7A0
F7A0
F7A0
F7A0
F7B0
ENDCHAR
STARTCHAR 3400
ENCODING 13312
SWIDTH 1000 0
DWIDTH 12 0
BBX 10 11 1 -2
BITMAP
1A00
1A00
1A00
FBC0
1A00
1A00
1A00
1A00
1A00
1A00
FFC0
ENDCHAR
STARTCHAR 3401
ENCODING 13313
SWIDTH 1000 0
DWIDTH 12 0
BBX 10 11 1 -2
BITMAP
FFC0
0C00
0C00
FFC0
CCC0
CCC0
DAC0
F1C0
C0C0
FFC0
C0C0
ENDCHAR
STARTCHAR 3402
ENCODING 13314
SWIDTH 1000 0
DWIDTH 12 0
BBX 12 11 0 -2
BITMAP
0C00
0DE0
7F00
0C40
0FC0
3180
39E0
FBC0
3180
39B0
31E0
ENDCHAR
STARTCHAR 3403
ENCODING 13315
SWIDTH 1000 0
DWIDTH 12 0
BBX 10 11 1 -1
BITMAP
0C00
1E00
3200
6100
C180
FFC0
0C00
0C00
0C00
0C00
0C00
ENDCHAR
STARTCHAR 3404
ENCODING 13316
SWIDTH 1000 0
DWIDTH 12 0
BBX 10 11 1 -1
BITMAP
0C00
0C00
FF80
8C00
8C00
8C00
FFC0
0C00
0C00
0C00
0C00
ENDCHAR
STARTCHAR 3405
ENCODING 13317
SWIDTH 1000 0
DWIDTH 12 0
BBX 9 9 1 0
BITMAP
0100
6300
3200
1E00
0C00
0E00
3300
6180
C000
ENDCHAR
STARTCHAR 3406
ENCODING 13318
SWIDTH 1000 0
DWIDTH 12 0
BBX 10 12 0 -2
BITMAP
00C0
3FC0
3000
3FC0
3FC0
30C0
3FC0
3000
3FC0
6040
6040
C3C0
ENDCHAR
STARTCHAR 3407
ENCODING 13319
SWIDTH 916 0
DWIDTH 11 0
BBX 11 11 0 -1
BITMAP
1800
7F00
1900
3120
F1E0
4000
7F80
0700
3840
6060
7FC0
ENDCHAR
STARTCHAR 3408
ENCODING 13320
SWIDTH 1000 0
DWIDTH 12 0
BBX 11 12 0 -2
BITMAP
0C00
0E00
1F00
70C0
C020
7F80
0300
0C00
3800
6060
6060
7FE0
ENDCHAR
STARTCHAR 3409
ENCODING 13321
SWIDTH 1000 0
DWIDTH 12 0
BBX 10 11 1 -2
BITMAP
FFC0
0600
0600
0600
0C00
7F80
0700
1C00
7040
4040
7FC0
ENDCHAR
STARTCHAR 340A
ENCODING 13322
SWIDTH 1000 0
DWIDTH 12 0
BBX 10 11 1 -1
BITMAP
0C00
FFC0
0C00
7F80
0000
7F80
0700
1C00
6040
C040
7F80
ENDCHAR
STARTCHAR 340B
ENCODING 13323
SWIDTH 1000 0
DWIDTH 12 0
BBX 11 12 1 -2
BITMAP
0C00
0C00
7F80
0C00
FFC0
0000
7F80
0700
1C00
7060
C040
7FC0
ENDCHAR
STARTCHAR 340C
ENCODING 13324
SWIDTH 1000 0
DWIDTH 12 0
BBX 11 11 1 0
BITMAP
2000
7FC0
4000
C800
E980
7F80
E980
6980
6B80
6060
7FC0
ENDCHAR
STARTCHAR 340D
ENCODING 13325
SWIDTH 1000 0
DWIDTH 12 0
BBX 10 10 1 0
BITMAP
FF80
4980
4900
0000
FF00
0600
3800
60C0
C0C0
FFC0
ENDCHAR
STARTCHAR 340E
ENCODING 13326
SWIDTH 1000 0
DWIDTH 12 0
BBX 10 11 1 -2
BITMAP
0800
FFC0
2300
1E00
7F80
C0C0
7F00
0600
3800
4040
7FC0
ENDCHAR
STARTCHAR 340F
ENCODING 13327
SWIDTH 1083 0
DWIDTH 13 0
BBX 11 11 1 -2
BITMAP
FF80
1000
7F80
3180
FFE0
0000
7F80
0700
3800
4040
7FC0
ENDCHAR
STARTCHAR 3410
ENCODING 13328
SWIDTH 1000 0
DWIDTH 12 0
BBX 10 12 1 -2
BITMAP
2000
67C0
FCC0
4E80
F380
7F80
C840
7F00
0600
3800
4040
7FC0
ENDCHAR
STARTCHAR 3411
ENCODING 13329
SWIDTH 1000 0
DWIDTH 12 0
BBX 10 12 1 -2
BITMAP
1800
3F80
7180
0F00
F8C0
0700
1F80
3F80
0300
1C00
6040
7FC0
ENDCHAR
STARTCHAR 3412
ENCODING 13330
SWIDTH 1000 0
DWIDTH 12 0
BBX 10 11 1 -2
BITMAP
FF80
3080
C780
7F80
4180
7F80
0000
7F00
0C00
7040
FFC0
ENDCHAR
STARTCHAR 3413
ENCODING 13331
SWIDTH 1083 0
DWIDTH 13 0
BBX 11 11 1 -2
BITMAP
FFE0
00C0
7EC0
7EC0
0380
0000
7F00
0600
1800
6060
7FC0
ENDCHAR
STARTCHAR 3414
ENCODING 13332
SWIDTH 1000 0
DWIDTH 12 0
BBX 10 11 1 -1
BITMAP
0C00
FFC0
0000
7F80
7F80
0000
7F00
0600
3800
4040
7FC0
ENDCHAR
STARTCHAR 3415
ENCODING 13333
SWIDTH 1000 0
DWIDTH 12 0
BBX 10 11 1 -2
BITMAP
0C00
FF80
CD80
FF80
CD80
FF80
FE00
0E00
3000
C0C0
FF80
ENDCHAR
STARTCHAR 3416
ENCODING 13334
SWIDTH 1000 0
DWIDTH 12 0
BBX 11 10 1 0
BITMAP
3300
FF00
3300
3300
FF00
0300
FF00
CF00
CF60
FDC0
ENDCHAR
STARTCHAR 3417
ENCODING 13335
SWIDTH 1000 0
DWIDTH 12 0
BBX 10 11 1 -1
BITMAP
7EC0
1980
FFC0
3900
FE40
3FC0
7F00
0600
3800
4040
7FC0
ENDCHAR
STARTCHAR 3418
ENCODING 13336
SWIDTH 1000 0
DWIDTH 12 0
BBX 10 11 1 -1
BITMAP
4D80
2F00
FFC0
1E00
6F80
8CC0
7F00
0E00
3000
C040
FFC0
ENDCHAR
STARTCHAR 3419
ENCODING 13337
SWIDTH 1000 0
DWIDTH 12 0
BBX 10 11 1 -2
BITMAP
FF80
0000
7F80
7F80
3300
FFC0
0000
7F00
0E00
7000
FF80
ENDCHAR
STARTCHAR 341A
ENCODING 13338
SWIDTH 1000 0
DWIDTH 12 0
BBX 10 11 1 -2
BITMAP
FF80
1000
7F80
FFC0
0000
7FC0
7FC0
7F00
0E00
7040
FF80
ENDCHAR
STARTCHAR 341B
ENCODING 13339
SWIDTH 1000 0
DWIDTH 12 0
BBX 11 11 0 -1
BITMAP
3200
6FE0
6400
EFC0
6CC0
6FC0
7F00
0700
1800
6060
7FE0
ENDCHAR
STARTCHAR 341C
ENCODING 13340
SWIDTH 1000 0
DWIDTH 12 0
BBX 11 12 1 -2
BITMAP
3300
3B00
3B00
FF80
BB80
FB80
7380
7B80
BAC0
32E0
36E0
6CE0
ENDCHAR
STARTCHAR 341D
ENCODING 13341
SWIDTH 1000 0
DWIDTH 12 0
BBX 10 11 1 -1
BITMAP
6400
FFC0
68C0
7FC0
FFC0
6FC0
E180
7F00
1C00
6040
FFC0
ENDCHAR
STARTCHAR 341E
ENCODING 13342
SWIDTH 1000 0
DWIDTH 12 0
BBX 10 11 1 -1
BITMAP
3180
FFC0
3F80
3F80
3180
FFC0
3180
FFC0
8640
3840
7FC0
ENDCHAR
STARTCHAR 341F
ENCODING 13343
SWIDTH 1000 0
DWIDTH 12 0
BBX 10 11 1 -2
BITMAP
1A00
FBC0
1A00
FBC0
FBC0
1A00
7F00
0600
3800
C040
FFC0
ENDCHAR
STARTCHAR 3420
ENCODING 13344
SWIDTH 1000 0
DWIDTH 12 0
BBX 11 11 1 -1
BITMAP
FD00
5500
7D00
0D00
FD20
31E0
0000
7F80
0E00
7040
FFC0
ENDCHAR
STARTCHAR 3421
ENCODING 13345
SWIDTH 1083 0
DWIDTH 13 0
BBX 12 11 1 -2
BITMAP
6FC0
6300
FFC0
7E40
7E40
7C00
7FC0
5380
56E0
DC30
9FE0
ENDCHAR
STARTCHAR 3422
ENCODING 13346
SWIDTH 1000 0
DWIDTH 12 0
BBX 10 11 1 -1
BITMAP
DF80
9700
DF80
0100
7FC0
8E00
FF00
0E00
3800
C0C0
FF80
ENDCHAR
STARTCHAR 3423
ENCODING 13347
SWIDTH 916 0
DWIDTH 11 0
BBX 11 13 0 -3
BITMAP
0400
7FE0
4000
7FC0
7F80
7F80
7F80
4600
7FC0
7F00
4300
FC60
BFC0
ENDCHAR
STARTCHAR 3424
ENCODING 13348
SWIDTH 1000 0
DWIDTH 12 0
BBX 11 11 1 -1
BITMAP
6FC0
6300
FFC0
7FC0
7FC0
7CC0
5FC0
5FC0
D300
DCA0
9FC0
ENDCHAR
STARTCHAR 3425
ENCODING 13349
SWIDTH 1000 0
DWIDTH 12 0
BBX 10 12 1 -1
BITMAP
6F80
BBC0
6FC0
EB40
4F40
EB40
DCC0
7F80
0600
3800
C0C0
FFC0
ENDCHAR
STARTCHAR 3426
ENCODING 13350
SWIDTH 1000 0
DWIDTH 12 0
BBX 10 11 1 -1
BITMAP
7F80
6F80
6B80
FFC0
3F80
FF40
7F80
0C00
7F00
3000
7F80
ENDCHAR
STARTCHAR 3427
ENCODING 13351
SWIDTH 1000 0
DWIDTH 12 0
BBX 10 12 1 -2
BITMAP
0600
4600
2600
1600
0600
FFC0
0E40
1E80
3600
C600
8600
0E00
ENDCHAR
STARTCHAR 3428
ENCODING 13352
SWIDTH 1083 0
DWIDTH 13 0
BBX 11 11 1 -2
BITMAP
7FC0
1840
7680
2300
FFE0
6B60
7B40
6340
6300
6300
6700
ENDCHAR
STARTCHAR 3429
ENCODING 13353
SWIDTH 1083 0
DWIDTH 13 0
BBX 11 11 1 -2
BITMAP
73C0
73C0
F7C0
73C0
73C0
73C0
F7E0
73C0
52C0
D6C0
9CC0
ENDCHAR
STARTCHAR 342A
ENCODING 13354
SWIDTH 1000 0
DWIDTH 12 0
BBX 10 10 1 0
BITMAP
0800
FFC0
0000
CD80
CD80
FF80
0C00
1C00
3300
C1C0
ENDCHAR
STARTCHAR 342B
ENCODING 13355
SWIDTH 1083 0
DWIDTH 13 0
BBX 11 11 1 0
BITMAP
0400
FFE0
0000
1300
6AC0
6CC0
6CC0
7AC0
70C0
7FC0
00C0
ENDCHAR
STARTCHAR 342C
ENCODING 13356
SWIDTH 1000 0
DWIDTH 12 0
BBX 10 11 1 -1
BITMAP
0C00
FFC0
1000
3100
FF80
0080
6F00
6F00
6F00
6F40
CDC0
ENDCHAR
STARTCHAR 342D
ENCODING 13357
SWIDTH 1000 0
DWIDTH 12 0
BBX 11 11 0 0
BITMAP
0400
FFE0
0000
7FC0
60C0
7FC0
7BC0
7FC0
60C0
7FC0
60C0
ENDCHAR
STARTCHAR 342E
ENCODING 13358
SWIDTH 1000 0
DWIDTH 12 0
BBX 10 11 1 -2
BITMAP
0400
FFC0
3380
5340
FFC0
7FC0
1300
FFC0
1CC0
F300
1CC0
ENDCHAR
STARTCHAR 342F
ENCODING 13359
SWIDTH 1000 0
DWIDTH 12 0
BBX 12 12 0 -2
BITMAP
0600
7FE0
1FC0
1FC0
7FE0
7FE0
1F80
7FE0
1F80
FFF0
1FC0
1FC0
ENDCHAR
STARTCHAR 3430
ENCODING 13360
SWIDTH 1000 0
DWIDTH 12 0
BBX 10 12 1 -1
BITMAP
2000
3FC0
78C0
78C0
F8C0
F8C0
F8C0
78C0
78C0
78C0
7FC0
78C0
ENDCHAR
STARTCHAR 3431
ENCODING 13361
SWIDTH 1000 0
DWIDTH 12 0
BBX 10 12 1 -2
BITMAP
0C00
1E00
3300
E580
8CC0
3200
6680
1980
7300
0C00
7800
4000
ENDCHAR
STARTCHAR 3432
ENCODING 13362
SWIDTH 1000 0
DWIDTH 12 0
BBX 11 11 0 -2
BITMAP
1300
1300
3300
3FE0
7200
F300
3300
3700
3480
3CC0
3860
ENDCHAR
STARTCHAR 3433
ENCODING 13363
SWIDTH 1000 0
DWIDTH 12 0
BBX 12 12 0 -1
BITMAP
1000
1FE0
3780
3780
7780
F780
3780
3580
35B0
3DB0
38E0
3840
ENDCHAR
STARTCHAR 3434
ENCODING 13364
SWIDTH 1000 0
DWIDTH 12 0
BBX 11 11 0 -1
BITMAP
1B00
1200
33E0
3420
7460
FE40
39C0
3080
3100
3600
3C00
ENDCHAR
STARTCHAR 3435
ENCODING 13365
SWIDTH 1000 0
DWIDTH 12 0
BBX 10 12 1 -1
BITMAP
2000
3F80
6300
6300
E300
FFC0
6300
6300
6300
6300
6E00
6C00
ENDCHAR
STARTCHAR 3436
ENCODING 13366
SWIDTH 1000 0
DWIDTH 12 0
BBX 10 11 1 -1
BITMAP
2000
3FC0
70C0
70C0
F0C0
FFC0
7000
7000
70C0
70C0
7FC0
ENDCHAR
STARTCHAR 3437
ENCODING 13367
SWIDTH 1000 0
DWIDTH 12 0
BBX 10 12 1 -2
BITMAP
2000
3F80
6080
6880
F980
F980
FFC0
60C0
7FC0
60C0
60C0
63C0
ENDCHAR
STARTCHAR 3438
ENCODING 13368
SWIDTH 1000 0
DWIDTH 12 0
BBX 10 12 1 -2
BITMAP
2400
2C00
6FC0
6840
FE80
F680
6600
6600
6500
6D80
78C0
7040
ENDCHAR
STARTCHAR 3439
ENCODING 13369
SWIDTH 1000 0
DWIDTH 12 0
BBX 12 11 0 -1
BITMAP
1400
17E0
3800
7FC0
7000
FFC0
30C0
30C0
30E0
30F0
30E0
ENDCHAR
STARTCHAR 343A
ENCODING 13370
SWIDTH 1000 0
DWIDTH 12 0
BBX 11 11 1 -1
BITMAP
2580
2D80
6980
7980
F980
F980
7980
7B80
7A40
7E60
7C20
ENDCHAR
STARTCHAR 343B
ENCODING 13371
SWIDTH 1000 0
DWIDTH 12 0
BBX 10 12 1 -2
BITMAP
2600
2600
7FC0
76C0
F6C0
F6C0
77C0
7DC0
78C0
70C0
71C0
7000
ENDCHAR
STARTCHAR 343C
ENCODING 13372
SWIDTH 1000 0
DWIDTH 12 0
BBX 10 11 1 -1
BITMAP
2780
3D80
6D80
ED80
FFC0
6D80
6D80
6980
6980
7980
7180
ENDCHAR
STARTCHAR 343D
ENCODING 13373
SWIDTH 1000 0
DWIDTH 12 0
BBX 11 11 1 -1
BITMAP
2000
3FC0
78C0
7DC0
FDC0
FEC0
FAC0
7EC0
75C0
7DE0
60E0
ENDCHAR
STARTCHAR 343E
ENCODING 13374
SWIDTH 1000 0
DWIDTH 12 0
BBX 12 11 0 -1
BITMAP
1000
1FC0
3000
3000
7FE0
F780
3780
3780
35A0
3DB0
38E0
ENDCHAR
STARTCHAR 343F
ENCODING 13375
SWIDTH 916 0
DWIDTH 11 0
BBX 10 12 1 -2
BITMAP
2000
27C0
6F00
6300
EFC0
E300
6300
7FC0
6300
6300
6300
6600
ENDCHAR
STARTCHAR 3440
ENCODING 13376
SWIDTH 1000 0
DWIDTH 12 0
BBX 10 12 1 -2
BITMAP
2600
2600
6600
7FC0
E600
E600
6600
6500
6D00
6880
7EC0
7240
ENDCHAR
STARTCHAR 3441
ENCODING 13377
SWIDTH 1000 0
DWIDTH 12 0
BBX 10 12 1 -1
BITMAP
2600
2600
7EC0
7EC0
FEC0
FFC0
6600
7EC0
7EC0
7EC0
7FC0
60C0
ENDCHAR
STARTCHAR 3442
ENCODING 13378
SWIDTH 1000 0
DWIDTH 12 0
BBX 10 12 1 -2
BITMAP
2000
3FC0
6600
6600
FFC0
FEC0
FEC0
7FC0
7DC0
78C0
78C0
79C0
ENDCHAR
STARTCHAR 3443
ENCODING 13379
SWIDTH 1000 0
DWIDTH 12 0
BBX 11 12 0 -2
BITMAP
1580
1580
3980
3BE0
7DE0
7DE0
F5E0
35E0
3BE0
3F60
3160
32E0
ENDCHAR
STARTCHAR 3444
ENCODING 13380
SWIDTH 1000 0
DWIDTH 12 0
BBX 11 11 0 -1
BITMAP
1FE0
2A60
2B60
6960
7FE0
EA60
2B60
2960
2FE0
21C0
21C0
ENDCHAR
STARTCHAR 3445
ENCODING 13381
SWIDTH 1000 0
DWIDTH 12 0
BBX 10 11 1 -1
BITMAP
2400
2C00
6FC0
6A00
FA00
F200
63C0
6200
6200
6200
7FC0
ENDCHAR
STARTCHAR 3446
ENCODING 13382
SWIDTH 1083 0
DWIDTH 13 0
BBX 11 11 1 -1
BITMAP
3FC0
78C0
78C0
F8C0
FFC0
6700
6F00
6F00
6F20
79E0
7000
ENDCHAR
STARTCHAR 3447
ENCODING 13383
SWIDTH 1000 0
DWIDTH 12 0
BBX 10 11 1 0
BITMAP
2400
2F80
7980
7100
FFC0
E0C0
60C0
7FC0
60C0
60C0
7FC0
ENDCHAR
STARTCHAR 3448
ENCODING 13384
SWIDTH 1000 0
DWIDTH 12 0
BBX 11 11 0 0
BITMAP
1200
3FE0
3400
7700
7B00
FFE0
3300
3740
3B60
3B20
3700
ENDCHAR
STARTCHAR 3449
ENCODING 13385
SWIDTH 1000 0
DWIDTH 12 0
BBX 11 11 1 -1
BITMAP
3FC0
70C0
7FC0
F4C0
F7C0
F9C0
7DC0
72C0
76C0
74E0
68C0
ENDCHAR
STARTCHAR 344A
ENCODING 13386
SWIDTH 1000 0
DWIDTH 12 0
BBX 12 11 0 -2
BITMAP
1200
1100
3FE0
3780
7FC0
FFC0
3FA0
3FA0
37B0
3580
3D80
ENDCHAR
STARTCHAR 344B
ENCODING 13387
SWIDTH 1000 0
DWIDTH 12 0
BBX 10 12 1 -1
BITMAP
0F00
2F00
7FC0
7FC0
FFC0
FFC0
7FC0
7FC0
7FC0
7FC0
7FC0
70C0
ENDCHAR
STARTCHAR 344C
ENCODING 13388
SWIDTH 1000 0
DWIDTH 12 0
BBX 11 11 0 -1
BITMAP
1FE0
3800
3BE0
7980
7980
FBE0
3980
3BE0
3800
3FE0
3000
ENDCHAR
STARTCHAR 344D
ENCODING 13389
SWIDTH 1000 0
DWIDTH 12 0
BBX 11 11 1 -1
BITMAP
2600
3FC0
6600
7F80
E600
FFC0
6700
6F80
7EC0
7660
6600
ENDCHAR
STARTCHAR 344E
ENCODING 13390
SWIDTH 1000 0
DWIDTH 12 0
BBX 11 12 1 0
BITMAP
2A40
3E80
7580
7EC0
EB60
E600
6600
7EC0
7EC0
7EC0
7FC0
00C0
ENDCHAR
STARTCHAR 344F
ENCODING 13391
SWIDTH 1000 0
DWIDTH 12 0
BBX 10 11 1 -1
BITMAP
2200
7FC0
7840
F9C0
FFC0
6180
6D80
6580
6180
6180
6380
ENDCHAR
STARTCHAR 3450
ENCODING 13392
SWIDTH 1000 0
DWIDTH 12 0
BBX 10 11 1 -1
BITMAP
2200
63C0
6200
E200
FFC0
E200
6A80
6AC0
7A40
7200
6600
ENDCHAR
STARTCHAR 3451
ENCODING 13393
SWIDTH 1000 0
DWIDTH 12 0
BBX 10 11 1 -1
BITMAP
2600
7FC0
78C0
F8C0
FFC0
F8C0
7FC0
78C0
78C0
7FC0
78C0
ENDCHAR
STARTCHAR 3452
ENCODING 13394
SWIDTH 1000 0
DWIDTH 12 0
BBX 10 11 1 -2
BITMAP
0C00
1E00
3300
FFC0
8C40
7F80
6D80
7F80
1C00
3200
E1C0
ENDCHAR
STARTCHAR 3453
ENCODING 13395
SWIDTH 1000 0
DWIDTH 12 0
BBX 11 12 0 -2
BITMAP
0200
2680
24C0
2FE0
6400
7FE0
E400
2FC0
2C40
2A80
3380
2E60
ENDCHAR
STARTCHAR 3454
ENCODING 13396
SWIDTH 1000 0
DWIDTH 12 0
BBX 10 11 1 -1
BITMAP
3FC0
6300
7FC0
F8C0
FBC0
7BC0
7BC0
7AC0
6780
7CC0
7840
ENDCHAR
STARTCHAR 3455
ENCODING 13397
SWIDTH 1000 0
DWIDTH 12 0
BBX 11 12 0 -2
BITMAP
0300
3F20
2F20
2FE0
6400
E7E0
2C60
3E40
2280
2100
2600
2800
ENDCHAR
STARTCHAR 3456
ENCODING 13398
SWIDTH 1000 0
DWIDTH 12 0
BBX 11 11 0 -1
BITMAP
1580
1580
3FE0
3FE0
7FE0
FFE0
3FE0
3FE0
3D80
3D80
3D80
ENDCHAR
STARTCHAR 3457
ENCODING 13399
SWIDTH 1000 0
DWIDTH 12 0
BBX 12 11 0 -1
BITMAP
1300
1FE0
3C60
7FE0
7C60
FFE0
3C70
3FE0
30E0
3760
3CC0
ENDCHAR
STARTCHAR 3458
ENCODING 13400
SWIDTH 1000 0
DWIDTH 12 0
BBX 10 11 1 -2
BITMAP
2180
21C0
7FC0
6180
FDC0
FDC0
7FC0
7C80
7480
77C0
7440
ENDCHAR
STARTCHAR 3459
ENCODING 13401
SWIDTH 1000 0
DWIDTH 12 0
BBX 10 12 1 -2
BITMAP
2000
3FC0
7E00
7F80
FF80
FF80
FF80
7F80
7F80
7F80
7FC0
67C0
ENDCHAR
STARTCHAR 345A
ENCODING 13402
SWIDTH 1000 0
DWIDTH 12 0
BBX 11 11 1 0
BITMAP
3DE0
7D40
7D40
FD80
FD80
FD40
7D40
7D60
7540
7580
6100
ENDCHAR
STARTCHAR 345B
ENCODING 13403
SWIDTH 1000 0
DWIDTH 12 0
BBX 10 11 1 0
BITMAP
2600
3FC0
6600
7FC0
FEC0
FEC0
7FC0
6700
6F80
7EC0
6600
ENDCHAR
STARTCHAR 345C
ENCODING 13404
SWIDTH 1000 0
DWIDTH 12 0
BBX 10 11 1 -2
BITMAP
3840
3B80
7E00
7A00
FBC0
FEC0
7AC0
7AC0
7AC0
7AC0
7CC0
ENDCHAR
STARTCHAR 345D
ENCODING 13405
SWIDTH 1000 0
DWIDTH 12 0
BBX 11 11 0 -1
BITMAP
3FE0
2100
2FC0
6100
EFE0
2000
26C0
2FE0
26C0
2CC0
28C0
ENDCHAR
STARTCHAR 345E
ENCODING 13406
SWIDTH 1000 0
DWIDTH 12 0
BBX 10 11 1 -1
BITMAP
2200
3A80
6F80
ED80
F8C0
ED80
6D80
7FC0
6980
6980
7180
ENDCHAR
STARTCHAR 345F
ENCODING 13407
SWIDTH 1000 0
DWIDTH 12 0
BBX 11 12 0 -2
BITMAP
1060
17C0
1400
3400
37E0
74C0
F4C0
34C0
3FE0
3080
34C0
3820
ENDCHAR
STARTCHAR 3460
ENCODING 13408
SWIDTH 1000 0
DWIDTH 12 0
BBX 10 12 1 0
BITMAP
2C00
3FC0
7E40
7D80
FD80
FEC0
6200
7FC0
6200
6200
7FC0
6000
ENDCHAR
STARTCHAR 3461
ENCODING 13409
SWIDTH 1000 0
DWIDTH 12 0
BBX 10 11 1 0
BITMAP
3FC0
77C0
77C0
7FC0
F7C0
F7C0
7FC0
75C0
75C0
7B00
6100
ENDCHAR
STARTCHAR 3462
ENCODING 13410
SWIDTH 1000 0
DWIDTH 12 0
BBX 10 12 1 -1
BITMAP
2C00
2FC0
7FC0
6FC0
EFC0
FFC0
6BC0
77C0
73C0
7FC0
6300
6300
ENDCHAR
STARTCHAR 3463
ENCODING 13411
SWIDTH 1000 0
DWIDTH 12 0
BBX 11 11 1 -1
BITMAP
3980
3980
7FC0
7980
FD80
FF80
7BC0
7BC0
7DA0
7980
7980
ENDCHAR
STARTCHAR 3464
ENCODING 13412
SWIDTH 1083 0
DWIDTH 13 0
BBX 11 11 1 -1
BITMAP
2580
7FE0
6580
E580
FFC0
FA40
7FC0
7A40
7A40
7FC0
7840
ENDCHAR
STARTCHAR 3465
ENCODING 13413
SWIDTH 1000 0
DWIDTH 12 0
BBX 10 11 1 -1
BITMAP
3FC0
38C0
7FC0
78C0
FFC0
EC00
6FC0
7540
6EC0
7AC0
65C0
ENDCHAR
STARTCHAR 3466
ENCODING 13414
SWIDTH 1000 0
DWIDTH 12 0
BBX 10 11 1 -2
BITMAP
2200
3FC0
78C0
7FC0
FB80
FB80
7FC0
7300
7300
74C0
6840
ENDCHAR
STARTCHAR 3467
ENCODING 13415
SWIDTH 1000 0
DWIDTH 12 0
BBX 10 12 1 -2
BITMAP
2000
3F80
6600
7FC0
EF00
FEC0
7FC0
6300
7FC0
6600
6600
6600
ENDCHAR
STARTCHAR 3468
ENCODING 13416
SWIDTH 1000 0
DWIDTH 12 0
BBX 11 11 0 -1
BITMAP
3FC0
2CC0
2FC0
6000
6C00
EFC0
2B00
2FE0
2300
2680
2C60
ENDCHAR
STARTCHAR 3469
ENCODING 13417
SWIDTH 1000 0
DWIDTH 12 0
BBX 10 12 1 -1
BITMAP
7FC0
7FC0
7FC0
FFC0
C400
4FC0
5880
7D80
6300
4600
7800
2000
ENDCHAR
STARTCHAR 346A
ENCODING 13418
SWIDTH 1000 0
DWIDTH 12 0
BBX 12 11 0 -1
BITMAP
1100
3FE0
24C0
6380
6780
FCF0
2CC0
2FC0
2FC0
28C0
28C0
ENDCHAR
STARTCHAR 346B
ENCODING 13419
SWIDTH 1000 0
DWIDTH 12 0
BBX 10 12 1 -2
BITMAP
0200
2600
2D00
78C0
7240
FF80
E180
6100
7E80
7E40
6D40
6F00
ENDCHAR
STARTCHAR 346C
ENCODING 13420
SWIDTH 1000 0
DWIDTH 12 0
BBX 11 11 1 0
BITMAP
3880
7080
7FE0
F680
F480
75E0
7D60
7960
7D60
75E0
6160
ENDCHAR
STARTCHAR 346D
ENCODING 13421
SWIDTH 1000 0
DWIDTH 12 0
BBX 11 11 0 -1
BITMAP
2FE0
2F20
2FE0
6F20
EFE0
2000
3FE0
24C0
24C0
2CC0
28C0
ENDCHAR
STARTCHAR 346E
ENCODING 13422
SWIDTH 916 0
DWIDTH 11 0
BBX 10 11 1 0
BITMAP
3FC0
76C0
7F80
E600
FF80
FF80
7E80
7F80
7FC0
6600
6600
ENDCHAR
STARTCHAR 346F
ENCODING 13423
SWIDTH 1000 0
DWIDTH 12 0
BBX 11 12 0 -2
BITMAP
1000
1FE0
3100
3FE0
7C60
7FE0
FC60
3FE0
3FE0
3280
3EE0
3820
ENDCHAR
STARTCHAR 3470
ENCODING 13424
SWIDTH 1000 0
DWIDTH 12 0
BBX 11 12 0 -2
BITMAP
1400
17C0
3440
37C0
7FE0
7300
FD60
3BC0
3DC0
37C0
3DA0
3380
ENDCHAR
STARTCHAR 3471
ENCODING 13425
SWIDTH 1000 0
DWIDTH 12 0
BBX 10 11 1 0
BITMAP
2FC0
28C0
6700
7FC0
EF40
F600
6600
7FC0
6700
6EC0
6600
ENDCHAR
STARTCHAR 3472
ENCODING 13426
SWIDTH 1000 0
DWIDTH 12 0
BBX 10 11 1 -1
BITMAP
2600
3FC0
6600
7FC0
F940
FD40
7FC0
7E40
7FC0
7E40
7EC0
ENDCHAR
STARTCHAR 3473
ENCODING 13427
SWIDTH 1000 0
DWIDTH 12 0
BBX 11 11 0 -1
BITMAP
1000
17E0
3FE0
37E0
7260
FCE0
37E0
3460
3FE0
37E0
3EE0
ENDCHAR
STARTCHAR 3474
ENCODING 13428
SWIDTH 1000 0
DWIDTH 12 0
BBX 11 11 1 -1
BITMAP
3FC0
3FC0
60C0
7FC0
FFE0
FFC0
76C0
6680
7F80
6D00
7FE0
ENDCHAR
STARTCHAR 3475
ENCODING 13429
SWIDTH 1000 0
DWIDTH 12 0
BBX 10 11 1 -1
BITMAP
6300
4FC0
6A00
DBC0
DD80
5D80
7FC0
4980
5B80
56C0
7440
ENDCHAR
STARTCHAR 3476
ENCODING 13430
SWIDTH 1000 0
DWIDTH 12 0
BBX 10 11 1 -1
BITMAP
2800
7FC0
5FC0
6000
DFC0
DDC0
4EC0
5FC0
4EC0
5FC0
5DC0
ENDCHAR
STARTCHAR 3477
ENCODING 13431
SWIDTH 1083 0
DWIDTH 13 0
BBX 12 11 1 -1
BITMAP
29E0
3FC0
7FE0
63F0
FFE0
F600
7FE0
77C0
7F80
77B0
77E0
ENDCHAR
STARTCHAR 3478
ENCODING 13432
SWIDTH 1000 0
DWIDTH 12 0
BBX 10 12 1 -1
BITMAP
0600
2600
3FC0
7FC0
78C0
FFC0
FFC0
60C0
7EC0
7EC0
7EC0
6180
ENDCHAR
STARTCHAR 3479
ENCODING 13433
SWIDTH 1000 0
DWIDTH 12 0
BBX 10 12 1 -1
BITMAP
0E00
3300
FFC0
7FC0
7FC0
6CC0
7FC0
7F80
6080
7F80
7F80
6080
ENDCHAR
STARTCHAR 347A
ENCODING 13434
SWIDTH 1000 0
DWIDTH 12 0
BBX 11 11 1 -1
BITMAP
2B00
6FC0
7B00
FFC0
EFC0
EB00
6FE0
7F80
64C0
6840
70C0
ENDCHAR
STARTCHAR 347B
ENCODING 13435
SWIDTH 1000 0
DWIDTH 12 0
BBX 10 11 1 0
BITMAP
2200
3FC0
72C0
76C0
F5C0
6640
7F00
6200
7AC0
7AC0
7FC0
ENDCHAR
STARTCHAR 347C
ENCODING 13436
SWIDTH 1083 0
DWIDTH 13 0
BBX 13 12 0 -1
BITMAP
1000
3EF0
2EB0
2FE0
6E40
6EC0
EFB8
2E70
2E70
2E70
2E70
2070
ENDCHAR
STARTCHAR 347D
ENCODING 13437
SWIDTH 1000 0
DWIDTH 12 0
BBX 10 11 1 -1
BITMAP
3A00
2A80
7FC0
7040
FFC0
ECC0
6FC0
6200
7F80
6200
7FC0
ENDCHAR
STARTCHAR 347E
ENCODING 13438
SWIDTH 1000 0
DWIDTH 12 0
BBX 11 12 0 -2
BITMAP
1300
17E0
3D60
3780
7D00
FFE0
3000
3FE0
3FE0
3FE0
3FE0
3C60
ENDCHAR
STARTCHAR 347F
ENCODING 13439
SWIDTH 1000 0
DWIDTH 12 0
BBX 10 12 1 -1
BITMAP
2B40
3580
6A40
7FC0
FEC0
FFC0
7FC0
6600
7FC0
6700
7EC0
6600
ENDCHAR
STARTCHAR 3480
ENCODING 13440
SWIDTH 916 0
DWIDTH 11 0
BBX 11 11 0 -1
BITMAP
1100
1FE0
3680
3FE0
7960
FFE0
3960
3FE0
3EE0
3FE0
38E0
ENDCHAR
STARTCHAR 3481
ENCODING 13441
SWIDTH 1000 0
DWIDTH 12 0
BBX 10 11 1 -1
BITMAP
3FC0
78C0
7FC0
FAC0
FFC0
FDC0
7FC0
7FC0
7AC0
7FC0
78C0
ENDCHAR
STARTCHAR 3482
ENCODING 13442
SWIDTH 1000 0
DWIDTH 12 0
BBX 12 12 0 -2
BITMAP
1640
1FE0
3640
37E0
71E0
FFF0
3180
3FE0
37E0
3620
37E0
3620
ENDCHAR
STARTCHAR 3483
ENCODING 13443
SWIDTH 1083 0
DWIDTH 13 0
BBX 12 11 0 -2
BITMAP
10E0
1FF0
3FC0
30C0
7FC0
FFC0
3FC0
3FC0
3F50
3A50
3960
ENDCHAR
STARTCHAR 3484
ENCODING 13444
SWIDTH 1000 0
DWIDTH 12 0
BBX 10 11 1 -1
BITMAP
2580
2FC0
6BC0
7FC0
F580
ED80
6B40
7A40
6C80
7540
7540
ENDCHAR
STARTCHAR 3485
ENCODING 13445
SWIDTH 1000 0
DWIDTH 12 0
BBX 10 12 1 -2
BITMAP
2200
7FC0
4600
4FC0
D780
DFC0
DC80
4700
5A00
4D80
7EC0
4E40
ENDCHAR
STARTCHAR 3486
ENCODING 13446
SWIDTH 1000 0
DWIDTH 12 0
BBX 11 11 1 -2
BITMAP
2600
2D80
7FE0
7FC0
F8C0
FFC0
7FC0
66C0
75C0
7FC0
7DC0
ENDCHAR
STARTCHAR 3487
ENCODING 13447
SWIDTH 1000 0
DWIDTH 12 0
BBX 10 11 1 -1
BITMAP
2800
7FC0
7FC0
FFC0
FFC0
FFC0
7FC0
7FC0
7140
7540
7540
ENDCHAR
STARTCHAR 3488
ENCODING 13448
SWIDTH 1000 0
DWIDTH 12 0
BBX 11 11 1 -1
BITMAP
3C00
6500
7FE0
F5C0
FFC0
75C0
7C80
7480
7F80
7560
6420
ENDCHAR
STARTCHAR 3489
ENCODING 13449
SWIDTH 1000 0
DWIDTH 12 0
BBX 10 12 1 -2
BITMAP
2E00
2F80
7FC0
7040
FFC0
E980
EF80
6600
7FC0
6700
6F80
7640
ENDCHAR
STARTCHAR 348A
ENCODING 13450
SWIDTH 1083 0
DWIDTH 13 0
BBX 12 12 0 -2
BITMAP
1000
1FE0
3660
3F60
77E0
FBA0
3540
3DC0
3FE0
3DC0
3FF0
3000
ENDCHAR
STARTCHAR 348B
ENCODING 13451
SWIDTH 1000 0
DWIDTH 12 0
BBX 11 12 1 -1
BITMAP
3C40
3F80
7D00
7D00
FDE0
FD40
7D40
7F40
6540
7540
7240
6040
ENDCHAR
STARTCHAR 348C
ENCODING 13452
SWIDTH 1000 0
DWIDTH 12 0
BBX 11 11 1 -2
BITMAP
2D80
3FC0
7980
6D80
F040
FFE0
7060
6F00
6D00
6960
71C0
ENDCHAR
STARTCHAR 348D
ENCODING 13453
SWIDTH 1000 0
DWIDTH 12 0
BBX 10 12 1 -2
BITMAP
2400
2900
7FC0
6900
F780
FFC0
FF00
7E80
7FC0
6640
7EC0
7640
ENDCHAR
STARTCHAR 348E
ENCODING 13454
SWIDTH 1000 0
DWIDTH 12 0
BBX 10 11 1 0
BITMAP
3F80
6400
7FC0
F980
FD40
FDC0
6D00
7DC0
6D00
7DC0
6D00
ENDCHAR
STARTCHAR 348F
ENCODING 13455
SWIDTH 1000 0
DWIDTH 12 0
BBX 11 12 0 -1
BITMAP
1000
1FE0
3FE0
7FC0
7FC0
F780
3FE0
34C0
3BE0
3080
3700
3080
ENDCHAR
STARTCHAR 3490
ENCODING 13456
SWIDTH 1000 0
DWIDTH 12 0
BBX 10 11 1 -1
BITMAP
2900
3FC0
76C0
FFC0
F0C0
FFC0
7BC0
7FC0
7BC0
7FC0
63C0
ENDCHAR
STARTCHAR 3491
ENCODING 13457
SWIDTH 1000 0
DWIDTH 12 0
BBX 11 11 0 -1
BITMAP
1FE0
3D40
3BE0
7D40
FFE0
3940
3BE0
3D40
3DE0
3800
3FE0
ENDCHAR
STARTCHAR 3492
ENCODING 13458
SWIDTH 1000 0
DWIDTH 12 0
BBX 10 11 1 -1
BITMAP
35C0
7580
7FC0
ED00
FFC0
E200
7F80
7FC0
6700
7AC0
7240
ENDCHAR
STARTCHAR 3493
ENCODING 13459
SWIDTH 1000 0
DWIDTH 12 0
BBX 10 11 1 -2
BITMAP
2300
37C0
7B00
77C0
FC80
FFC0
7FC0
7B00
7FC0
7B00
67C0
ENDCHAR
STARTCHAR 3494
ENCODING 13460
SWIDTH 1000 0
DWIDTH 12 0
BBX 11 11 0 0
BITMAP
1FE0
3BE0
3FE0
7400
7FE0
FB60
3FE0
3FE0
33E0
3FE0
30E0
ENDCHAR
STARTCHAR 3495
ENCODING 13461
SWIDTH 1083 0
DWIDTH 13 0
BBX 11 11 1 -1
BITMAP
2200
7FE0
5280
DFC0
DA80
D3C0
5E80
5FC0
4A80
5BE0
5200
ENDCHAR
STARTCHAR 3496
ENCODING 13462
SWIDTH 1000 0
DWIDTH 12 0
BBX 11 12 1 -1
BITMAP
3FE0
6580
7FC0
7A40
FFC0
FA40
FFC0
7FE0
73E0
77E0
70E0
7080
ENDCHAR
STARTCHAR 3497
ENCODING 13463
SWIDTH 1083 0
DWIDTH 13 0
BBX 11 11 1 -1
BITMAP
3FC0
6980
6F80
6F80
E980
FFC0
7FC0
7F80
6600
7F80
7FE0
ENDCHAR
STARTCHAR 3498
ENCODING 13464
SWIDTH 1000 0
DWIDTH 12 0
BBX 11 12 1 -2
BITMAP
2000
3FC0
7540
7F40
FE80
F5C0
FF60
6200
7FC0
6480
6480
7FC0
ENDCHAR
STARTCHAR 3499
ENCODING 13465
SWIDTH 1000 0
DWIDTH 12 0
BBX 11 12 1 0
BITMAP
3980
3BC0
7640
6FC0
FA40
FFC0
F580
7FE0
7FE0
7FE0
7FC0
6180
ENDCHAR
STARTCHAR 349A
ENCODING 13466
SWIDTH 1083 0
DWIDTH 13 0
BBX 12 12 0 -2
BITMAP
1000
1FE0
1D40
3FE0
3100
7FF0
FFE0
3FE0
3FE0
3720
3F70
3780
ENDCHAR
STARTCHAR 349B
ENCODING 13467
SWIDTH 1000 0
DWIDTH 12 0
BBX 11 11 0 -1
BITMAP
2FE0
2BE0
2B60
6FE0
6C80
AFE0
3FE0
3880
2FE0
2880
2FE0
ENDCHAR
STARTCHAR 349C
ENCODING 13468
SWIDTH 1000 0
DWIDTH 12 0
BBX 10 11 1 -1
BITMAP
3CC0
77C0
74C0
FFC0
F5C0
FDC0
75C0
7FC0
6000
6880
7040
ENDCHAR
STARTCHAR 349D
ENCODING 13469
SWIDTH 1083 0
DWIDTH 13 0
BBX 11 11 1 -1
BITMAP
3FE0
6D80
7FC0
F540
FFC0
E280
7FC0
79C0
7580
77C0
6CC0
ENDCHAR
STARTCHAR 349E
ENCODING 13470
SWIDTH 1000 0
DWIDTH 12 0
BBX 11 11 1 -1
BITMAP
3FE0
3000
7FE0
7200
FF80
FF80
7FE0
7FE0
77E0
77E0
7040
ENDCHAR
STARTCHAR 349F
ENCODING 13471
SWIDTH 1000 0
DWIDTH 12 0
BBX 11 13 0 -3
BITMAP
1100
3FE0
2000
2FE0
6FE0
6FE0
EFE0
20A0
3520
2340
2D40
2DC0
2620
ENDCHAR
STARTCHAR 34A0
ENCODING 13472
SWIDTH 1000 0
DWIDTH 12 0
BBX 10 11 1 -1
BITMAP
2FC0
7940
7D40
F580
FB40
7DC0
6500
7DC0
7DC0
6500
7FC0
ENDCHAR
STARTCHAR 34A1
ENCODING 13473
SWIDTH 1000 0
DWIDTH 12 0
BBX 11 12 1 -1
BITMAP
2000
3FE0
7D80
7D40
F3C0
FD80
7940
7FE0
7FC0
7FC0
7D80
6100
ENDCHAR
STARTCHAR 34A2
ENCODING 13474
SWIDTH 1000 0
DWIDTH 12 0
BBX 11 11 1 0
BITMAP
2700
2D80
7FE0
FFC0
F5C0
FFC0
7FC0
7D40
7FC0
7D40
7DC0
ENDCHAR
STARTCHAR 34A3
ENCODING 13475
SWIDTH 1000 0
DWIDTH 12 0
BBX 11 12 1 -2
BITMAP
2200
3FE0
7E80
7BC0
FE80
FFC0
FBC0
7A80
7BC0
7F40
7DC0
6780
ENDCHAR
STARTCHAR 34A4
ENCODING 13476
SWIDTH 1083 0
DWIDTH 13 0
BBX 11 11 1 -1
BITMAP
3FC0
2FC0
6FC0
70C0
FFC0
FFC0
7D40
7DC0
7DC0
7FE0
6C00
ENDCHAR
STARTCHAR 34A5
ENCODING 13477
SWIDTH 1000 0
DWIDTH 12 0
BBX 11 11 1 -1
BITMAP
3FC0
7B40
7FC0
7FC0
FB40
FFC0
7FC0
7F80
7880
7F80
7FE0
ENDCHAR
STARTCHAR 34A6
ENCODING 13478
SWIDTH 1000 0
DWIDTH 12 0
BBX 11 11 1 -1
BITMAP
3F80
3F80
7280
7F80
FFC0
FFC0
7FC0
6200
7F80
6200
7FE0
ENDCHAR
STARTCHAR 34A7
ENCODING 13479
SWIDTH 1000 0
DWIDTH 12 0
BBX 11 12 1 -2
BITMAP
4940
7D40
41C0
6B40
F740
FFC0
4940
7FC0
6F40
7F40
67E0
6300
ENDCHAR
STARTCHAR 34A8
ENCODING 13480
SWIDTH 1000 0
DWIDTH 12 0
BBX 10 11 1 -1
BITMAP
3FC0
7DC0
7740
7DC0
F7C0
FFC0
6D80
7FC0
6F00
6840
6FC0
ENDCHAR
STARTCHAR 34A9
ENCODING 13481
SWIDTH 1000 0
DWIDTH 12 0
BBX 10 12 1 -2
BITMAP
0800
2F80
6F80
7FC0
EC80
EF80
E640
7E80
7FC0
7EC0
7FC0
7FC0
ENDCHAR
STARTCHAR 34AA
ENCODING 13482
SWIDTH 1000 0
DWIDTH 12 0
BBX 12 11 0 -1
BITMAP
0E00
F1F0
7FC0
7FC0
7FC0
5380
7FC0
17E0
5F40
57C0
7FA0
ENDCHAR
STARTCHAR 34AB
ENCODING 13483
SWIDTH 1000 0
DWIDTH 12 0
BBX 11 12 1 -2
BITMAP
3F80
2000
2000
3F80
2000
FFC0
1E00
1E00
3660
3660
C3C0
8000
ENDCHAR
STARTCHAR 34AC
ENCODING 13484
SWIDTH 1000 0
DWIDTH 12 0
BBX 11 10 1 -1
BITMAP
F7C0
0300
0300
FF80
F300
F300
F300
F7C0
B060
9FC0
ENDCHAR
STARTCHAR 34AD
ENCODING 13485
SWIDTH 1000 0
DWIDTH 12 0
BBX 12 11 0 -1
BITMAP
7FC0
8E40
8E40
8E40
7FC0
7980
7980
7D80
7FB0
5E60
0400
ENDCHAR
STARTCHAR 34AE
ENCODING 13486
SWIDTH 1083 0
DWIDTH 13 0
BBX 11 10 1 -1
BITMAP
77C0
0200
0E40
F3C0
5580
5BC0
5580
5900
D220
9FE0
ENDCHAR
STARTCHAR 34AF
ENCODING 13487
SWIDTH 1000 0
DWIDTH 12 0
BBX 10 12 1 -2
BITMAP
0280
CFC0
D280
DFC0
4540
FFC0
F540
FFC0
F100
FFC0
A100
0100
ENDCHAR
STARTCHAR 34B0
ENCODING 13488
SWIDTH 1000 0
DWIDTH 12 0
BBX 10 10 1 0
BITMAP
1C00
1E00
3300
E1C0
8040
7F00
0C00
0C00
0C00
FFC0
ENDCHAR
STARTCHAR 34B1
ENCODING 13489
SWIDTH 1000 0
DWIDTH 12 0
BBX 10 12 1 -2
BITMAP
1000
1C00
1E00
6180
D0C0
3F80
6180
F300
9600
1C00
F000
C000
ENDCHAR
STARTCHAR 34B2
ENCODING 13490
SWIDTH 1000 0
DWIDTH 12 0
BBX 12 11 0 0
BITMAP
0E00
0700
19C0
E070
3FC0
30C0
30C0
3FC0
30C0
3FC0
30C0
ENDCHAR
STARTCHAR 34B3
ENCODING 13491
SWIDTH 1000 0
DWIDTH 12 0
BBX 10 11 1 -2
BITMAP
FFC0
CCC0
EEC0
EEC0
EEC0
FFC0
FFC0
DDC0
CCC0
CCC0
CD80
ENDCHAR
STARTCHAR 34B4
ENCODING 13492
SWIDTH 1083 0
DWIDTH 13 0
BBX 11 12 1 -1
BITMAP
1C00
0E00
1B00
ECE0
ECE0
6CC0
7FC0
0C00
6CC0
6CC0
7FC0
00C0
ENDCHAR
STARTCHAR 34B5
ENCODING 13493
SWIDTH 1000 0
DWIDTH 12 0
BBX 10 11 1 -1
BITMAP
0800
7FC0
60C0
60C0
7FC0
60C0
7FC0
1000
3180
E0C0
8040
ENDCHAR
STARTCHAR 34B6
ENCODING 13494
SWIDTH 1000 0
DWIDTH 12 0
BBX 12 11 0 0
BITMAP
0B00
0900
1580
74C0
FFF0
30C0
30C0
3FC0
30C0
30C0
3FC0
ENDCHAR
STARTCHAR 34B7
ENCODING 13495
SWIDTH 1083 0
DWIDTH 13 0
BBX 11 11 1 -2
BITMAP
7FC0
64C0
64C0
64C0
6AC0
79C0
60C0
FFE0
1100
71C0
C040
ENDCHAR
STARTCHAR 34B8
ENCODING 13496
SWIDTH 916 0
DWIDTH 11 0
BBX 10 11 1 -1
BITMAP
2200
3200
FF80
1800
7980
DE00
7E00
DD00
3D80
CCC0
1C00
ENDCHAR
STARTCHAR 34B9
ENCODING 13497
SWIDTH 916 0
DWIDTH 11 0
BBX 11 11 0 -1
BITMAP
FFC0
2100
FBC0
FBC0
FBC0
CA40
FBC0
FFE0
5280
CE40
0400
ENDCHAR
STARTCHAR 34BA
ENCODING 13498
SWIDTH 1000 0
DWIDTH 12 0
BBX 10 11 1 -2
BITMAP
FFC0
C0C0
D4C0
FFC0
C0C0
ECC0
EEC0
F2C0
FEC0
C0C0
C180
ENDCHAR
STARTCHAR 34BB
ENCODING 13499
SWIDTH 1000 0
DWIDTH 12 0
BBX 11 12 0 -3
BITMAP
7FC0
6040
7F40
7F40
0000
1F80
1F80
1F80
2080
1F80
1B60
F3E0
ENDCHAR
STARTCHAR 34BC
ENCODING 13500
SWIDTH 1000 0
DWIDTH 12 0
BBX 10 12 1 -1
BITMAP
3300
FFC0
3300
3F00
0C00
FFC0
EEC0
DFC0
FEC0
EEC0
CDC0
0080
ENDCHAR
STARTCHAR 34BD
ENCODING 13501
SWIDTH 1000 0
DWIDTH 12 0
BBX 10 11 1 -2
BITMAP
FFC0
FFC0
FFC0
2100
3B00
FFC0
FFC0
3300
FFC0
2780
3F80
ENDCHAR
STARTCHAR 34BE
ENCODING 13502
SWIDTH 1000 0
DWIDTH 12 0
BBX 11 11 1 -2
BITMAP
FFC0
DFC0
C0C0
DFC0
2600
FFC0
C900
FDC0
DF40
DDC0
B7E0
ENDCHAR
STARTCHAR 34BF
ENCODING 13503
SWIDTH 1000 0
DWIDTH 12 0
BBX 11 12 1 -3
BITMAP
FFC0
DFC0
DFC0
2200
FA80
BBC0
BEC0
FBC0
FBC0
BAC0
8BE0
8A00
ENDCHAR
STARTCHAR 34C0
ENCODING 13504
SWIDTH 1000 0
DWIDTH 12 0
BBX 10 11 1 -1
BITMAP
FFC0
C0C0
D8C0
1800
1C00
1F00
1980
1880
1800
1800
1800
ENDCHAR
STARTCHAR 34C1
ENCODING 13505
SWIDTH 1000 0
DWIDTH 12 0
BBX 10 5 1 5
BITMAP
FFC0
C0C0
3300
E1C0
8040
ENDCHAR
STARTCHAR 34C2
ENCODING 13506
SWIDTH 1000 0
DWIDTH 12 0
BBX 11 11 1 -2
BITMAP
FFC0
C0C0
7A00
07C0
0280
FE80
3F00
7B00
7FE0
5C60
DFC0
ENDCHAR
STARTCHAR 34C3
ENCODING 13507
SWIDTH 1000 0
DWIDTH 12 0
BBX 11 11 1 -2
BITMAP
FFE0
C0E0
2000
F780
0300
7300
7FC0
0300
7300
5360
73C0
ENDCHAR
STARTCHAR 34C4
ENCODING 13508
SWIDTH 1000 0
DWIDTH 12 0
BBX 12 11 0 -1
BITMAP
2980
7FE0
6FE0
FFE0
7180
2980
D580
7980
37B0
5BB0
64E0
ENDCHAR
STARTCHAR 34C5
ENCODING 13509
SWIDTH 1000 0
DWIDTH 12 0
BBX 10 10 1 0
BITMAP
9FC0
C300
4300
0300
0300
4300
4300
C300
8300
8700
ENDCHAR
STARTCHAR 34C6
ENCODING 13510
SWIDTH 1000 0
DWIDTH 12 0
BBX 11 11 1 -1
BITMAP
0200
C700
4D80
58C0
1C60
0D80
4F00
4C00
CCC0
8CC0
8FC0
ENDCHAR
STARTCHAR 34C7
ENCODING 13511
SWIDTH 1000 0
DWIDTH 12 0
BBX 10 11 1 -2
BITMAP
0080
DF80
4600
6600
1FC0
4600
4600
4700
CD80
98C0
3040
ENDCHAR
STARTCHAR 34C8
ENCODING 13512
SWIDTH 1000 0
DWIDTH 12 0
BBX 10 11 1 0
BITMAP
9FC0
C400
4400
4800
0FC0
58C0
78C0
F8C0
98C0
9FC0
18C0
ENDCHAR
STARTCHAR 34C9
ENCODING 13513
SWIDTH 1083 0
DWIDTH 13 0
BBX 11 11 1 -1
BITMAP
DFC0
4300
6300
1FE0
0300
2300
7FC0
58C0
58C0
DFC0
18C0
ENDCHAR
STARTCHAR 34CA
ENCODING 13514
SWIDTH 1000 0
DWIDTH 12 0
BBX 10 11 1 0
BITMAP
DFC0
58C0
7FC0
18C0
18C0
5FC0
5DC0
5DC0
DFC0
98C0
18C0
ENDCHAR
STARTCHAR 34CB
ENCODING 13515
SWIDTH 1000 0
DWIDTH 12 0
BBX 11 11 0 -1
BITMAP
4D80
4D80
5FC0
2D80
0D80
2D80
7FE0
4400
4580
D8C0
1040
ENDCHAR
STARTCHAR 34CC
ENCODING 13516
SWIDTH 916 0
DWIDTH 11 0
BBX 10 11 0 -2
BITMAP
0300
4700
6C80
1840
1FC0
0300
2300
4FC0
4300
4300
DFC0
ENDCHAR
STARTCHAR 34CD
ENCODING 13517
SWIDTH 1000 0
DWIDTH 12 0
BBX 11 12 1 -1
BITMAP
8200
9FC0
4400
4D80
0880
1FC0
4F00
4F00
CB00
9B60
B3C0
2000
ENDCHAR
STARTCHAR 34CE
ENCODING 13518
SWIDTH 1000 0
DWIDTH 12 0
BBX 11 11 0 -2
BITMAP
5FC0
40C0
4FC0
7FC0
0000
1FE0
5FE0
48C0
4500
C780
18E0
ENDCHAR
STARTCHAR 34CF
ENCODING 13519
SWIDTH 1083 0
DWIDTH 13 0
BBX 11 11 1 0
BITMAP
DFE0
5960
7D60
18E0
5FE0
5DE0
5DE0
5DE0
DFE0
98E0
18C0
ENDCHAR
STARTCHAR 34D0
ENCODING 13520
SWIDTH 1000 0
DWIDTH 12 0
BBX 10 11 1 -1
BITMAP
8600
DF80
4600
5FC0
0900
1980
4640
DF80
8600
8600
BFC0
ENDCHAR
STARTCHAR 34D1
ENCODING 13521
SWIDTH 1000 0
DWIDTH 12 0
BBX 10 11 1 -1
BITMAP
4300
5FC0
4300
7FC0
0C80
4480
5FC0
4300
DFC0
8300
0300
ENDCHAR
STARTCHAR 34D2
ENCODING 13522
SWIDTH 1000 0
DWIDTH 12 0
BBX 10 11 1 -1
BITMAP
8200
63C0
3F00
22C0
EFC0
9E00
7D80
AEC0
6E80
4EC0
5800
ENDCHAR
STARTCHAR 34D3
ENCODING 13523
SWIDTH 1000 0
DWIDTH 12 0
BBX 11 12 1 -1
BITMAP
0300
5FC0
4300
7FE0
1D60
5D60
5FE0
5B60
5FE0
DB60
9BE0
0080
ENDCHAR
STARTCHAR 34D4
ENCODING 13524
SWIDTH 1083 0
DWIDTH 13 0
BBX 11 11 1 -1
BITMAP
08C0
9EC0
DEC0
5FE0
1EC0
1FC0
5FC0
7EC0
C6C0
9EC0
B6C0
ENDCHAR
STARTCHAR 34D5
ENCODING 13525
SWIDTH 1000 0
DWIDTH 12 0
BBX 11 12 1 -2
BITMAP
0380
C340
5FC0
5300
7300
1D40
1580
5F80
5D80
54E0
B9E0
AA60
ENDCHAR
STARTCHAR 34D6
ENCODING 13526
SWIDTH 1000 0
DWIDTH 12 0
BBX 11 11 0 -2
BITMAP
5FE0
5B60
5FE0
3FE0
0FC0
5FE0
4FC0
5FC0
4300
5FE0
8300
ENDCHAR
STARTCHAR 34D7
ENCODING 13527
SWIDTH 1000 0
DWIDTH 12 0
BBX 10 12 1 -2
BITMAP
9800
BFC0
9DC0
59C0
3E80
4900
DE00
8C80
BF80
9600
BF80
EC40
ENDCHAR
STARTCHAR 34D8
ENCODING 13528
SWIDTH 1083 0
DWIDTH 13 0
BBX 11 11 1 -2
BITMAP
7FC0
40C0
7FC0
5FC0
73C0
7CC0
5FC0
4CC0
5FE0
8DE0
BFE0
ENDCHAR
STARTCHAR 34D9
ENCODING 13529
SWIDTH 1000 0
DWIDTH 12 0
BBX 10 11 1 -1
BITMAP
0800
FFC0
C2C0
D2C0
DEC0
CCC0
DEC0
F3C0
E0C0
FFC0
00C0
ENDCHAR
STARTCHAR 34DA
ENCODING 13530
SWIDTH 1000 0
DWIDTH 12 0
BBX 10 11 1 -1
BITMAP
F8C0
66C0
66C0
66C0
66C0
66C0
66C0
7EC0
F8C0
C0C0
0180
ENDCHAR
STARTCHAR 34DB
ENCODING 13531
SWIDTH 1000 0
DWIDTH 12 0
BBX 10 11 1 -2
BITMAP
0FC0
F6C0
66C0
66C0
66C0
64C0
64C0
74C0
FCC0
08C0
19C0
ENDCHAR
STARTCHAR 34DC
ENCODING 13532
SWIDTH 1000 0
DWIDTH 12 0
BBX 10 11 1 -2
BITMAP
2000
6FC0
53C0
D3C0
F3C0
22C0
52C0
D6C0
FEC0
8CC0
0DC0
ENDCHAR
STARTCHAR 34DD
ENCODING 13533
SWIDTH 1000 0
DWIDTH 12 0
BBX 10 11 1 -1
BITMAP
78C0
78C0
7BC0
FFC0
7BC0
7BC0
FFC0
5BC0
5BC0
D8C0
99C0
ENDCHAR
STARTCHAR 34DE
ENCODING 13534
SWIDTH 1083 0
DWIDTH 13 0
BBX 11 11 1 -1
BITMAP
37E0
7B60
3360
3360
7B60
3260
3260
FE60
3660
3460
38C0
ENDCHAR
STARTCHAR 34DF
ENCODING 13535
SWIDTH 1083 0
DWIDTH 13 0
BBX 11 12 1 -2
BITMAP
1860
1860
7F60
5F60
5B60
7F60
4760
7760
5B60
5C60
B460
E1C0
ENDCHAR
STARTCHAR 34E0
ENCODING 13536
SWIDTH 1000 0
DWIDTH 12 0
BBX 10 11 1 -1
BITMAP
20C0
3FC0
23C0
23C0
23C0
FFC0
CFC0
CFC0
CCC0
FDC0
0180
ENDCHAR
STARTCHAR 34E1
ENCODING 13537
SWIDTH 1000 0
DWIDTH 12 0
BBX 10 11 1 -1
BITMAP
40C0
7FC0
B3C0
B3C0
FFC0
33C0
FFC0
FFC0
FCC0
FCC0
FD80
ENDCHAR
STARTCHAR 34E2
ENCODING 13538
SWIDTH 1000 0
DWIDTH 12 0
BBX 10 11 1 0
BITMAP
20C0
3CC0
6FC0
EBC0
3BC0
3FC0
E7C0
7FC0
6FC0
6CC0
7DC0
ENDCHAR
STARTCHAR 34E3
ENCODING 13539
SWIDTH 1000 0
DWIDTH 12 0
BBX 11 11 0 -1
BITMAP
1060
2B60
4760
FB60
0360
0360
7F60
6F60
6C60
7C60
01C0
ENDCHAR
STARTCHAR 34E4
ENCODING 13540
SWIDTH 1000 0
DWIDTH 12 0
BBX 10 11 1 -1
BITMAP
30C0
FFC0
33C0
33C0
FFC0
03C0
FFC0
CFC0
CCC0
FCC0
01C0
ENDCHAR
STARTCHAR 34E5
ENCODING 13541
SWIDTH 1000 0
DWIDTH 12 0
BBX 11 11 0 -2
BITMAP
1C60
5DE0
7DE0
19E0
FFE0
07E0
7FE0
07E0
0660
FE60
00E0
ENDCHAR
STARTCHAR 34E6
ENCODING 13542
SWIDTH 1000 0
DWIDTH 12 0
BBX 10 10 1 -1
BITMAP
FCC0
33C0
23C0
FFC0
CFC0
CFC0
FFC0
CFC0
CCC0
FDC0
ENDCHAR
STARTCHAR 34E7
ENCODING 13543
SWIDTH 1000 0
DWIDTH 12 0
BBX 10 11 1 -1
BITMAP
10C0
2BC0
77C0
93C0
7FC0
0BC0
7FC0
6FC0
6CC0
6CC0
7DC0
ENDCHAR
STARTCHAR 34E8
ENCODING 13544
SWIDTH 1000 0
DWIDTH 12 0
BBX 10 12 1 -2
BITMAP
30C0
30C0
FFC0
33C0
BBC0
FFC0
FFC0
A3C0
33C0
48C0
CCC0
81C0
ENDCHAR
STARTCHAR 34E9
ENCODING 13545
SWIDTH 1000 0
DWIDTH 12 0
BBX 11 11 0 -1
BITMAP
3C60
6DE0
49E0
FFE0
7FE0
7FE0
7FE0
7FE0
5E60
5E60
C6C0
ENDCHAR
STARTCHAR 34EA
ENCODING 13546
SWIDTH 916 0
DWIDTH 11 0
BBX 9 11 1 0
BITMAP
2780
FF80
DF80
FF80
DF80
FF80
C780
D580
FD80
CF80
0800
ENDCHAR
STARTCHAR 34EB
ENCODING 13547
SWIDTH 1000 0
DWIDTH 12 0
BBX 10 12 1 0
BITMAP
1040
2040
FDC0
71C0
8FC0
FDC0
79C0
79C0
FFC0
5840
D840
9880
ENDCHAR
STARTCHAR 34EC
ENCODING 13548
SWIDTH 1000 0
DWIDTH 12 0
BBX 10 11 1 0
BITMAP
D4C0
69C0
FDC0
FFC0
49C0
4DC0
FFC0
2DC0
68C0
D9C0
8000
ENDCHAR
STARTCHAR 34ED
ENCODING 13549
SWIDTH 1000 0
DWIDTH 12 0
BBX 11 11 0 -2
BITMAP
7E60
47E0
7FE0
47E0
7FE0
7FE0
D7E0
7FE0
6660
7E60
0EC0
ENDCHAR
STARTCHAR 34EE
ENCODING 13550
SWIDTH 1000 0
DWIDTH 12 0
BBX 11 11 0 -2
BITMAP
7E60
77E0
7FE0
77E0
7FE0
67E0
7FE0
6FE0
5E60
4660
8EC0
ENDCHAR
STARTCHAR 34EF
ENCODING 13551
SWIDTH 1000 0
DWIDTH 12 0
BBX 10 11 1 -1
BITMAP
5CC0
EBC0
ABC0
FFC0
57C0
FFC0
FFC0
FFC0
FCC0
FCC0
FDC0
ENDCHAR
STARTCHAR 34F0
ENCODING 13552
SWIDTH 1000 0
DWIDTH 12 0
BBX 10 11 1 -1
BITMAP
FE40
11C0
FFC0
FFC0
FFC0
FFC0
FFC0
FFC0
C640
FEC0
0080
ENDCHAR
STARTCHAR 34F1
ENCODING 13553
SWIDTH 833 0
DWIDTH 10 0
BBX 9 12 0 -2
BITMAP
1000
1800
6E80
DE80
0E80
7E80
7E80
7E80
7E80
7E80
7680
7F80
ENDCHAR
STARTCHAR 34F2
ENCODING 13554
SWIDTH 1083 0
DWIDTH 13 0
BBX 11 11 1 -1
BITMAP
1060
7FE0
47E0
7FE0
41E0
7FE0
5FE0
7FE0
DE60
DE60
5CC0
ENDCHAR
STARTCHAR 34F3
ENCODING 13555
SWIDTH 1000 0
DWIDTH 12 0
BBX 10 11 1 0
BITMAP
FCC0
CFC0
FFC0
CFC0
FFC0
FFC0
13C0
D0C0
DDC0
F180
BFC0
ENDCHAR
STARTCHAR 34F4
ENCODING 13556
SWIDTH 1000 0
DWIDTH 12 0
BBX 10 11 1 0
BITMAP
FE40
31C0
FFC0
FFC0
FFC0
FFC0
31C0
FFC0
3840
6C40
8480
ENDCHAR
STARTCHAR 34F5
ENCODING 13557
SWIDTH 1083 0
DWIDTH 13 0
BBX 11 11 1 -2
BITMAP
EC60
ADE0
EDE0
01E0
7DE0
01E0
FDE0
41E0
7C60
0460
38C0
ENDCHAR
STARTCHAR 34F6
ENCODING 13558
SWIDTH 1000 0
DWIDTH 12 0
BBX 10 11 1 0
BITMAP
EEC0
6FC0
EFC0
6FC0
FFC0
75C0
11C0
FFC0
18C0
6CC0
8080
ENDCHAR
STARTCHAR 34F7
ENCODING 13559
SWIDTH 1000 0
DWIDTH 12 0
BBX 10 11 1 -1
BITMAP
FCC0
CFC0
FFC0
FFC0
CFC0
FFC0
33C0
FFC0
78C0
F4C0
31C0
ENDCHAR
STARTCHAR 34F8
ENCODING 13560
SWIDTH 916 0
DWIDTH 11 0
BBX 8 11 1 -2
BITMAP
FC
FD
FD
FD
FD
DD
DD
FD
31
FD
07
ENDCHAR
STARTCHAR 34F9
ENCODING 13561
SWIDTH 1000 0
DWIDTH 12 0
BBX 11 11 0 -2
BITMAP
7E60
6CE0
6EE0
4CE0
72E0
6CE0
6EE0
7AE0
4C60
9660
A0C0
ENDCHAR
STARTCHAR 34FA
ENCODING 13562
SWIDTH 1000 0
DWIDTH 12 0
BBX 11 11 0 0
BITMAP
1E60
11E0
7FE0
53E0
7FE0
5FE0
49E0
7FE0
5860
9C60
A2C0
ENDCHAR
STARTCHAR 34FB
ENCODING 13563
SWIDTH 1000 0
DWIDTH 12 0
BBX 11 12 0 -2
BITMAP
7E60
7FE0
7FE0
7FE0
01E0
7FE0
09E0
6FE0
6860
6860
FEE0
00C0
ENDCHAR
STARTCHAR 34FC
ENCODING 13564
SWIDTH 1000 0
DWIDTH 12 0
BBX 11 12 0 -2
BITMAP
1860
7E60
39E0
7FE0
5BE0
2DE0
DBE0
7FE0
1DE0
7C60
5A60
30C0
ENDCHAR
STARTCHAR 34FD
ENCODING 13565
SWIDTH 1083 0
DWIDTH 13 0
BBX 11 12 1 -1
BITMAP
3060
F660
FFE0
31E0
FFE0
C7E0
39E0
01E0
FFE0
7860
B6E0
3080
ENDCHAR
STARTCHAR 34FE
ENCODING 13566
SWIDTH 1000 0
DWIDTH 12 0
BBX 11 11 0 -2
BITMAP
7F60
63E0
7FE0
7AE0
7EE0
7EE0
78E0
5FE0
4860
DF60
88C0
ENDCHAR
STARTCHAR 34FF
ENCODING 13567
SWIDTH 1000 0
DWIDTH 12 0
BBX 11 12 0 -1
BITMAP
0660
7E60
19E0
7FE0
3DE0
59E0
2DE0
DBE0
3DE0
3C60
5AE0
3080
ENDCHAR
STARTCHAR 3500
ENCODING 13568
SWIDTH 1083 0
DWIDTH 13 0
BBX 11 11 1 -2
BITMAP
FE60
C7E0
FFE0
FFE0
31E0
FFE0
FFE0
C7E0
FFE0
7460
B2C0
ENDCHAR
STARTCHAR 3501
ENCODING 13569
SWIDTH 1000 0
DWIDTH 12 0
BBX 10 10 1 0
BITMAP
FCC0
B7C0
CFC0
FFC0
87C0
FFC0
CFC0
FFC0
70C0
FCC0
ENDCHAR
STARTCHAR 3502
ENCODING 13570
SWIDTH 1000 0
DWIDTH 12 0
BBX 10 12 1 -2
BITMAP
1000
DCC0
5BC0
FFC0
33C0
DFC0
4BC0
FFC0
BBC0
7CC0
48C0
89C0
ENDCHAR
STARTCHAR 3503
ENCODING 13571
SWIDTH 1000 0
DWIDTH 12 0
BBX 10 12 1 -2
BITMAP
4000
4780
AD00
7FC0
EEC0
FFC0
EC40
5FC0
FF80
3080
6180
C380
ENDCHAR
STARTCHAR 3504
ENCODING 13572
SWIDTH 1000 0
DWIDTH 12 0
BBX 10 11 1 -1
BITMAP
FE40
29C0
FDC0
EDC0
FDC0
55C0
59C0
FFC0
3840
D440
90C0
ENDCHAR
STARTCHAR 3505
ENCODING 13573
SWIDTH 1000 0
DWIDTH 12 0
BBX 10 11 1 -1
BITMAP
FCC0
15C0
FFC0
FDC0
FDC0
FDC0
D5C0
FDC0
FCC0
BCC0
BCC0
ENDCHAR
STARTCHAR 3506
ENCODING 13574
SWIDTH 1000 0
DWIDTH 12 0
BBX 11 11 0 -2
BITMAP
7E60
5EE0
7EE0
24E0
7EE0
DAE0
3EE0
22E0
3E60
2260
3EE0
ENDCHAR
STARTCHAR 3507
ENCODING 13575
SWIDTH 1000 0
DWIDTH 12 0
BBX 11 11 0 -1
BITMAP
7260
55E0
23E0
FFE0
1BE0
7BE0
4FE0
71E0
1E60
1660
7EC0
ENDCHAR
STARTCHAR 3508
ENCODING 13576
SWIDTH 1000 0
DWIDTH 12 0
BBX 10 11 1 -2
BITMAP
6CC0
FFC0
6FC0
6BC0
EFC0
6BC0
EFC0
6BC0
ECC0
68C0
68C0
ENDCHAR
STARTCHAR 3509
ENCODING 13577
SWIDTH 1000 0
DWIDTH 12 0
BBX 11 11 0 -2
BITMAP
7F60
83E0
7FE0
BEE0
88E0
BFE0
BFE0
7FE0
6F60
7F60
E2E0
ENDCHAR
STARTCHAR 350A
ENCODING 13578
SWIDTH 1000 0
DWIDTH 12 0
BBX 10 11 1 -1
BITMAP
FCC0
01C0
FDC0
BDC0
BDC0
FDC0
01C0
FDC0
FDC0
FCC0
FDC0
ENDCHAR
STARTCHAR 350B
ENCODING 13579
SWIDTH 1000 0
DWIDTH 12 0
BBX 11 11 0 -1
BITMAP
7460
55E0
7FE0
49E0
7FE0
73E0
01E0
7FE0
5A60
5A60
FEE0
ENDCHAR
STARTCHAR 350C
ENCODING 13580
SWIDTH 1083 0
DWIDTH 13 0
BBX 11 12 1 -3
BITMAP
F060
FE60
6BE0
6DE0
65E0
FBE0
27E0
79E0
17E0
BC60
D660
90C0
ENDCHAR
STARTCHAR 350D
ENCODING 13581
SWIDTH 1000 0
DWIDTH 12 0
BBX 11 11 0 0
BITMAP
7720
ABE0
7FE0
41E0
7FE0
7FE0
7FE0
26E0
7F20
6620
4640
ENDCHAR
STARTCHAR 350E
ENCODING 13582
SWIDTH 1000 0
DWIDTH 12 0
BBX 11 11 0 -1
BITMAP
5580
7FE0
FE40
67E0
7D80
7FE0
7D80
7FE0
0C40
1840
71C0
ENDCHAR
STARTCHAR 350F
ENCODING 13583
SWIDTH 1000 0
DWIDTH 12 0
BBX 11 11 0 -2
BITMAP
7F60
30E0
3EE0
62E0
3EE0
7FE0
44E0
7FE0
DF60
5F60
7FE0
ENDCHAR
STARTCHAR 3510
ENCODING 13584
SWIDTH 1083 0
DWIDTH 13 0
BBX 11 11 1 -1
BITMAP
7E60
ADE0
A1E0
FFE0
39E0
FFE0
FFE0
39E0
FE60
3860
FEC0
ENDCHAR
STARTCHAR 3511
ENCODING 13585
SWIDTH 1000 0
DWIDTH 12 0
BBX 10 11 1 -1
BITMAP
FFC0
1B00
FFC0
FA80
C7C0
FB00
FFC0
0000
FFC0
1880
F380
ENDCHAR
STARTCHAR 3512
ENCODING 13586
SWIDTH 1000 0
DWIDTH 12 0
BBX 11 11 0 0
BITMAP
4360
7CE0
7FE0
FFE0
7FE0
7FE0
7FE0
57E0
7F60
5F60
42C0
ENDCHAR
STARTCHAR 3513
ENCODING 13587
SWIDTH 1083 0
DWIDTH 13 0
BBX 11 11 1 -2
BITMAP
0B00
F300
37E0
3360
3360
FB60
3360
3360
3260
3660
3CC0
ENDCHAR
STARTCHAR 3514
ENCODING 13588
SWIDTH 1083 0
DWIDTH 13 0
BBX 11 11 1 -1
BITMAP
33E0
FF60
2F60
6F60
DFE0
C000
1F80
71C0
4060
60C0
3F80
ENDCHAR
STARTCHAR 3515
ENCODING 13589
SWIDTH 1000 0
DWIDTH 12 0
BBX 10 11 1 -2
BITMAP
4300
7B00
87C0
FBC0
03C0
FBC0
1BC0
1BC0
1AC0
1AC0
0EC0
ENDCHAR
STARTCHAR 3516
ENCODING 13590
SWIDTH 1083 0
DWIDTH 13 0
BBX 11 12 1 -1
BITMAP
3000
FFE0
2F60
2F60
6F60
DBE0
8000
7FE0
00E0
00E0
00E0
00E0
ENDCHAR
STARTCHAR 3517
ENCODING 13591
SWIDTH 1000 0
DWIDTH 12 0
BBX 10 11 1 -2
BITMAP
3300
FB00
3FC0
3BC0
FBC0
F3C0
FBC0
5BC0
5AC0
5EC0
9CC0
ENDCHAR
STARTCHAR 3518
ENCODING 13592
SWIDTH 1000 0
DWIDTH 12 0
BBX 10 12 1 -2
BITMAP
2300
FB00
FFC0
FBC0
FBC0
22C0
22C0
FAC0
FAC0
FEC0
FDC0
0400
ENDCHAR
STARTCHAR 3519
ENCODING 13593
SWIDTH 1000 0
DWIDTH 12 0
BBX 10 12 1 -1
BITMAP
4B00
7B00
3300
FFC0
7BC0
7BC0
FBC0
7AC0
5AC0
5AC0
DCC0
9C80
ENDCHAR
STARTCHAR 351A
ENCODING 13594
SWIDTH 1083 0
DWIDTH 13 0
BBX 11 12 1 -1
BITMAP
0300
1B00
F300
33E0
FB60
3360
3360
FB60
CB60
CA60
FEC0
0480
ENDCHAR
STARTCHAR 351B
ENCODING 13595
SWIDTH 1000 0
DWIDTH 12 0
BBX 10 11 1 -1
BITMAP
FFC0
0C00
7FC0
7F80
6180
7F80
0800
FFC0
18C0
30C0
E3C0
ENDCHAR
STARTCHAR 351C
ENCODING 13596
SWIDTH 1000 0
DWIDTH 12 0
BBX 11 11 0 -1
BITMAP
0580
7D80
5580
57E0
7DE0
0D60
1960
FD60
1B60
1A60
36E0
ENDCHAR
STARTCHAR 351D
ENCODING 13597
SWIDTH 1000 0
DWIDTH 12 0
BBX 11 11 1 0
BITMAP
FF80
1180
FFE0
97E0
9FE0
BFE0
FF60
F760
9760
96C0
0200
ENDCHAR
STARTCHAR 351E
ENCODING 13598
SWIDTH 1083 0
DWIDTH 13 0
BBX 11 12 1 -2
BITMAP
0180
7D80
1180
FFE0
11E0
59E0
DDE0
5960
5D60
5B60
1260
16C0
ENDCHAR
STARTCHAR 351F
ENCODING 13599
SWIDTH 1000 0
DWIDTH 12 0
BBX 11 11 0 -1
BITMAP
5300
7BC0
9340
7F40
1360
7E60
0C60
7FC0
0840
1840
F380
ENDCHAR
STARTCHAR 3520
ENCODING 13600
SWIDTH 1000 0
DWIDTH 12 0
BBX 11 11 0 -2
BITMAP
7D80
6D80
7DE0
7DE0
21E0
7FE0
D7E0
57E0
6F60
7760
0F60
ENDCHAR
STARTCHAR 3521
ENCODING 13601
SWIDTH 1000 0
DWIDTH 12 0
BBX 10 11 1 -1
BITMAP
2300
FF00
FFC0
BFC0
DFC0
FEC0
92C0
DEC0
92C0
9EC0
D5C0
ENDCHAR
STARTCHAR 3522
ENCODING 13602
SWIDTH 1083 0
DWIDTH 13 0
BBX 11 12 1 -2
BITMAP
2000
63C0
56C0
EFE0
7760
7FE0
7620
B7E0
0800
7FC0
1840
E1C0
ENDCHAR
STARTCHAR 3523
ENCODING 13603
SWIDTH 1000 0
DWIDTH 12 0
BBX 10 12 1 -2
BITMAP
7B00
6B00
7BC0
6BC0
7BC0
FFC0
FFC0
FFC0
FFC0
FFC0
FEC0
0280
ENDCHAR
STARTCHAR 3524
ENCODING 13604
SWIDTH 1000 0
DWIDTH 12 0
BBX 11 11 1 -1
BITMAP
FF00
8F00
7BE0
7B60
FF60
7360
BF60
FF60
FF60
FE60
FEC0
ENDCHAR
STARTCHAR 3525
ENCODING 13605
SWIDTH 1000 0
DWIDTH 12 0
BBX 10 11 1 -2
BITMAP
FF00
BF00
FFC0
5FC0
BBC0
5FC0
FFC0
FFC0
BBC0
FEC0
BEC0
ENDCHAR
STARTCHAR 3526
ENCODING 13606
SWIDTH 1000 0
DWIDTH 12 0
BBX 11 12 1 -1
BITMAP
6D80
FD80
13E0
7FE0
FDE0
5D60
FD60
7D60
7D60
5760
7EC0
4280
ENDCHAR
STARTCHAR 3527
ENCODING 13607
SWIDTH 1000 0
DWIDTH 12 0
BBX 11 12 0 -2
BITMAP
1180
1D80
7F80
53E0
7DE0
49E0
7DE0
7DE0
7DE0
7DE0
7560
BF60
ENDCHAR
STARTCHAR 3528
ENCODING 13608
SWIDTH 1000 0
DWIDTH 12 0
BBX 10 12 1 -1
BITMAP
6000
7FC0
80C0
FEC0
18C0
FEC0
7EC0
7EC0
62C0
7EC0
6780
0100
ENDCHAR
STARTCHAR 3529
ENCODING 13609
SWIDTH 1000 0
DWIDTH 12 0
BBX 10 11 1 -1
BITMAP
2000
7FC0
C0C0
FFC0
7FC0
24C0
7FC0
7FC0
5BC0
FFC0
03C0
ENDCHAR
STARTCHAR 352A
ENCODING 13610
SWIDTH 1000 0
DWIDTH 12 0
BBX 11 11 1 0
BITMAP
3000
7FE0
CF60
0860
7F60
6B60
7F60
7F60
6360
7F60
00C0
ENDCHAR
STARTCHAR 352B
ENCODING 13611
SWIDTH 1000 0
DWIDTH 12 0
BBX 11 11 1 -2
BITMAP
1800
1800
FFE0
1400
1480
3580
3700
2400
6460
C460
87C0
ENDCHAR
STARTCHAR 352C
ENCODING 13612
SWIDTH 1000 0
DWIDTH 12 0
BBX 10 11 1 -1
BITMAP
5F00
6040
7FC0
0000
7F80
7F80
4180
7F80
0C00
FFC0
0C00
ENDCHAR
STARTCHAR 352D
ENCODING 13613
SWIDTH 1000 0
DWIDTH 12 0
BBX 10 11 1 -1
BITMAP
9F80
9980
9F80
F980
9F80
8000
9FC0
9200
B380
DA00
27C0
ENDCHAR
STARTCHAR 352E
ENCODING 13614
SWIDTH 1000 0
DWIDTH 12 0
BBX 10 10 1 -1
BITMAP
FBC0
D780
FFC0
FEC0
FE00
27C0
FFC0
FF80
67C0
DFC0
ENDCHAR
STARTCHAR 352F
ENCODING 13615
SWIDTH 916 0
DWIDTH 11 0
BBX 10 11 1 -2
BITMAP
FF80
8000
BF00
B300
A380
BF00
B300
B300
BF00
8000
FFC0
ENDCHAR
STARTCHAR 3530
ENCODING 13616
SWIDTH 916 0
DWIDTH 11 0
BBX 10 11 1 -2
BITMAP
FF80
8000
9F00
B700
A780
DBC0
8B00
9300
B300
A300
FF80
ENDCHAR
STARTCHAR 3531
ENCODING 13617
SWIDTH 1000 0
DWIDTH 12 0
BBX 9 11 2 -2
BITMAP
FF80
8000
BF80
AD80
BF80
AD80
BF80
8C00
9B00
A100
FF80
ENDCHAR
STARTCHAR 3532
ENCODING 13618
SWIDTH 916 0
DWIDTH 11 0
BBX 10 11 1 -2
BITMAP
FFC0
9000
B200
FF00
FB00
FB00
FB00
F740
FD80
E400
FFC0
ENDCHAR
STARTCHAR 3533
ENCODING 13619
SWIDTH 1000 0
DWIDTH 12 0
BBX 10 11 1 -2
BITMAP
FFC0
9000
B780
FD80
FD80
FD80
FD80
F5C0
FDC0
A000
FFC0
ENDCHAR
STARTCHAR 3534
ENCODING 13620
SWIDTH 1000 0
DWIDTH 12 0
BBX 10 11 2 -2
BITMAP
FFC0
8000
BF80
BF80
A580
BF80
BF80
9A00
FF80
BB80
FFC0
ENDCHAR
STARTCHAR 3535
ENCODING 13621
SWIDTH 916 0
DWIDTH 11 0
BBX 10 11 1 -2
BITMAP
FFC0
8000
FF80
FF80
E480
BF80
FF80
9A00
FF80
FB80
FFC0
ENDCHAR
STARTCHAR 3536
ENCODING 13622
SWIDTH 1000 0
DWIDTH 12 0
BBX 10 11 1 -2
BITMAP
FFC0
8200
FF80
FEC0
8380
FFC0
CF80
FF80
FF80
96C0
FFC0
ENDCHAR
STARTCHAR 3537
ENCODING 13623
SWIDTH 1000 0
DWIDTH 12 0
BBX 9 10 2 -1
BITMAP
FF80
8000
FF80
8C00
FF80
ED80
FB80
E180
E380
FF80
ENDCHAR
STARTCHAR 3538
ENCODING 13624
SWIDTH 1000 0
DWIDTH 12 0
BBX 10 12 2 -2
BITMAP
FFC0
8180
FE00
E780
FF80
F480
FF00
F700
F700
DFC0
E980
FFC0
ENDCHAR
STARTCHAR 3539
ENCODING 13625
SWIDTH 1000 0
DWIDTH 12 0
BBX 10 11 1 -2
BITMAP
6600
6600
6FC0
F6C0
66C0
66C0
64C0
64C0
64C0
68C0
7980
ENDCHAR
STARTCHAR 353A
ENCODING 13626
SWIDTH 1083 0
DWIDTH 13 0
BBX 11 11 1 -1
BITMAP
0C00
0C00
7FC0
0C00
6D80
6180
FFE0
6180
6180
6060
3FE0
ENDCHAR
STARTCHAR 353B
ENCODING 13627
SWIDTH 1083 0
DWIDTH 13 0
BBX 11 11 1 -1
BITMAP
7FC0
0C00
1F00
7DC0
CC60
0000
0C00
FFE0
0C00
0C00
0C00
ENDCHAR
STARTCHAR 353C
ENCODING 13628
SWIDTH 1000 0
DWIDTH 12 0
BBX 10 11 1 0
BITMAP
2D80
FFC0
2FC0
F980
EFC0
2980
6FC0
0C00
FFC0
0C00
0C00
ENDCHAR
STARTCHAR 353D
ENCODING 13629
SWIDTH 1000 0
DWIDTH 12 0
BBX 10 11 2 -2
BITMAP
0800
0FC0
0800
FF80
C180
FF80
F780
F780
FF80
C180
FF80
ENDCHAR
STARTCHAR 353E
ENCODING 13630
SWIDTH 1000 0
DWIDTH 12 0
BBX 9 10 2 -1
BITMAP
FF00
8300
8300
8300
8300
8E00
8000
8080
8180
FF80
ENDCHAR
STARTCHAR 353F
ENCODING 13631
SWIDTH 1000 0
DWIDTH 12 0
BBX 10 11 1 -1
BITMAP
FFC0
6180
6180
6180
6180
6180
6780
7D80
6180
0180
0180
ENDCHAR
STARTCHAR 3540
ENCODING 13632
SWIDTH 1000 0
DWIDTH 12 0
BBX 10 11 2 -1
BITMAP
1800
FF80
D980
FF80
FF80
0000
FF00
C300
C700
C0C0
7F80
ENDCHAR
STARTCHAR 3541
ENCODING 13633
SWIDTH 1000 0
DWIDTH 12 0
BBX 10 11 1 0
BITMAP
7BC0
33C0
EFC0
23C0
FFC0
43C0
D3C0
ABC0
6BC0
7F00
0300
ENDCHAR
STARTCHAR 3542
ENCODING 13634
SWIDTH 1000 0
DWIDTH 12 0
BBX 11 11 1 -1
BITMAP
7FC0
4600
4F00
5980
76E0
4200
5F80
4180
8300
8600
8000
ENDCHAR
STARTCHAR 3543
ENCODING 13635
SWIDTH 1000 0
DWIDTH 12 0
BBX 10 11 1 -1
BITMAP
7FC0
4000
5FC0
5980
5980
7FC0
5980
5980
D980
B180
8180
ENDCHAR
STARTCHAR 3544
ENCODING 13636
SWIDTH 1000 0
DWIDTH 12 0
BBX 10 11 1 -2
BITMAP
7FC0
4000
5FC0
4600
4400
4980
5F00
4280
CC80
9FC0
8040
ENDCHAR
STARTCHAR 3545
ENCODING 13637
SWIDTH 1000 0
DWIDTH 12 0
BBX 10 11 1 -1
BITMAP
7FC0
4000
7FC0
76C0
76C0
7FC0
76C0
7FC0
C600
8600
8600
ENDCHAR
STARTCHAR 3546
ENCODING 13638
SWIDTH 1000 0
DWIDTH 12 0
BBX 10 11 1 -2
BITMAP
7FC0
4000
4600
7FC0
4600
4600
7FC0
70C0
F0C0
BFC0
B0C0
ENDCHAR
STARTCHAR 3547
ENCODING 13639
SWIDTH 1000 0
DWIDTH 12 0
BBX 10 11 1 -1
BITMAP
7FC0
4000
4200
5FC0
4000
4880
4880
4580
C100
BFC0
8000
ENDCHAR
STARTCHAR 3548
ENCODING 13640
SWIDTH 1000 0
DWIDTH 12 0
BBX 10 11 1 -2
BITMAP
7FC0
4000
4200
7FC0
4600
4E40
5D80
7D00
EC80
8EC0
8C00
ENDCHAR
STARTCHAR 3549
ENCODING 13641
SWIDTH 1000 0
DWIDTH 12 0
BBX 10 11 1 -1
BITMAP
7FC0
4600
4F00
5980
7FC0
4000
7FC0
70C0
B0C0
BFC0
B0C0
ENDCHAR
STARTCHAR 354A
ENCODING 13642
SWIDTH 1000 0
DWIDTH 12 0
BBX 11 11 1 -2
BITMAP
7FE0
4000
7FC0
4600
7FC0
76C0
7FC0
76C0
7FC0
B6C0
B6C0
ENDCHAR
STARTCHAR 354B
ENCODING 13643
SWIDTH 1000 0
DWIDTH 12 0
BBX 11 10 1 -1
BITMAP
7FC0
4600
4F00
58C0
7FC0
4600
5FC0
5640
8E80
BFE0
ENDCHAR
STARTCHAR 354C
ENCODING 13644
SWIDTH 1000 0
DWIDTH 12 0
BBX 10 11 1 -2
BITMAP
7FC0
4000
7FC0
7FC0
7040
7FC0
7FC0
4180
7FC0
9980
8300
ENDCHAR
STARTCHAR 354D
ENCODING 13645
SWIDTH 1000 0
DWIDTH 12 0
BBX 10 11 1 -2
BITMAP
7FC0
4800
5B00
5FC0
7300
7FC0
5300
5FC0
D300
9300
9FC0
ENDCHAR
STARTCHAR 354E
ENCODING 13646
SWIDTH 1000 0
DWIDTH 12 0
BBX 10 11 1 -2
BITMAP
7FC0
4000
5F80
4200
7FC0
4980
5FC0
7FC0
7DC0
BDC0
BFC0
ENDCHAR
STARTCHAR 354F
ENCODING 13647
SWIDTH 1000 0
DWIDTH 12 0
BBX 10 11 1 -2
BITMAP
7FC0
4000
7E80
4180
7E80
7780
7F80
55C0
D580
BE80
A080
ENDCHAR
STARTCHAR 3550
ENCODING 13648
SWIDTH 1000 0
DWIDTH 12 0
BBX 10 12 1 -2
BITMAP
7FC0
4000
5FC0
5FC0
50C0
5FC0
4800
5FC0
71C0
D7C0
96C0
8180
ENDCHAR
STARTCHAR 3551
ENCODING 13649
SWIDTH 1000 0
DWIDTH 12 0
BBX 10 11 1 -2
BITMAP
7FC0
4000
7CC0
4BC0
7CC0
7EC0
75C0
7DC0
D4C0
98C0
BDC0
ENDCHAR
STARTCHAR 3552
ENCODING 13650
SWIDTH 1000 0
DWIDTH 12 0
BBX 10 11 1 -2
BITMAP
7FC0
4900
5FC0
5F80
4600
7FC0
5F80
7FC0
C980
B940
9EC0
ENDCHAR
STARTCHAR 3553
ENCODING 13651
SWIDTH 1000 0
DWIDTH 12 0
BBX 10 11 1 -2
BITMAP
7FC0
4000
7FC0
7FC0
4600
7FC0
7FC0
51C0
6640
BFC0
BFC0
ENDCHAR
STARTCHAR 3554
ENCODING 13652
SWIDTH 1000 0
DWIDTH 12 0
BBX 11 11 0 -2
BITMAP
7FE0
4000
7FE0
5D00
57E0
5FE0
7C00
7FE0
7720
9720
85C0
ENDCHAR
STARTCHAR 3555
ENCODING 13653
SWIDTH 1000 0
DWIDTH 12 0
BBX 10 12 1 -1
BITMAP
0800
0800
1300
2100
7F80
08C0
0800
1200
3300
6180
FF80
0040
ENDCHAR
STARTCHAR 3556
ENCODING 13654
SWIDTH 1000 0
DWIDTH 12 0
BBX 10 11 1 0
BITMAP
1A00
2300
7F80
5280
FFC0
0040
0C00
FFC0
1E00
6F80
8C40
ENDCHAR
STARTCHAR 3557
ENCODING 13655
SWIDTH 1000 0
DWIDTH 12 0
BBX 10 11 1 -1
BITMAP
4900
FD00
3100
7D00
3280
FE80
7A40
4FC0
9A40
3C00
C7C0
ENDCHAR
STARTCHAR 3558
ENCODING 13656
SWIDTH 1000 0
DWIDTH 12 0
BBX 11 11 0 -1
BITMAP
0D00
1980
7FC0
2940
7FE0
0F00
F6E0
D6A0
3680
6640
4C00
ENDCHAR
STARTCHAR 3559
ENCODING 13657
SWIDTH 1000 0
DWIDTH 12 0
BBX 11 12 1 -1
BITMAP
6200
5780
FC80
07C0
D5C0
CDC0
77C0
D380
63C0
7720
DDC0
0800
ENDCHAR
STARTCHAR 355A
ENCODING 13658
SWIDTH 1000 0
DWIDTH 12 0
BBX 11 11 0 -2
BITMAP
7FC0
2440
24C0
3680
5180
6900
2E00
0F00
3B80
F0E0
C020
ENDCHAR
STARTCHAR 355B
ENCODING 13659
SWIDTH 1000 0
DWIDTH 12 0
BBX 10 11 1 -2
BITMAP
7F80
2080
3F00
1F80
6080
7F80
0180
3300
0E00
7B80
E0C0
ENDCHAR
STARTCHAR 355C
ENCODING 13660
SWIDTH 1083 0
DWIDTH 13 0
BBX 11 11 1 -2
BITMAP
0C00
7FC0
6CC0
6CC0
7FC0
0C00
7F80
1180
1B00
1E00
F1E0
ENDCHAR
STARTCHAR 355D
ENCODING 13661
SWIDTH 1000 0
DWIDTH 12 0
BBX 10 12 1 -2
BITMAP
0C00
FFC0
0C00
7F80
6180
7F80
0000
7F80
2180
1E00
3F00
C1C0
ENDCHAR
STARTCHAR 355E
ENCODING 13662
SWIDTH 1000 0
DWIDTH 12 0
BBX 12 11 0 -2
BITMAP
7FF0
4630
7F20
4120
59A0
7EA0
7EC0
7EC0
FEC0
BDA0
1B30
ENDCHAR
STARTCHAR 355F
ENCODING 13663
SWIDTH 1000 0
DWIDTH 12 0
BBX 10 12 1 -2
BITMAP
2000
23C0
3C40
2240
FE40
DD40
DD80
FD80
DD80
DD80
DF40
CE40
ENDCHAR
STARTCHAR 3560
ENCODING 13664
SWIDTH 1000 0
DWIDTH 12 0
BBX 10 11 1 -1
BITMAP
9300
9F80
7300
3F80
5F80
D300
9FC0
7F80
2180
1E00
F7C0
ENDCHAR
STARTCHAR 3561
ENCODING 13665
SWIDTH 1000 0
DWIDTH 12 0
BBX 10 12 1 -2
BITMAP
1FC0
13C0
FE40
FE40
0140
DD80
BD80
6D80
FD80
2F80
3E40
0040
ENDCHAR
STARTCHAR 3562
ENCODING 13666
SWIDTH 1000 0
DWIDTH 12 0
BBX 11 12 1 -3
BITMAP
3FC0
2340
FF40
FF40
0340
FF80
FD80
FD80
CD80
FD80
5340
CE60
ENDCHAR
STARTCHAR 3563
ENCODING 13667
SWIDTH 1000 0
DWIDTH 12 0
BBX 11 11 0 -1
BITMAP
0B00
1900
1180
20C0
C060
3FE0
30C0
30C0
30C0
3FC0
30C0
ENDCHAR
STARTCHAR 3564
ENCODING 13668
SWIDTH 1000 0
DWIDTH 12 0
BBX 11 12 1 -2
BITMAP
0C00
0C00
FC00
FF80
FD80
FD80
FD80
FD80
FD80
F9E0
19C0
11C0
ENDCHAR
STARTCHAR 3565
ENCODING 13669
SWIDTH 1000 0
DWIDTH 12 0
BBX 10 12 1 -2
BITMAP
0600
F600
F600
F600
F600
F600
F700
F500
FD80
F880
10C0
3040
ENDCHAR
STARTCHAR 3566
ENCODING 13670
SWIDTH 1000 0
DWIDTH 12 0
BBX 10 10 1 -1
BITMAP
FF80
C180
C180
FF80
0C00
FFC0
0C00
1E00
7300
C1C0
ENDCHAR
STARTCHAR 3567
ENCODING 13671
SWIDTH 1000 0
DWIDTH 12 0
BBX 10 11 1 -1
BITMAP
FFC0
FCC0
FCC0
FCC0
FFC0
FC00
F800
F800
1800
1000
1000
ENDCHAR
STARTCHAR 3568
ENCODING 13672
SWIDTH 1000 0
DWIDTH 12 0
BBX 11 11 1 -1
BITMAP
0F80
F980
F980
FD80
FD80
FB80
FB80
F980
F9E0
11C0
1000
ENDCHAR
STARTCHAR 3569
ENCODING 13673
SWIDTH 1000 0
DWIDTH 12 0
BBX 11 11 1 -1
BITMAP
0300
FFC0
F300
F300
FFC0
F300
F300
FFE0
F300
0300
0300
ENDCHAR
STARTCHAR 356A
ENCODING 13674
SWIDTH 1000 0
DWIDTH 12 0
BBX 10 12 1 -1
BITMAP
0600
F600
FFC0
FEC0
FEC0
F700
F700
F700
FBC0
0BC0
33C0
1000
ENDCHAR
STARTCHAR 356B
ENCODING 13675
SWIDTH 1000 0
DWIDTH 12 0
BBX 11 11 1 -2
BITMAP
0200
FFE0
FC00
FC00
FFC0
FCC0
FCC0
F8C0
F8C0
1880
3180
ENDCHAR
STARTCHAR 356C
ENCODING 13676
SWIDTH 1000 0
DWIDTH 12 0
BBX 11 12 1 0
BITMAP
0500
F580
F480
FC80
F840
FA60
F200
F500
F480
FC80
0FC0
0040
ENDCHAR
STARTCHAR 356D
ENCODING 13677
SWIDTH 1000 0
DWIDTH 12 0
BBX 10 11 1 -2
BITMAP
00C0
FF80
E600
E600
FFC0
E600
E600
E700
E980
18C0
3040
ENDCHAR
STARTCHAR 356E
ENCODING 13678
SWIDTH 1000 0
DWIDTH 12 0
BBX 11 10 1 0
BITMAP
F480
FC40
F860
F480
F480
F580
F300
F300
0F80
18C0
ENDCHAR
STARTCHAR 356F
ENCODING 13679
SWIDTH 916 0
DWIDTH 11 0
BBX 9 12 1 -2
BITMAP
0C00
0C00
FF80
C980
DF80
E380
FF80
F380
F380
FF80
C180
C180
ENDCHAR
STARTCHAR 3570
ENCODING 13680
SWIDTH 1000 0
DWIDTH 12 0
BBX 10 11 1 -1
BITMAP
0180
FF80
F200
F2C0
FFC0
F200
FFC0
FA00
F2C0
02C0
03C0
ENDCHAR
STARTCHAR 3571
ENCODING 13681
SWIDTH 1000 0
DWIDTH 12 0
BBX 11 12 1 -1
BITMAP
0D00
FD80
FC80
FFC0
FF00
FF00
FF00
FF00
FB60
1B60
13C0
1000
ENDCHAR
STARTCHAR 3572
ENCODING 13682
SWIDTH 1000 0
DWIDTH 12 0
BBX 10 11 1 -1
BITMAP
0600
F600
FFC0
F600
F700
FF00
FE80
FEC0
1640
0600
0600
ENDCHAR
STARTCHAR 3573
ENCODING 13683
SWIDTH 1000 0
DWIDTH 12 0
BBX 10 11 1 -1
BITMAP
0100
E500
FDC0
FEC0
FAC0
FEC0
FDC0
F9C0
F8C0
1FC0
00C0
ENDCHAR
STARTCHAR 3574
ENCODING 13684
SWIDTH 1000 0
DWIDTH 12 0
BBX 11 11 1 -1
BITMAP
FFC0
F840
F840
F780
F780
F780
F780
F5E0
0DE0
19C0
1000
ENDCHAR
STARTCHAR 3575
ENCODING 13685
SWIDTH 1000 0
DWIDTH 12 0
BBX 11 10 1 -1
BITMAP
FFC0
F300
F300
F300
FFC0
F300
F300
F300
F300
0FE0
ENDCHAR
STARTCHAR 3576
ENCODING 13686
SWIDTH 1000 0
DWIDTH 12 0
BBX 11 10 1 -1
BITMAP
FFC0
F600
F400
F400
FFC0
F4C0
F4C0
F4C0
F4C0
0FE0
ENDCHAR
STARTCHAR 3577
ENCODING 13687
SWIDTH 1000 0
DWIDTH 12 0
BBX 10 11 1 0
BITMAP
0200
FFC0
F8C0
F8C0
F8C0
FFC0
F8C0
F8C0
F8C0
FFC0
08C0
ENDCHAR
STARTCHAR 3578
ENCODING 13688
SWIDTH 1000 0
DWIDTH 12 0
BBX 10 11 1 -1
BITMAP
0200
F200
FFC0
F000
FC80
F480
F480
F580
F500
F500
1FC0
ENDCHAR
STARTCHAR 3579
ENCODING 13689
SWIDTH 1000 0
DWIDTH 12 0
BBX 10 11 1 -1
BITMAP
0D00
EC80
FFC0
EC00
EF80
EC80
EE80
FB80
F300
3780
3CC0
ENDCHAR
STARTCHAR 357A
ENCODING 13690
SWIDTH 1000 0
DWIDTH 12 0
BBX 10 11 1 -2
BITMAP
F7C0
F6C0
F6C0
F7C0
0000
FFC0
4000
3F80
0180
0100
0700
ENDCHAR
STARTCHAR 357B
ENCODING 13691
SWIDTH 916 0
DWIDTH 11 0
BBX 9 11 1 0
BITMAP
0C00
FF80
0C00
3E00
ED80
8C00
FF80
C180
C180
FF80
C180
ENDCHAR
STARTCHAR 357C
ENCODING 13692
SWIDTH 1000 0
DWIDTH 12 0
BBX 10 11 1 -1
BITMAP
0800
EFC0
F0C0
EAC0
F6C0
F6C0
FEC0
F8C0
FFC0
00C0
03C0
ENDCHAR
STARTCHAR 357D
ENCODING 13693
SWIDTH 1000 0
DWIDTH 12 0
BBX 10 11 1 0
BITMAP
FD80
FB80
F980
F980
F980
FB80
FD00
F980
EAC0
0640
0440
ENDCHAR
STARTCHAR 357E
ENCODING 13694
SWIDTH 916 0
DWIDTH 11 0
BBX 9 11 1 -2
BITMAP
0C00
2E00
6F00
CD80
8C00
0000
FC00
FF00
FE00
FC80
FF80
ENDCHAR
STARTCHAR 357F
ENCODING 13695
SWIDTH 1000 0
DWIDTH 12 0
BBX 12 11 0 0
BITMAP
7FC0
0600
7FE0
0F00
3F80
E670
3FC0
30C0
30C0
3FC0
30C0
ENDCHAR
STARTCHAR 3580
ENCODING 13696
SWIDTH 1000 0
DWIDTH 12 0
BBX 10 11 1 -1
BITMAP
0600
FFC0
FFC0
E6C0
FFC0
E600
FFC0
E600
FFC0
0600
0600
ENDCHAR
STARTCHAR 3581
ENCODING 13697
SWIDTH 1000 0
DWIDTH 12 0
BBX 10 12 1 -1
BITMAP
0880
E780
E780
E8C0
E600
FFC0
E400
EA00
FA80
3480
0FC0
0040
ENDCHAR
STARTCHAR 3582
ENCODING 13698
SWIDTH 1000 0
DWIDTH 12 0
BBX 11 11 1 -2
BITMAP
0600
FFC0
FEC0
FFC0
FEC0
FEC0
FFC0
E280
E300
1F20
10C0
ENDCHAR
STARTCHAR 3583
ENCODING 13699
SWIDTH 1000 0
DWIDTH 12 0
BBX 10 12 1 -2
BITMAP
00C0
0FC0
E800
E800
EFC0
E800
E800
EFC0
ECC0
FCC0
37C0
34C0
ENDCHAR
STARTCHAR 3584
ENCODING 13700
SWIDTH 1000 0
DWIDTH 12 0
BBX 10 11 1 -2
BITMAP
EFC0
EFC0
FFC0
FFC0
FFC0
FFC0
EFC0
EBC0
EBC0
1BC0
13C0
ENDCHAR
STARTCHAR 3585
ENCODING 13701
SWIDTH 1000 0
DWIDTH 12 0
BBX 10 11 1 -2
BITMAP
0380
E380
FF80
F300
F380
FF80
F180
F100
F340
1740
24C0
ENDCHAR
STARTCHAR 3586
ENCODING 13702
SWIDTH 1000 0
DWIDTH 12 0
BBX 10 12 1 -2
BITMAP
0700
E700
FFC0
FFC0
FFC0
FFC0
FFC0
FFC0
FFC0
FFC0
1FC0
18C0
ENDCHAR
STARTCHAR 3587
ENCODING 13703
SWIDTH 1000 0
DWIDTH 12 0
BBX 10 11 1 -2
BITMAP
1FC0
E200
E600
FFC0
FDC0
FDC0
FDC0
FDC0
FDC0
FDC0
18C0
ENDCHAR
ENDFONT
